<?xml version="1.0" encoding="UTF-8"?>
<svg xmlns="http://www.w3.org/2000/svg" xmlns:xlink="http://www.w3.org/1999/xlink" viewBox="0 0 116.8 237.31">
  <defs>
    <style>
      .cls-1 {
        opacity: .15;
      }

      .cls-1, .cls-2, .cls-3 {
        mix-blend-mode: lighten;
      }

      .cls-1, .cls-2, .cls-3, .cls-4 {
        fill: #d4088c;
      }

      .cls-2 {
        opacity: .3;
      }

      .cls-3 {
        opacity: .5;
      }

      .cls-5 {
        fill: url(#_ÂÁ_Ï_ÌÌ_È_ËÂÌÚ_377);
      }

      .cls-6 {
        fill: url(#_ÂÁ_Ï_ÌÌ_È_ËÂÌÚ_377-2);
      }

      .cls-7 {
        fill: url(#_ÂÁ_Ï_ÌÌ_È_ËÂÌÚ_377-3);
      }

      .cls-8 {
        fill: url(#_ÂÁ_Ï_ÌÌ_È_ËÂÌÚ_377-4);
      }

      .cls-9 {
        fill: #0c0f38;
      }

      .cls-10 {
        fill: #6de0f6;
      }

      .cls-11 {
        isolation: isolate;
      }

      .cls-12 {
        fill: #267fe5;
      }

      .cls-13 {
        fill: #161242;
      }

      .cls-14 {
        fill: url(#_ÂÁ_Ï_ÌÌ_È_ËÂÌÚ_73-2);
      }

      .cls-15 {
        fill: url(#_ÂÁ_Ï_ÌÌ_È_ËÂÌÚ_73-4);
      }

      .cls-16 {
        fill: url(#_ÂÁ_Ï_ÌÌ_È_ËÂÌÚ_73-3);
      }

      .cls-17 {
        fill: url(#_ÂÁ_Ï_ÌÌ_È_ËÂÌÚ_73);
      }
    </style>
    <linearGradient id="_ÂÁ_Ï_ÌÌ_È_ËÂÌÚ_377" data-name="¡ÂÁ˚ÏˇÌÌ˚È „‡‰ËÂÌÚ 377" x1="-11.04" y1="160.11" x2="131.25" y2="160.11" gradientUnits="userSpaceOnUse">
      <stop offset="0" stop-color="#a31fa9"/>
      <stop offset=".07" stop-color="#8a16a0"/>
      <stop offset=".15" stop-color="#740f98"/>
      <stop offset=".24" stop-color="#640a92"/>
      <stop offset=".34" stop-color="#5a068f"/>
      <stop offset=".48" stop-color="#58068e"/>
      <stop offset=".63" stop-color="#4d21a3"/>
      <stop offset=".94" stop-color="#3167d9"/>
      <stop offset="1" stop-color="#2c75e4"/>
    </linearGradient>
    <linearGradient id="_ÂÁ_Ï_ÌÌ_È_ËÂÌÚ_73" data-name="¡ÂÁ˚ÏˇÌÌ˚È „‡‰ËÂÌÚ 73" x1="339.33" y1="678.18" x2="406.45" y2="620.05" gradientTransform="translate(383.37 -443.87) rotate(30) skewX(-30)" gradientUnits="userSpaceOnUse">
      <stop offset="0" stop-color="#267fe5"/>
      <stop offset=".17" stop-color="#2c87e6"/>
      <stop offset=".44" stop-color="#3d9eeb"/>
      <stop offset=".78" stop-color="#58c4f2"/>
      <stop offset="1" stop-color="#6ee1f8"/>
    </linearGradient>
    <linearGradient id="_ÂÁ_Ï_ÌÌ_È_ËÂÌÚ_377-2" data-name="¡ÂÁ˚ÏˇÌÌ˚È „‡‰ËÂÌÚ 377" y1="110.39" y2="110.39" xlink:href="#_ÂÁ_Ï_ÌÌ_È_ËÂÌÚ_377"/>
    <linearGradient id="_ÂÁ_Ï_ÌÌ_È_ËÂÌÚ_73-2" data-name="¡ÂÁ˚ÏˇÌÌ˚È „‡‰ËÂÌÚ 73" x1="311.33" y1="653.94" x2="378.46" y2="595.81" xlink:href="#_ÂÁ_Ï_ÌÌ_È_ËÂÌÚ_73"/>
    <linearGradient id="_ÂÁ_Ï_ÌÌ_È_ËÂÌÚ_377-3" data-name="¡ÂÁ˚ÏˇÌÌ˚È „‡‰ËÂÌÚ 377" y1="82.56" y2="82.56" xlink:href="#_ÂÁ_Ï_ÌÌ_È_ËÂÌÚ_377"/>
    <linearGradient id="_ÂÁ_Ï_ÌÌ_È_ËÂÌÚ_73-3" data-name="¡ÂÁ˚ÏˇÌÌ˚È „‡‰ËÂÌÚ 73" x1="283.5" y1="629.84" x2="350.62" y2="571.71" xlink:href="#_ÂÁ_Ï_ÌÌ_È_ËÂÌÚ_73"/>
    <linearGradient id="_ÂÁ_Ï_ÌÌ_È_ËÂÌÚ_377-4" data-name="¡ÂÁ˚ÏˇÌÌ˚È „‡‰ËÂÌÚ 377" y1="54.72" y2="54.72" xlink:href="#_ÂÁ_Ï_ÌÌ_È_ËÂÌÚ_377"/>
    <linearGradient id="_ÂÁ_Ï_ÌÌ_È_ËÂÌÚ_73-4" data-name="¡ÂÁ˚ÏˇÌÌ˚È „‡‰ËÂÌÚ 73" x1="255.67" y1="605.73" x2="322.79" y2="547.6" xlink:href="#_ÂÁ_Ï_ÌÌ_È_ËÂÌÚ_73"/>
  </defs>
  <g class="cls-11">
    <g id="_ÎÓÈ_1" data-name="—ÎÓÈ_1">
      <g>
        <path class="cls-9" d="M52.16,235.97L3.67,207.97c-3.45-1.99-3.01-5.47.97-7.77l46.55-26.88c3.98-2.3,10-2.55,13.45-.56l48.48,27.99c3.45,1.99,3.01,5.47-.97,7.77l-46.55,26.88c-3.98,2.3-10,2.55-13.45.56Z"/>
        <path class="cls-5" d="M116.8,117.38h-24.61l-27.4-15.82c-3.53-2.04-9.69-1.78-13.77.57l-26.41,15.25H.01v68.94h0c-.1,1.38.67,2.71,2.36,3.69l49.63,28.65c3.53,2.04,9.69,1.78,13.77-.57l47.65-27.51c2.12-1.22,3.24-2.77,3.35-4.26h.02v-68.94Z"/>
        <path class="cls-4" d="M6.24,117.38H.01v68.94h0c-.07.98.3,1.93,1.13,2.75-.53-.7-.77-1.48-.71-2.27h0v-68.94h6.3c-.16-.17-.32-.33-.49-.48Z"/>
        <path class="cls-10" d="M108.92,117.38c-.04.14-.09.28-.14.41h7.58v68.94h-.02c-.07.92-.53,1.87-1.37,2.75,1.12-.99,1.73-2.09,1.81-3.16h.02v-68.94h-7.88Z"/>
        <polygon class="cls-3" points="17.4 198.68 17.4 118.71 8.46 118.71 8.46 193.52 17.4 198.68"/>
        <polygon class="cls-2" points="22.88 201.85 22.88 124.08 20.44 124.08 20.44 200.44 22.88 201.85"/>
        <polygon class="cls-1" points="27.25 204.37 27.25 125.02 24.81 125.02 24.81 202.96 27.25 204.37"/>
        <path class="cls-17" d="M52.01,149.72L2.38,121.07c-3.53-2.04-3.09-5.6.99-7.95l47.65-27.51c4.07-2.35,10.24-2.61,13.77-.57l49.63,28.65c3.53,2.04,3.09,5.6-.99,7.95l-47.65,27.51c-4.07,2.35-10.24,2.61-13.77.57Z"/>
        <path class="cls-10" d="M114.42,113.69l-49.63-28.65c-1.78-1.03-4.24-1.47-6.76-1.35,2.29-.02,4.49.41,6.12,1.35l49.63,28.65c3.53,2.04,3.09,5.6-.99,7.95l-47.65,27.51c-2.02,1.16-4.54,1.81-7.01,1.92,2.66-.02,5.45-.66,7.64-1.92l47.65-27.51c4.07-2.35,4.52-5.91.99-7.95Z"/>
        <path class="cls-10" d="M58.09,142.65c-1.7,0-3.32-.34-4.54-1.04l-36.95-21.33c-1.2-.69-1.86-1.66-1.86-2.72,0-1.27.95-2.54,2.59-3.5l35.48-20.48c3.08-1.78,7.75-1.97,10.42-.42l36.95,21.33c1.2.69,1.86,1.66,1.86,2.72,0,1.27-.95,2.54-2.59,3.5l-35.48,20.48c-1.68.97-3.84,1.47-5.88,1.47ZM58.71,92.45c-1.98,0-4.08.48-5.71,1.43l-35.48,20.48c-1.54.89-2.42,2.06-2.42,3.2,0,.93.6,1.79,1.69,2.42l36.95,21.33c2.58,1.49,7.1,1.3,10.08-.42l35.48-20.48c1.54-.89,2.42-2.06,2.42-3.2,0-.93-.6-1.79-1.69-2.42l-36.95-21.33c-1.16-.67-2.73-1-4.37-1Z"/>
        <g>
          <g>
            <path class="cls-10" d="M67.19,154.61l41.98-24.28c.38-.22.7-.82.7-1.33v-.69c0-.51-.31-.75-.7-.53l-41.98,24.28c-.38.22-.7.82-.7,1.33v.69c0,.51.31.75.7.53Z"/>
            <path class="cls-12" d="M108.26,129.81c.38-.22.7-.82.7-1.33v-.56l.22-.13c.38-.22.7.01.7.53v.69c0,.51-.31,1.11-.7,1.33l-41.98,24.28c-.38.22-.7-.01-.7-.53v-.13l41.76-24.15Z"/>
          </g>
          <g>
            <path class="cls-10" d="M67.19,162l41.98-24.28c.38-.22.7-.82.7-1.33v-.69c0-.51-.31-.75-.7-.53l-41.98,24.28c-.38.22-.7.82-.7,1.33v.69c0,.51.31.75.7.53Z"/>
            <path class="cls-12" d="M108.26,137.19c.38-.22.7-.82.7-1.33v-.56l.22-.13c.38-.22.7.01.7.53v.69c0,.51-.31,1.11-.7,1.33l-41.98,24.28c-.38.22-.7-.01-.7-.53v-.13l41.76-24.15Z"/>
          </g>
          <g>
            <path class="cls-10" d="M67.19,169.39l41.98-24.28c.38-.22.7-.82.7-1.33v-.69c0-.51-.31-.75-.7-.53l-41.98,24.28c-.38.22-.7.82-.7,1.33v.69c0,.51.31.75.7.53Z"/>
            <path class="cls-12" d="M108.26,144.58c.38-.22.7-.82.7-1.33v-.56l.22-.13c.38-.22.7.01.7.53v.69c0,.51-.31,1.11-.7,1.33l-41.98,24.28c-.38.22-.7-.01-.7-.53v-.13l41.76-24.15Z"/>
          </g>
          <g>
            <path class="cls-10" d="M67.19,176.78l41.98-24.28c.38-.22.7-.82.7-1.33v-.69c0-.51-.31-.75-.7-.53l-41.98,24.28c-.38.22-.7.82-.7,1.33v.69c0,.51.31.75.7.53Z"/>
            <path class="cls-12" d="M108.26,151.97c.38-.22.7-.82.7-1.33v-.56l.22-.13c.38-.22.7.01.7.53v.69c0,.51-.31,1.11-.7,1.33l-41.98,24.28c-.38.22-.7-.01-.7-.53v-.13l41.76-24.15Z"/>
          </g>
          <g>
            <path class="cls-10" d="M67.19,184.17l41.98-24.28c.38-.22.7-.82.7-1.33v-.69c0-.51-.31-.75-.7-.53l-41.98,24.28c-.38.22-.7.82-.7,1.33v.69c0,.51.31.75.7.53Z"/>
            <path class="cls-12" d="M108.26,159.36c.38-.22.7-.82.7-1.33v-.56l.22-.13c.38-.22.7.01.7.53v.69c0,.51-.31,1.11-.7,1.33l-41.98,24.28c-.38.22-.7-.01-.7-.53v-.13l41.76-24.15Z"/>
          </g>
          <g>
            <path class="cls-10" d="M67.19,191.56l41.98-24.28c.38-.22.7-.82.7-1.33v-.69c0-.51-.31-.75-.7-.53l-41.98,24.28c-.38.22-.7.82-.7,1.33v.69c0,.51.31.75.7.53Z"/>
            <path class="cls-12" d="M108.26,166.75c.38-.22.7-.82.7-1.33v-.56l.22-.13c.38-.22.7.01.7.53v.69c0,.51-.31,1.11-.7,1.33l-41.98,24.28c-.38.22-.7-.01-.7-.53v-.13l41.76-24.15Z"/>
          </g>
          <g>
            <path class="cls-10" d="M67.19,198.94l41.98-24.28c.38-.22.7-.82.7-1.33v-.69c0-.51-.31-.75-.7-.53l-41.98,24.28c-.38.22-.7.82-.7,1.33v.69c0,.51.31.75.7.53Z"/>
            <path class="cls-12" d="M108.26,174.14c.38-.22.7-.82.7-1.33v-.56l.22-.13c.38-.22.7.01.7.53v.69c0,.51-.31,1.11-.7,1.33l-41.98,24.28c-.38.22-.7-.01-.7-.53v-.13l41.76-24.15Z"/>
          </g>
          <g>
            <path class="cls-10" d="M67.19,206.33l41.98-24.28c.38-.22.7-.82.7-1.33v-.69c0-.51-.31-.75-.7-.53l-41.98,24.28c-.38.22-.7.82-.7,1.33v.69c0,.51.31.75.7.53Z"/>
            <path class="cls-12" d="M108.26,181.52c.38-.22.7-.82.7-1.33v-.56l.22-.13c.38-.22.7.01.7.53v.69c0,.51-.31,1.11-.7,1.33l-41.98,24.28c-.38.22-.7-.01-.7-.53v-.13l41.76-24.15Z"/>
          </g>
          <g>
            <path class="cls-10" d="M67.19,213.72l41.98-24.28c.38-.22.7-.82.7-1.33v-.69c0-.51-.31-.75-.7-.53l-41.98,24.28c-.38.22-.7.82-.7,1.33v.69c0,.51.31.75.7.53Z"/>
            <path class="cls-12" d="M108.26,188.91c.38-.22.7-.82.7-1.33v-.56l.22-.13c.38-.22.7.01.7.53v.69c0,.51-.31,1.11-.7,1.33l-41.98,24.28c-.38.22-.7-.01-.7-.53v-.13l41.76-24.15Z"/>
          </g>
        </g>
        <g>
          <g>
            <path class="cls-10" d="M59.53,155.82c0,.62-.5,1.13-1.13,1.13s-1.13-.5-1.13-1.13.5-1.13,1.13-1.13,1.13.5,1.13,1.13Z"/>
            <path class="cls-12" d="M58.4,156.52c-.55,0-1.01-.39-1.11-.92-.01.07-.02.14-.02.21,0,.62.5,1.13,1.13,1.13s1.13-.5,1.13-1.13c0-.07,0-.14-.02-.21-.1.52-.56.92-1.11.92Z"/>
          </g>
          <g>
            <path class="cls-10" d="M59.53,163.2c0,.62-.5,1.13-1.13,1.13s-1.13-.5-1.13-1.13.5-1.13,1.13-1.13,1.13.5,1.13,1.13Z"/>
            <path class="cls-12" d="M58.4,163.91c-.55,0-1.01-.39-1.11-.92-.01.07-.02.14-.02.21,0,.62.5,1.13,1.13,1.13s1.13-.5,1.13-1.13c0-.07,0-.14-.02-.21-.1.52-.56.92-1.11.92Z"/>
          </g>
          <g>
            <path class="cls-10" d="M59.53,170.59c0,.62-.5,1.13-1.13,1.13s-1.13-.5-1.13-1.13.5-1.13,1.13-1.13,1.13.5,1.13,1.13Z"/>
            <path class="cls-12" d="M58.4,171.3c-.55,0-1.01-.39-1.11-.92-.01.07-.02.14-.02.21,0,.62.5,1.13,1.13,1.13s1.13-.5,1.13-1.13c0-.07,0-.14-.02-.21-.1.52-.56.92-1.11.92Z"/>
          </g>
          <g>
            <path class="cls-10" d="M59.53,177.98c0,.62-.5,1.13-1.13,1.13s-1.13-.5-1.13-1.13.5-1.13,1.13-1.13,1.13.5,1.13,1.13Z"/>
            <path class="cls-12" d="M58.4,178.69c-.55,0-1.01-.39-1.11-.92-.01.07-.02.14-.02.21,0,.62.5,1.13,1.13,1.13s1.13-.5,1.13-1.13c0-.07,0-.14-.02-.21-.1.52-.56.92-1.11.92Z"/>
          </g>
          <g>
            <path class="cls-10" d="M59.53,185.37c0,.62-.5,1.13-1.13,1.13s-1.13-.5-1.13-1.13.5-1.13,1.13-1.13,1.13.5,1.13,1.13Z"/>
            <path class="cls-12" d="M58.4,186.07c-.55,0-1.01-.39-1.11-.92-.01.07-.02.14-.02.21,0,.62.5,1.13,1.13,1.13s1.13-.5,1.13-1.13c0-.07,0-.14-.02-.21-.1.52-.56.92-1.11.92Z"/>
          </g>
          <g>
            <path class="cls-10" d="M59.53,192.76c0,.62-.5,1.13-1.13,1.13s-1.13-.5-1.13-1.13.5-1.13,1.13-1.13,1.13.5,1.13,1.13Z"/>
            <path class="cls-12" d="M58.4,193.46c-.55,0-1.01-.39-1.11-.92-.01.07-.02.14-.02.21,0,.62.5,1.13,1.13,1.13s1.13-.5,1.13-1.13c0-.07,0-.14-.02-.21-.1.52-.56.92-1.11.92Z"/>
          </g>
          <g>
            <path class="cls-10" d="M59.53,200.15c0,.62-.5,1.13-1.13,1.13s-1.13-.5-1.13-1.13.5-1.13,1.13-1.13,1.13.5,1.13,1.13Z"/>
            <path class="cls-12" d="M58.4,200.85c-.55,0-1.01-.39-1.11-.92-.01.07-.02.14-.02.21,0,.62.5,1.13,1.13,1.13s1.13-.5,1.13-1.13c0-.07,0-.14-.02-.21-.1.52-.56.92-1.11.92Z"/>
          </g>
          <g>
            <path class="cls-10" d="M59.53,207.53c0,.62-.5,1.13-1.13,1.13s-1.13-.5-1.13-1.13.5-1.13,1.13-1.13,1.13.5,1.13,1.13Z"/>
            <path class="cls-12" d="M58.4,208.24c-.55,0-1.01-.39-1.11-.92-.01.07-.02.14-.02.21,0,.62.5,1.13,1.13,1.13s1.13-.5,1.13-1.13c0-.07,0-.14-.02-.21-.1.52-.56.92-1.11.92Z"/>
          </g>
          <g>
            <path class="cls-10" d="M59.53,214.92c0,.62-.5,1.13-1.13,1.13s-1.13-.5-1.13-1.13.5-1.13,1.13-1.13,1.13.5,1.13,1.13Z"/>
            <path class="cls-12" d="M58.4,215.63c-.55,0-1.01-.39-1.11-.92-.01.07-.02.14-.02.21,0,.62.5,1.13,1.13,1.13s1.13-.5,1.13-1.13c0-.07,0-.14-.02-.21-.1.52-.56.92-1.11.92Z"/>
          </g>
        </g>
        <path class="cls-13" d="M42.29,204.12c-.23,0-.47-.07-.71-.21l-1.68-.97c-.91-.53-1.66-1.94-1.66-3.15v-45.35c0-.67.23-1.19.63-1.42.34-.2.77-.17,1.2.08l1.68.97c.91.53,1.66,1.94,1.66,3.15v45.35c0,.67-.23,1.19-.63,1.42-.15.09-.31.13-.49.13ZM39.36,153.23c-.12,0-.22.03-.32.08-.29.17-.46.58-.46,1.12v45.35c0,1.1.67,2.38,1.49,2.86l1.68.97c.32.19.63.22.86.08.29-.17.46-.58.46-1.12v-45.35c0-1.1-.67-2.38-1.49-2.86l-1.68-.97c-.19-.11-.37-.17-.54-.17Z"/>
        <path class="cls-10" d="M52.56,149.72L2.93,121.07c-3.53-2.04-3.09-5.6.99-7.95l47.65-27.51c2.02-1.17,4.55-1.81,7.02-1.92-2.64.03-5.4.67-7.56,1.92L3.37,113.12c-4.07,2.35-4.52,5.91-.99,7.95l49.63,28.65c1.78,1.03,4.23,1.47,6.75,1.35-2.32.03-4.55-.4-6.2-1.35Z"/>
        <g>
          <path class="cls-6" d="M116.8,89.38h-24.61l-27.4-15.82c-3.53-2.04-9.69-1.78-13.77.57l-26.41,15.25H.01v25.49h0c-.1,1.38.67,2.71,2.36,3.69l49.63,28.65c3.53,2.04,9.69,1.78,13.77-.57l47.65-27.51c2.12-1.22,3.24-2.77,3.35-4.26h.02v-25.49Z"/>
          <path class="cls-4" d="M6.24,89.38H.01v25.49h0c-.07.98.3,1.93,1.13,2.75-.53-.7-.77-1.48-.71-2.27h0v-25.49h6.3c-.16-.17-.32-.33-.49-.48Z"/>
          <path class="cls-10" d="M108.92,89.38c-.04.14-.09.28-.14.41h7.58v25.49h-.02c-.07.92-.53,1.87-1.37,2.75,1.12-.99,1.73-2.09,1.81-3.16h.02v-25.49h-7.88Z"/>
          <polygon class="cls-3" points="17.4 127.23 17.4 90.72 8.46 90.72 8.46 122.07 17.4 127.23"/>
          <polygon class="cls-2" points="22.88 130.4 22.88 96.09 20.44 96.09 20.44 128.99 22.88 130.4"/>
          <polygon class="cls-1" points="27.25 132.92 27.25 97.03 24.81 97.03 24.81 131.51 27.25 132.92"/>
          <path class="cls-14" d="M52.01,121.73L2.38,93.07c-3.53-2.04-3.09-5.6.99-7.95l47.65-27.51c4.07-2.35,10.24-2.61,13.77-.57l49.63,28.65c3.53,2.04,3.09,5.6-.99,7.95l-47.65,27.51c-4.07,2.35-10.24,2.61-13.77.57Z"/>
          <path class="cls-10" d="M52.56,121.73L2.93,93.07c-3.53-2.04-3.09-5.6.99-7.95l47.65-27.51c2.02-1.17,4.55-1.81,7.02-1.92-2.64.03-5.4.67-7.56,1.92L3.37,85.12c-4.07,2.35-4.52,5.91-.99,7.95l49.63,28.65c1.78,1.03,4.23,1.47,6.75,1.35-2.32.03-4.55-.4-6.2-1.35Z"/>
          <path class="cls-10" d="M114.42,85.7l-49.63-28.65c-1.78-1.03-4.24-1.47-6.76-1.35,2.29-.02,4.49.41,6.12,1.35l49.63,28.65c3.53,2.04,3.09,5.6-.99,7.95l-47.65,27.51c-2.02,1.16-4.54,1.81-7.01,1.92,2.66-.02,5.45-.66,7.64-1.92l47.65-27.51c4.07-2.35,4.52-5.91.99-7.95Z"/>
          <path class="cls-10" d="M58.09,114.65c-1.7,0-3.32-.34-4.54-1.04l-36.95-21.33c-1.2-.69-1.86-1.66-1.86-2.72,0-1.27.95-2.54,2.59-3.5l35.48-20.48c3.08-1.78,7.75-1.97,10.42-.42l36.95,21.33c1.2.69,1.86,1.66,1.86,2.72,0,1.27-.95,2.54-2.59,3.5l-35.48,20.48c-1.68.97-3.84,1.47-5.88,1.47ZM58.71,64.45c-1.98,0-4.08.48-5.71,1.43l-35.48,20.48c-1.54.89-2.42,2.06-2.42,3.2,0,.93.6,1.79,1.69,2.42l36.95,21.33c2.58,1.49,7.1,1.3,10.08-.42l35.48-20.48c1.54-.89,2.42-2.06,2.42-3.2,0-.93-.6-1.79-1.69-2.42l-36.95-21.33c-1.16-.67-2.73-1-4.37-1Z"/>
          <g>
            <g>
              <path class="cls-10" d="M67.19,127.49l41.98-24.28c.38-.22.7-.82.7-1.33v-.69c0-.51-.31-.75-.7-.53l-41.98,24.28c-.38.22-.7.82-.7,1.33v.69c0,.51.31.75.7.53Z"/>
              <path class="cls-12" d="M108.26,102.69c.38-.22.7-.82.7-1.33v-.56l.22-.13c.38-.22.7.01.7.53v.69c0,.51-.31,1.11-.7,1.33l-41.98,24.28c-.38.22-.7-.01-.7-.53v-.13l41.76-24.15Z"/>
            </g>
            <g>
              <path class="cls-10" d="M67.19,134.88l41.98-24.28c.38-.22.7-.82.7-1.33v-.69c0-.51-.31-.75-.7-.53l-41.98,24.28c-.38.22-.7.82-.7,1.33v.69c0,.51.31.75.7.53Z"/>
              <path class="cls-12" d="M108.26,110.07c.38-.22.7-.82.7-1.33v-.56l.22-.13c.38-.22.7.01.7.53v.69c0,.51-.31,1.11-.7,1.33l-41.98,24.28c-.38.22-.7-.01-.7-.53v-.13l41.76-24.15Z"/>
            </g>
            <g>
              <path class="cls-10" d="M67.19,142.27l41.98-24.28c.38-.22.7-.82.7-1.33v-.69c0-.51-.31-.75-.7-.53l-41.98,24.28c-.38.22-.7.82-.7,1.33v.69c0,.51.31.75.7.53Z"/>
              <path class="cls-12" d="M108.26,117.46c.38-.22.7-.82.7-1.33v-.56l.22-.13c.38-.22.7.01.7.53v.69c0,.51-.31,1.11-.7,1.33l-41.98,24.28c-.38.22-.7-.01-.7-.53v-.13l41.76-24.15Z"/>
            </g>
          </g>
          <g>
            <g>
              <path class="cls-10" d="M59.53,128.7c0,.62-.5,1.13-1.13,1.13s-1.13-.5-1.13-1.13.5-1.13,1.13-1.13,1.13.5,1.13,1.13Z"/>
              <path class="cls-12" d="M58.4,129.4c-.55,0-1.01-.39-1.11-.92-.01.07-.02.14-.02.21,0,.62.5,1.13,1.13,1.13s1.13-.5,1.13-1.13c0-.07,0-.14-.02-.21-.1.52-.56.92-1.11.92Z"/>
            </g>
            <g>
              <path class="cls-10" d="M59.53,136.08c0,.62-.5,1.13-1.13,1.13s-1.13-.5-1.13-1.13.5-1.13,1.13-1.13,1.13.5,1.13,1.13Z"/>
              <path class="cls-12" d="M58.4,136.79c-.55,0-1.01-.39-1.11-.92-.01.07-.02.14-.02.21,0,.62.5,1.13,1.13,1.13s1.13-.5,1.13-1.13c0-.07,0-.14-.02-.21-.1.52-.56.92-1.11.92Z"/>
            </g>
            <g>
              <path class="cls-10" d="M59.53,143.47c0,.62-.5,1.13-1.13,1.13s-1.13-.5-1.13-1.13.5-1.13,1.13-1.13,1.13.5,1.13,1.13Z"/>
              <path class="cls-12" d="M58.4,144.18c-.55,0-1.01-.39-1.11-.92-.01.07-.02.14-.02.21,0,.62.5,1.13,1.13,1.13s1.13-.5,1.13-1.13c0-.07,0-.14-.02-.21-.1.52-.56.92-1.11.92Z"/>
            </g>
          </g>
          <path class="cls-13" d="M42.29,132.67c-.23,0-.47-.07-.71-.21l-1.68-.97c-.91-.53-1.66-1.94-1.66-3.15v-1.89c0-.67.23-1.19.63-1.42.34-.2.77-.17,1.2.08l1.68.97c.91.53,1.66,1.94,1.66,3.15v1.89c0,.67-.23,1.19-.63,1.42-.15.09-.31.13-.49.13ZM39.36,125.24c-.12,0-.22.03-.32.08-.29.17-.46.58-.46,1.12v1.89c0,1.1.67,2.38,1.49,2.86l1.68.97c.32.19.63.22.86.08.29-.17.46-.58.46-1.12v-1.89c0-1.1-.67-2.38-1.49-2.86l-1.68-.97c-.19-.11-.37-.17-.54-.17Z"/>
        </g>
        <g>
          <path class="cls-7" d="M116.8,61.55h-24.61l-27.4-15.82c-3.53-2.04-9.69-1.78-13.77.57l-26.41,15.25H.01v25.49h0c-.1,1.38.67,2.71,2.36,3.69l49.63,28.65c3.53,2.04,9.69,1.78,13.77-.57l47.65-27.51c2.12-1.22,3.24-2.77,3.35-4.26h.02v-25.49Z"/>
          <path class="cls-4" d="M6.24,61.55H.01v25.49h0c-.07.98.3,1.93,1.13,2.75-.53-.7-.77-1.48-.71-2.27h0v-25.49h6.3c-.16-.17-.32-.33-.49-.48Z"/>
          <path class="cls-10" d="M108.92,61.55c-.04.14-.09.28-.14.41h7.58v25.49h-.02c-.07.92-.53,1.87-1.37,2.75,1.12-.99,1.73-2.09,1.81-3.16h.02v-25.49h-7.88Z"/>
          <polygon class="cls-3" points="17.4 99.39 17.4 62.88 8.46 62.88 8.46 94.23 17.4 99.39"/>
          <polygon class="cls-2" points="22.88 102.56 22.88 68.25 20.44 68.25 20.44 101.15 22.88 102.56"/>
          <polygon class="cls-1" points="27.25 105.09 27.25 69.19 24.81 69.19 24.81 103.68 27.25 105.09"/>
          <path class="cls-16" d="M52.01,93.89L2.38,65.24c-3.53-2.04-3.09-5.6.99-7.95l47.65-27.51c4.07-2.35,10.24-2.61,13.77-.57l49.63,28.65c3.53,2.04,3.09,5.6-.99,7.95l-47.65,27.51c-4.07,2.35-10.24,2.61-13.77.57Z"/>
          <path class="cls-10" d="M52.56,93.89L2.93,65.24c-3.53-2.04-3.09-5.6.99-7.95l47.65-27.51c2.02-1.17,4.55-1.81,7.02-1.92-2.64.03-5.4.67-7.56,1.92L3.37,57.29c-4.07,2.35-4.52,5.91-.99,7.95l49.63,28.65c1.78,1.03,4.23,1.47,6.75,1.35-2.32.03-4.55-.4-6.2-1.35Z"/>
          <path class="cls-10" d="M114.42,57.86l-49.63-28.65c-1.78-1.03-4.24-1.47-6.76-1.35,2.29-.02,4.49.41,6.12,1.35l49.63,28.65c3.53,2.04,3.09,5.6-.99,7.95l-47.65,27.51c-2.02,1.16-4.54,1.81-7.01,1.92,2.66-.02,5.45-.66,7.64-1.92l47.65-27.51c4.07-2.35,4.52-5.91.99-7.95Z"/>
          <path class="cls-10" d="M58.09,86.82c-1.7,0-3.32-.34-4.54-1.04l-36.95-21.33c-1.2-.69-1.86-1.66-1.86-2.72,0-1.27.95-2.54,2.59-3.5l35.48-20.48c3.08-1.78,7.75-1.97,10.42-.42l36.95,21.33c1.2.69,1.86,1.66,1.86,2.72,0,1.27-.95,2.54-2.59,3.5l-35.48,20.48c-1.68.97-3.84,1.47-5.88,1.47ZM58.71,36.62c-1.98,0-4.08.48-5.71,1.43l-35.48,20.48c-1.54.89-2.42,2.06-2.42,3.2,0,.93.6,1.79,1.69,2.42l36.95,21.33c2.58,1.49,7.1,1.3,10.08-.42l35.48-20.48c1.54-.89,2.42-2.06,2.42-3.2,0-.93-.6-1.79-1.69-2.42l-36.95-21.33c-1.16-.67-2.73-1-4.37-1Z"/>
          <g>
            <g>
              <path class="cls-10" d="M67.19,99.66l41.98-24.28c.38-.22.7-.82.7-1.33v-.69c0-.51-.31-.75-.7-.53l-41.98,24.28c-.38.22-.7.82-.7,1.33v.69c0,.51.31.75.7.53Z"/>
              <path class="cls-12" d="M108.26,74.85c.38-.22.7-.82.7-1.33v-.56l.22-.13c.38-.22.7.01.7.53v.69c0,.51-.31,1.11-.7,1.33l-41.98,24.28c-.38.22-.7-.01-.7-.53v-.13l41.76-24.15Z"/>
            </g>
            <g>
              <path class="cls-10" d="M67.19,107.05l41.98-24.28c.38-.22.7-.82.7-1.33v-.69c0-.51-.31-.75-.7-.53l-41.98,24.28c-.38.22-.7.82-.7,1.33v.69c0,.51.31.75.7.53Z"/>
              <path class="cls-12" d="M108.26,82.24c.38-.22.7-.82.7-1.33v-.56l.22-.13c.38-.22.7.01.7.53v.69c0,.51-.31,1.11-.7,1.33l-41.98,24.28c-.38.22-.7-.01-.7-.53v-.13l41.76-24.15Z"/>
            </g>
            <g>
              <path class="cls-10" d="M67.19,114.44l41.98-24.28c.38-.22.7-.82.7-1.33v-.69c0-.51-.31-.75-.7-.53l-41.98,24.28c-.38.22-.7.82-.7,1.33v.69c0,.51.31.75.7.53Z"/>
              <path class="cls-12" d="M108.26,89.63c.38-.22.7-.82.7-1.33v-.56l.22-.13c.38-.22.7.01.7.53v.69c0,.51-.31,1.11-.7,1.33l-41.98,24.28c-.38.22-.7-.01-.7-.53v-.13l41.76-24.15Z"/>
            </g>
          </g>
          <g>
            <g>
              <path class="cls-10" d="M59.53,100.86c0,.62-.5,1.13-1.13,1.13s-1.13-.5-1.13-1.13.5-1.13,1.13-1.13,1.13.5,1.13,1.13Z"/>
              <path class="cls-12" d="M58.4,101.57c-.55,0-1.01-.39-1.11-.92-.01.07-.02.14-.02.21,0,.62.5,1.13,1.13,1.13s1.13-.5,1.13-1.13c0-.07,0-.14-.02-.21-.1.52-.56.92-1.11.92Z"/>
            </g>
            <g>
              <path class="cls-10" d="M59.53,108.25c0,.62-.5,1.13-1.13,1.13s-1.13-.5-1.13-1.13.5-1.13,1.13-1.13,1.13.5,1.13,1.13Z"/>
              <path class="cls-12" d="M58.4,108.96c-.55,0-1.01-.39-1.11-.92-.01.07-.02.14-.02.21,0,.62.5,1.13,1.13,1.13s1.13-.5,1.13-1.13c0-.07,0-.14-.02-.21-.1.52-.56.92-1.11.92Z"/>
            </g>
            <g>
              <path class="cls-10" d="M59.53,115.64c0,.62-.5,1.13-1.13,1.13s-1.13-.5-1.13-1.13.5-1.13,1.13-1.13,1.13.5,1.13,1.13Z"/>
              <path class="cls-12" d="M58.4,116.34c-.55,0-1.01-.39-1.11-.92-.01.07-.02.14-.02.21,0,.62.5,1.13,1.13,1.13s1.13-.5,1.13-1.13c0-.07,0-.14-.02-.21-.1.52-.56.92-1.11.92Z"/>
            </g>
          </g>
          <path class="cls-13" d="M42.29,104.83c-.23,0-.47-.07-.71-.21l-1.68-.97c-.91-.53-1.66-1.94-1.66-3.15v-1.89c0-.67.23-1.19.63-1.42.34-.2.77-.17,1.2.08l1.68.97c.91.53,1.66,1.94,1.66,3.15v1.89c0,.67-.23,1.19-.63,1.42-.15.09-.31.13-.49.13ZM39.36,97.4c-.12,0-.22.03-.32.08-.29.17-.46.58-.46,1.12v1.89c0,1.1.67,2.38,1.49,2.86l1.68.97c.32.19.63.22.86.08.29-.17.46-.58.46-1.12v-1.89c0-1.1-.67-2.38-1.49-2.86l-1.68-.97c-.19-.11-.37-.17-.54-.17Z"/>
        </g>
        <g>
          <path class="cls-8" d="M116.8,33.72h-24.61l-27.4-15.82c-3.53-2.04-9.69-1.78-13.77.57l-26.41,15.25H.01v25.49h0c-.1,1.38.67,2.71,2.36,3.69l49.63,28.65c3.53,2.04,9.69,1.78,13.77-.57l47.65-27.51c2.12-1.22,3.24-2.77,3.35-4.26h.02v-25.49Z"/>
          <path class="cls-4" d="M6.24,33.72H.01v25.49h0c-.07.98.3,1.93,1.13,2.75-.53-.7-.77-1.48-.71-2.27h0v-25.49h6.3c-.16-.17-.32-.33-.49-.48Z"/>
          <path class="cls-10" d="M108.92,33.72c-.04.14-.09.28-.14.41h7.58v25.49h-.02c-.07.92-.53,1.87-1.37,2.75,1.12-.99,1.73-2.09,1.81-3.16h.02v-25.49h-7.88Z"/>
          <polygon class="cls-3" points="17.4 71.56 17.4 35.05 8.46 35.05 8.46 66.4 17.4 71.56"/>
          <polygon class="cls-2" points="22.88 74.73 22.88 40.42 20.44 40.42 20.44 73.32 22.88 74.73"/>
          <polygon class="cls-1" points="27.25 77.25 27.25 41.36 24.81 41.36 24.81 75.84 27.25 77.25"/>
          <path class="cls-15" d="M52.01,66.06L2.38,37.41c-3.53-2.04-3.09-5.6.99-7.95L51.02,1.95c4.07-2.35,10.24-2.61,13.77-.57l49.63,28.65c3.53,2.04,3.09,5.6-.99,7.95l-47.65,27.51c-4.07,2.35-10.24,2.61-13.77.57Z"/>
          <path class="cls-10" d="M52.56,66.06L2.93,37.41c-3.53-2.04-3.09-5.6.99-7.95L51.57,1.95c2.02-1.17,4.55-1.81,7.02-1.92-2.64.03-5.4.67-7.56,1.92L3.37,29.46c-4.07,2.35-4.52,5.91-.99,7.95l49.63,28.65c1.78,1.03,4.23,1.47,6.75,1.35-2.32.03-4.55-.4-6.2-1.35Z"/>
          <path class="cls-10" d="M114.42,30.03L64.79,1.38C63,.35,60.55-.09,58.03.02c2.29-.02,4.49.41,6.12,1.35l49.63,28.65c3.53,2.04,3.09,5.6-.99,7.95l-47.65,27.51c-2.02,1.16-4.54,1.81-7.01,1.92,2.66-.02,5.45-.66,7.64-1.92l47.65-27.51c4.07-2.35,4.52-5.91.99-7.95Z"/>
          <path class="cls-10" d="M58.09,58.99c-1.7,0-3.32-.34-4.54-1.04l-36.95-21.33c-1.2-.69-1.86-1.66-1.86-2.72,0-1.27.95-2.54,2.59-3.5L52.82,9.92c3.08-1.78,7.75-1.97,10.42-.42l36.95,21.33c1.2.69,1.86,1.66,1.86,2.72,0,1.27-.95,2.54-2.59,3.5l-35.48,20.48c-1.68.97-3.84,1.47-5.88,1.47ZM58.71,8.79c-1.98,0-4.08.48-5.71,1.43L17.52,30.69c-1.54.89-2.42,2.06-2.42,3.2,0,.93.6,1.79,1.69,2.42l36.95,21.33c2.58,1.49,7.1,1.3,10.08-.43l35.48-20.48c1.54-.89,2.42-2.06,2.42-3.2,0-.93-.6-1.79-1.69-2.42L63.07,9.79c-1.16-.67-2.73-1-4.37-1Z"/>
          <g>
            <g>
              <path class="cls-10" d="M67.19,71.83l41.98-24.28c.38-.22.7-.82.7-1.33v-.69c0-.51-.31-.75-.7-.53l-41.98,24.28c-.38.22-.7.82-.7,1.33v.69c0,.51.31.75.7.53Z"/>
              <path class="cls-12" d="M108.26,47.02c.38-.22.7-.82.7-1.33v-.56l.22-.13c.38-.22.7.01.7.53v.69c0,.51-.31,1.11-.7,1.33l-41.98,24.28c-.38.22-.7-.01-.7-.53v-.13l41.76-24.15Z"/>
            </g>
            <g>
              <path class="cls-10" d="M67.19,79.22l41.98-24.28c.38-.22.7-.82.7-1.33v-.69c0-.51-.31-.75-.7-.53l-41.98,24.28c-.38.22-.7.82-.7,1.33v.69c0,.51.31.75.7.53Z"/>
              <path class="cls-12" d="M108.26,54.41c.38-.22.7-.82.7-1.33v-.56l.22-.13c.38-.22.7.01.7.53v.69c0,.51-.31,1.11-.7,1.33l-41.98,24.28c-.38.22-.7-.01-.7-.53v-.13l41.76-24.15Z"/>
            </g>
            <g>
              <path class="cls-10" d="M67.19,86.6l41.98-24.28c.38-.22.7-.82.7-1.33v-.69c0-.51-.31-.75-.7-.53l-41.98,24.28c-.38.22-.7.82-.7,1.33v.69c0,.51.31.75.7.53Z"/>
              <path class="cls-12" d="M108.26,61.8c.38-.22.7-.82.7-1.33v-.56l.22-.13c.38-.22.7.01.7.53v.69c0,.51-.31,1.11-.7,1.33l-41.98,24.28c-.38.22-.7-.01-.7-.53v-.13l41.76-24.15Z"/>
            </g>
          </g>
          <g>
            <g>
              <path class="cls-10" d="M59.53,73.03c0,.62-.5,1.13-1.13,1.13s-1.13-.5-1.13-1.13.5-1.13,1.13-1.13,1.13.5,1.13,1.13Z"/>
              <path class="cls-12" d="M58.4,73.73c-.55,0-1.01-.39-1.11-.92-.01.07-.02.14-.02.21,0,.62.5,1.13,1.13,1.13s1.13-.5,1.13-1.13c0-.07,0-.14-.02-.21-.1.52-.56.92-1.11.92Z"/>
            </g>
            <g>
              <path class="cls-10" d="M59.53,80.42c0,.62-.5,1.13-1.13,1.13s-1.13-.5-1.13-1.13.5-1.13,1.13-1.13,1.13.5,1.13,1.13Z"/>
              <path class="cls-12" d="M58.4,81.12c-.55,0-1.01-.39-1.11-.92-.01.07-.02.14-.02.21,0,.62.5,1.13,1.13,1.13s1.13-.5,1.13-1.13c0-.07,0-.14-.02-.21-.1.52-.56.92-1.11.92Z"/>
            </g>
            <g>
              <path class="cls-10" d="M59.53,87.81c0,.62-.5,1.13-1.13,1.13s-1.13-.5-1.13-1.13.5-1.13,1.13-1.13,1.13.5,1.13,1.13Z"/>
              <path class="cls-12" d="M58.4,88.51c-.55,0-1.01-.39-1.11-.92-.01.07-.02.14-.02.21,0,.62.5,1.13,1.13,1.13s1.13-.5,1.13-1.13c0-.07,0-.14-.02-.21-.1.52-.56.92-1.11.92Z"/>
            </g>
          </g>
          <path class="cls-13" d="M42.29,77c-.23,0-.47-.07-.71-.21l-1.68-.97c-.91-.53-1.66-1.94-1.66-3.15v-1.89c0-.67.23-1.19.63-1.42.34-.2.77-.17,1.2.08l1.68.97c.91.53,1.66,1.94,1.66,3.15v1.89c0,.67-.23,1.19-.63,1.42-.15.09-.31.13-.49.13ZM39.36,69.57c-.12,0-.22.03-.32.08-.29.17-.46.58-.46,1.12v1.89c0,1.1.67,2.38,1.49,2.86l1.68.97c.32.19.63.22.86.08.29-.17.46-.58.46-1.12v-1.89c0-1.1-.67-2.38-1.49-2.86l-1.68-.97c-.19-.11-.37-.17-.54-.17Z"/>
        </g>
      </g>
    </g>
  </g>
</svg>