<?xml version="1.0" encoding="UTF-8"?>
<svg id="Layer_1" data-name="Layer 1" xmlns="http://www.w3.org/2000/svg" viewBox="0 0 116.19 174">
  <defs>
    <style>
      .cls-1 {
        fill: #121214;
      }

      .cls-2 {
        fill: #bcbec0;
      }

      .cls-3 {
        fill: #303033;
      }

      .cls-4 {
        opacity: .3;
      }

      .cls-5 {
        fill: #939598;
      }

      .cls-6 {
        fill: #e6e7e8;
      }

      .cls-7 {
        fill: #535359;
      }

      .cls-8 {
        fill: #a7a9ac;
      }
    </style>
  </defs>
  <g>
    <g>
      <polygon class="cls-2" points="36.45 71.32 57.27 70.55 57.27 72.14 56.62 72.52 56.32 72.18 39.04 72.82 57.27 83.34 57.27 84.75 56.62 85.12 56.3 84.18 31.01 69.58 30.36 68.55 31.01 68.18 36.45 71.32"/>
      <polygon class="cls-8" points="35.8 71.69 56.62 70.93 56.62 72.52 38.39 73.19 56.62 83.72 56.62 85.12 30.36 69.96 30.36 68.55 35.8 71.69"/>
    </g>
    <polygon class="cls-2" points="32.19 68.86 31.53 69.24 30.44 70.65 23.64 74.6 20.96 75.3 19.78 74.62 31.01 68.18 32.19 68.86"/>
    <polygon class="cls-5" points="31.53 69.24 20.96 75.3 20.96 76.71 31.53 70.64 31.53 69.24"/>
    <g>
      <polygon class="cls-2" points="25.88 77.38 46.7 76.61 46.7 78.2 46.04 78.58 45.74 78.24 28.47 78.88 46.7 89.4 46.7 90.81 46.04 91.18 45.72 90.24 20.44 75.65 19.78 74.62 20.44 74.24 25.88 77.38"/>
      <polygon class="cls-8" points="25.22 77.76 46.04 76.99 46.04 78.58 27.81 79.26 46.04 89.78 46.04 91.18 19.78 76.02 19.78 74.62 25.22 77.76"/>
    </g>
    <g>
      <path class="cls-6" d="M20.16,73.89c.51-.3,1.35-.3,1.87,0,.52.3.52.78,0,1.08-.52.3-1.36.3-1.87,0-.52-.3-.52-.78,0-1.08Z"/>
      <g>
        <path class="cls-3" d="M22.54,74.43v.14c0,.21-.14.42-.42.59-.57.32-1.48.32-2.05,0-.28-.17-.42-.37-.42-.59v-.14c0,.22,2.89.22,2.89,0Z"/>
        <path class="cls-7" d="M20.07,73.85c.56-.33,1.48-.33,2.05,0,.56.32.56.85,0,1.18-.57.32-1.48.32-2.05,0-.56-.32-.56-.85,0-1.18Z"/>
      </g>
      <g>
        <path class="cls-1" d="M20.16,74.59c.51.3,1.35.3,1.87,0,.26-.14.39-.34.39-.53v.38c0,.2-.13.39-.39.54-.52.3-1.36.3-1.87,0-.26-.15-.39-.34-.39-.54v-.38c0,.19.13.39.39.53Z"/>
        <path class="cls-6" d="M20.16,73.51c.51-.3,1.35-.3,1.87,0,.52.3.52.79,0,1.08-.52.3-1.36.3-1.87,0-.52-.29-.52-.77,0-1.08Z"/>
      </g>
      <g>
        <path class="cls-3" d="M22.54,74.05v.14c0,.21-.14.42-.42.59-.57.32-1.48.32-2.05,0-.28-.16-.42-.38-.42-.59v-.14c0,.21,2.89.21,2.89,0Z"/>
        <path class="cls-7" d="M20.07,73.47c.56-.32,1.48-.32,2.05,0,.56.32.56.85,0,1.18-.57.32-1.48.32-2.05,0-.56-.32-.56-.85,0-1.18Z"/>
      </g>
      <g>
        <path class="cls-1" d="M20.16,74.21c.51.3,1.35.3,1.87,0,.26-.14.39-.34.39-.54v.38c0,.19-.13.39-.39.53-.52.3-1.36.3-1.87,0-.26-.14-.39-.34-.39-.53v-.38c0,.19.13.39.39.54Z"/>
        <path class="cls-6" d="M20.16,73.13c.51-.29,1.35-.29,1.87,0,.52.3.52.78,0,1.08-.52.3-1.36.3-1.87,0-.52-.3-.52-.78,0-1.08Z"/>
      </g>
      <g>
        <path class="cls-3" d="M22.54,73.67v.14c0,.22-.14.43-.42.59-.57.32-1.48.32-2.05,0-.28-.17-.42-.38-.42-.59v-.14c0,.22,2.89.22,2.89,0Z"/>
        <path class="cls-7" d="M20.07,73.08c.56-.33,1.48-.33,2.05,0,.56.32.56.85,0,1.18-.57.32-1.48.32-2.05,0-.56-.33-.56-.86,0-1.18Z"/>
      </g>
      <g>
        <path class="cls-1" d="M20.16,73.8c.51.3,1.35.3,1.87,0,.26-.15.39-.35.39-.54v.38c0,.2-.13.39-.39.54-.52.3-1.36.3-1.87,0-.26-.15-.38-.34-.38-.54v-.38c0,.2.12.39.38.54Z"/>
        <path class="cls-6" d="M20.16,72.71c.51-.3,1.35-.3,1.87,0,.52.3.52.78,0,1.08-.52.3-1.36.3-1.87,0-.52-.3-.52-.78,0-1.08Z"/>
      </g>
      <g>
        <path class="cls-3" d="M22.54,73.25v.14c0,.21-.14.43-.42.59-.57.33-1.48.33-2.04,0-.28-.16-.43-.37-.43-.59v-.14c0,.21,2.89.21,2.89,0Z"/>
        <path class="cls-7" d="M20.07,72.66c.56-.32,1.48-.32,2.05,0,.56.32.56.85,0,1.18-.57.33-1.48.33-2.05,0-.56-.32-.56-.85,0-1.18Z"/>
      </g>
      <g>
        <path class="cls-1" d="M20.16,73.41c.51.3,1.35.3,1.87,0,.26-.15.39-.34.39-.54v.38c0,.2-.13.39-.39.54-.52.3-1.36.3-1.87,0-.26-.15-.38-.35-.38-.54v-.38c0,.19.12.39.38.54Z"/>
        <path class="cls-6" d="M20.16,72.33c.51-.3,1.35-.3,1.87,0,.52.3.52.78,0,1.08-.52.3-1.36.3-1.87,0-.52-.3-.52-.78,0-1.08Z"/>
      </g>
      <g>
        <path class="cls-3" d="M22.54,72.87v.14c0,.21-.14.43-.42.59-.57.32-1.48.32-2.04,0-.28-.16-.43-.38-.43-.59v-.14c0,.21,2.89.21,2.89,0Z"/>
        <path class="cls-7" d="M20.07,72.28c.56-.32,1.48-.32,2.05,0,.56.32.56.85,0,1.18-.57.32-1.48.32-2.05,0-.56-.33-.56-.86,0-1.18Z"/>
      </g>
      <g>
        <path class="cls-1" d="M20.16,73.03c.51.3,1.35.3,1.87,0,.26-.14.39-.34.39-.54v.38c0,.19-.13.39-.39.54-.52.3-1.36.3-1.87,0-.26-.15-.38-.34-.38-.54v-.38c0,.19.12.39.38.54Z"/>
        <path class="cls-6" d="M20.16,71.95c.51-.3,1.35-.3,1.87,0,.52.3.52.78,0,1.08-.52.3-1.36.3-1.87,0-.52-.3-.52-.78,0-1.08Z"/>
      </g>
      <g>
        <path class="cls-3" d="M22.54,72.49v.13c0,.21-.14.43-.42.59-.57.33-1.48.33-2.04,0-.28-.16-.43-.38-.43-.59v-.13c0,.21,2.89.21,2.89,0Z"/>
        <path class="cls-7" d="M20.07,71.9c.56-.32,1.48-.32,2.05,0,.56.32.56.85,0,1.18-.57.32-1.48.32-2.05,0-.56-.32-.56-.85,0-1.18Z"/>
      </g>
      <g>
        <path class="cls-1" d="M20.16,72.65c.51.3,1.35.3,1.87,0,.26-.15.39-.35.39-.54v.38c0,.19-.13.39-.39.54-.52.3-1.36.3-1.87,0-.26-.15-.38-.34-.38-.54v-.38c0,.2.12.39.38.54Z"/>
        <path class="cls-6" d="M20.16,71.57c.51-.3,1.35-.3,1.87,0,.52.3.52.78,0,1.08-.52.3-1.36.3-1.87,0-.52-.3-.52-.78,0-1.08Z"/>
      </g>
      <g>
        <path class="cls-3" d="M22.54,72.11v.13c0,.21-.14.43-.42.59-.57.33-1.48.33-2.04,0-.28-.16-.43-.38-.43-.59v-.13c0,.21,2.89.21,2.89,0Z"/>
        <path class="cls-7" d="M20.07,71.52c.56-.32,1.48-.32,2.05,0,.56.32.56.85,0,1.18-.57.32-1.48.33-2.05,0-.56-.32-.56-.85,0-1.18Z"/>
      </g>
      <g>
        <path class="cls-8" d="M20.58,71.04c.27.16.71.16.99,0,.13-.08.21-.18.21-.28v1.33c0,.1-.07.21-.21.28-.27.16-.71.16-.99,0-.14-.08-.2-.18-.2-.28v-1.33c0,.1.07.2.2.28Z"/>
        <path class="cls-6" d="M20.58,70.47c.27-.16.71-.16.99,0,.27.16.27.41,0,.57-.27.16-.71.16-.99,0-.28-.16-.28-.41,0-.57Z"/>
      </g>
      <g>
        <path class="cls-3" d="M21.24,69.73v1.02s-.02.05-.05.07c-.06.04-.17.04-.23,0-.03-.02-.04-.04-.04-.07v-1.02s.33.03.33,0Z"/>
        <path class="cls-7" d="M20.95,69.66c.06-.04.17-.04.23,0,.07.04.07.1,0,.13-.06.04-.17.04-.23,0-.06-.03-.06-.09,0-.13Z"/>
      </g>
    </g>
    <g>
      <path class="cls-6" d="M30.2,68.1c.51-.3,1.36-.3,1.87,0,.52.3.52.78,0,1.08-.52.3-1.36.3-1.87,0-.52-.3-.52-.78,0-1.08Z"/>
      <g>
        <path class="cls-3" d="M32.58,68.64v.14c0,.21-.14.42-.43.59-.56.33-1.48.33-2.04,0-.28-.16-.43-.38-.42-.59v-.14c0,.21,2.89.21,2.89,0Z"/>
        <path class="cls-7" d="M30.11,68.05c.56-.32,1.48-.32,2.04,0,.57.32.57.85,0,1.18-.56.33-1.48.33-2.04,0-.56-.32-.56-.85,0-1.18Z"/>
      </g>
      <g>
        <path class="cls-1" d="M30.2,68.79c.51.3,1.36.3,1.87,0,.26-.15.39-.35.39-.54v.38c0,.2-.13.39-.39.54-.52.3-1.36.3-1.87,0-.26-.15-.39-.34-.39-.54v-.38c0,.19.13.39.39.54Z"/>
        <path class="cls-6" d="M30.2,67.72c.51-.3,1.36-.3,1.87,0,.52.3.52.78,0,1.07-.52.3-1.36.3-1.87,0-.52-.3-.52-.78,0-1.07Z"/>
      </g>
      <g>
        <path class="cls-3" d="M32.58,68.26v.13c0,.21-.14.43-.43.59-.56.33-1.48.33-2.04,0-.28-.16-.43-.38-.42-.59v-.13c0,.21,2.89.21,2.89,0Z"/>
        <path class="cls-7" d="M30.11,67.67c.56-.32,1.48-.32,2.04,0,.57.32.57.85,0,1.18-.56.32-1.48.32-2.04,0-.56-.32-.56-.85,0-1.18Z"/>
      </g>
      <g>
        <path class="cls-1" d="M30.2,68.42c.51.3,1.36.3,1.87,0,.26-.15.39-.35.39-.54v.39c0,.19-.13.39-.39.54-.52.3-1.36.3-1.87,0-.26-.15-.39-.35-.39-.54v-.39c0,.2.13.39.39.54Z"/>
        <path class="cls-6" d="M30.2,67.34c.51-.3,1.36-.3,1.87,0,.52.3.52.78,0,1.08-.52.3-1.36.3-1.87,0-.52-.3-.52-.79,0-1.08Z"/>
      </g>
      <g>
        <path class="cls-3" d="M32.58,67.87v.13c0,.22-.14.43-.43.59-.56.33-1.48.33-2.04,0-.28-.16-.43-.38-.42-.59v-.13c0,.21,2.89.21,2.89,0Z"/>
        <path class="cls-7" d="M30.11,67.29c.56-.32,1.48-.32,2.04,0,.57.32.57.85,0,1.18-.56.32-1.48.32-2.04,0-.56-.32-.56-.85,0-1.18Z"/>
      </g>
      <g>
        <path class="cls-1" d="M30.2,68c.51.3,1.36.3,1.87,0,.26-.15.39-.34.39-.54v.38c0,.2-.13.39-.39.54-.52.3-1.36.3-1.87,0-.26-.15-.39-.34-.39-.54v-.38c0,.2.13.39.39.54Z"/>
        <path class="cls-6" d="M30.2,66.92c.51-.3,1.36-.3,1.87,0,.52.3.52.78,0,1.08-.52.3-1.36.3-1.87,0-.52-.3-.52-.78,0-1.08Z"/>
      </g>
      <g>
        <path class="cls-3" d="M32.58,67.46v.13c0,.21-.14.43-.42.59-.57.33-1.48.33-2.04,0-.28-.16-.43-.38-.43-.59v-.13c0,.21,2.89.21,2.89,0Z"/>
        <path class="cls-7" d="M30.11,66.87c.56-.32,1.48-.32,2.05,0,.56.32.56.85,0,1.18-.57.33-1.48.33-2.05,0-.56-.33-.56-.85,0-1.18Z"/>
      </g>
      <g>
        <path class="cls-1" d="M30.2,67.62c.51.3,1.36.3,1.87,0,.26-.15.39-.35.39-.54v.38c0,.2-.13.39-.39.54-.52.3-1.36.3-1.87,0-.26-.15-.39-.34-.39-.54v-.38c0,.19.13.39.39.54Z"/>
        <path class="cls-6" d="M30.2,66.53c.51-.3,1.36-.3,1.87,0,.52.3.52.78,0,1.08-.52.3-1.36.3-1.87,0-.52-.3-.52-.78,0-1.08Z"/>
      </g>
      <g>
        <path class="cls-3" d="M32.58,67.08v.13c0,.21-.14.43-.42.59-.57.32-1.48.32-2.04,0-.28-.16-.43-.38-.43-.59v-.13c0,.21,2.89.21,2.89,0Z"/>
        <path class="cls-7" d="M30.11,66.48c.56-.32,1.48-.32,2.05,0,.56.32.56.86,0,1.18-.57.33-1.48.33-2.05,0-.56-.32-.56-.85,0-1.18Z"/>
      </g>
      <g>
        <path class="cls-1" d="M30.2,67.24c.51.3,1.36.3,1.87,0,.26-.15.39-.34.39-.54v.38c0,.19-.13.39-.39.54-.52.3-1.36.3-1.87,0-.26-.15-.39-.35-.39-.54v-.38c0,.2.13.39.39.54Z"/>
        <path class="cls-6" d="M30.2,66.15c.51-.3,1.36-.3,1.87,0,.52.3.52.78,0,1.08-.52.3-1.36.3-1.87,0-.52-.3-.52-.78,0-1.08Z"/>
      </g>
      <g>
        <path class="cls-3" d="M32.58,66.69v.14c0,.21-.14.42-.42.59-.57.33-1.48.33-2.04,0-.28-.16-.43-.38-.43-.59v-.14c0,.21,2.89.21,2.89,0Z"/>
        <path class="cls-7" d="M30.11,66.1c.56-.32,1.48-.32,2.05,0,.56.32.56.85,0,1.18-.57.32-1.48.32-2.05,0-.56-.33-.56-.86,0-1.18Z"/>
      </g>
      <g>
        <path class="cls-1" d="M30.2,66.85c.51.3,1.36.3,1.87,0,.26-.15.39-.35.39-.54v.38c0,.2-.13.39-.39.54-.52.3-1.36.3-1.87,0-.26-.15-.39-.34-.39-.54v-.38c0,.19.13.39.39.54Z"/>
        <path class="cls-6" d="M30.2,65.77c.51-.3,1.36-.3,1.87,0,.52.3.52.78,0,1.08-.52.3-1.36.3-1.87,0-.52-.3-.52-.78,0-1.08Z"/>
      </g>
      <g>
        <path class="cls-3" d="M32.58,66.31v.13c0,.21-.14.43-.42.59-.57.32-1.48.32-2.04,0-.28-.16-.43-.38-.43-.59v-.13c0,.21,2.89.21,2.89,0Z"/>
        <path class="cls-7" d="M30.11,65.72c.56-.32,1.48-.32,2.05,0,.56.32.56.85,0,1.18-.57.33-1.48.33-2.05,0-.56-.32-.56-.85,0-1.18Z"/>
      </g>
      <g>
        <path class="cls-8" d="M30.62,65.25c.27.15.71.15.99,0,.13-.08.21-.18.21-.29v1.33c0,.1-.07.21-.21.28-.27.16-.72.16-.99,0-.14-.08-.21-.18-.21-.28v-1.33c0,.1.07.21.21.29Z"/>
        <path class="cls-6" d="M30.62,64.68c.27-.16.71-.16.99,0,.27.16.27.41,0,.57-.27.15-.72.15-.99,0-.27-.16-.27-.41,0-.57Z"/>
      </g>
      <g>
        <path class="cls-3" d="M31.28,63.93v1.02s-.02.05-.05.07c-.07.04-.17.04-.23,0-.03-.02-.05-.05-.05-.07v-1.02s.33.02.33,0Z"/>
        <path class="cls-7" d="M30.99,63.87c.06-.04.17-.04.23,0,.06.04.06.09,0,.13-.07.04-.17.04-.23,0-.06-.04-.06-.09,0-.13Z"/>
      </g>
    </g>
    <path class="cls-1" d="M31.11,64.09h0c-.08,0-.16-.08-.16-.17s.08-.16.16-.16c.1,0,9.91-.1,22.38-8.72.07-.05.17-.03.23.04.05.08.03.18-.04.23-12.56,8.68-22.46,8.78-22.57,8.78Z"/>
    <path class="cls-1" d="M.17,86.18c-.06,0-.12-.04-.15-.09-.04-.08,0-.18.07-.22.14-.07,13.54-6.94,20.86-16.27.06-.07.16-.08.23-.03.07.06.08.16.03.23C13.84,79.2.37,86.09.24,86.16c-.02.01-.04.02-.07.02Z"/>
  </g>
  <g>
    <g>
      <polygon class="cls-2" points="36.45 44.91 57.27 44.14 57.27 45.73 56.62 46.11 56.32 45.77 39.04 46.41 57.27 56.93 57.27 58.33 56.62 58.71 56.3 57.77 31.01 43.17 30.36 42.15 31.01 41.77 36.45 44.91"/>
      <polygon class="cls-8" points="35.8 45.28 56.62 44.52 56.62 46.11 38.39 46.78 56.62 57.31 56.62 58.71 30.36 43.55 30.36 42.15 35.8 45.28"/>
    </g>
    <polygon class="cls-2" points="32.19 42.45 31.53 42.83 30.44 44.23 23.64 48.19 20.96 48.89 19.78 48.21 31.01 41.77 32.19 42.45"/>
    <polygon class="cls-5" points="31.53 42.83 20.96 48.89 20.96 50.3 31.53 44.23 31.53 42.83"/>
    <g>
      <polygon class="cls-2" points="25.88 50.97 46.7 50.2 46.7 51.79 46.04 52.17 45.74 51.83 28.47 52.47 46.7 62.99 46.7 64.4 46.04 64.77 45.72 63.84 20.44 49.24 19.78 48.21 20.44 47.83 25.88 50.97"/>
      <polygon class="cls-8" points="25.22 51.35 46.04 50.58 46.04 52.17 27.81 52.85 46.04 63.37 46.04 64.77 19.78 49.62 19.78 48.21 25.22 51.35"/>
    </g>
    <g>
      <path class="cls-6" d="M20.16,47.48c.51-.3,1.35-.3,1.87,0,.52.3.52.78,0,1.08-.52.3-1.36.3-1.87,0-.52-.3-.52-.78,0-1.08Z"/>
      <g>
        <path class="cls-3" d="M22.54,48.02v.14c0,.21-.14.43-.42.59-.57.32-1.48.32-2.05,0-.28-.17-.42-.38-.42-.59v-.14c0,.21,2.89.21,2.89,0Z"/>
        <path class="cls-7" d="M20.07,47.44c.56-.33,1.48-.33,2.05,0,.56.32.56.85,0,1.18-.57.32-1.48.32-2.05,0-.56-.32-.56-.85,0-1.18Z"/>
      </g>
      <g>
        <path class="cls-1" d="M20.16,48.18c.51.3,1.35.3,1.87,0,.26-.15.39-.34.39-.54v.38c0,.2-.13.39-.39.54-.52.3-1.36.3-1.87,0-.26-.15-.39-.34-.39-.54v-.38c0,.2.13.39.39.54Z"/>
        <path class="cls-6" d="M20.16,47.1c.51-.3,1.35-.3,1.87,0,.52.3.52.78,0,1.08-.52.3-1.36.3-1.87,0-.52-.3-.52-.78,0-1.08Z"/>
      </g>
      <g>
        <path class="cls-3" d="M22.54,47.64v.13c0,.21-.14.43-.42.59-.57.32-1.48.32-2.05,0-.28-.17-.42-.38-.42-.59v-.13c0,.21,2.89.21,2.89,0Z"/>
        <path class="cls-7" d="M20.07,47.05c.56-.32,1.48-.32,2.05,0,.56.32.56.85,0,1.18-.57.32-1.48.32-2.05,0-.56-.32-.56-.86,0-1.18Z"/>
      </g>
      <g>
        <path class="cls-1" d="M20.16,47.8c.51.3,1.35.3,1.87,0,.26-.15.39-.35.39-.54v.38c0,.2-.13.39-.39.54-.52.3-1.36.3-1.87,0-.26-.15-.39-.34-.39-.54v-.38c0,.19.13.39.39.54Z"/>
        <path class="cls-6" d="M20.16,46.73c.51-.3,1.35-.3,1.87,0,.52.3.52.78,0,1.08-.52.3-1.36.3-1.87,0-.52-.3-.52-.78,0-1.08Z"/>
      </g>
      <g>
        <path class="cls-3" d="M22.54,47.26v.13c0,.21-.14.43-.42.59-.57.32-1.48.32-2.05,0-.28-.16-.42-.38-.42-.59v-.13c0,.21,2.89.21,2.89,0Z"/>
        <path class="cls-7" d="M20.07,46.67c.56-.32,1.48-.32,2.05,0,.56.32.56.86,0,1.18-.57.32-1.48.33-2.05,0-.56-.32-.56-.86,0-1.18Z"/>
      </g>
      <g>
        <path class="cls-1" d="M20.16,47.38c.51.3,1.35.3,1.87,0,.26-.15.39-.34.39-.54v.38c0,.2-.13.39-.39.54-.52.3-1.36.3-1.87,0-.26-.15-.38-.34-.38-.54v-.38c0,.19.12.39.38.54Z"/>
        <path class="cls-6" d="M20.16,46.3c.51-.3,1.35-.3,1.87,0,.52.3.52.78,0,1.08-.52.3-1.36.3-1.87,0-.52-.3-.52-.78,0-1.08Z"/>
      </g>
      <g>
        <path class="cls-3" d="M22.54,46.84v.13c0,.22-.14.43-.42.59-.57.32-1.48.32-2.04,0-.28-.16-.43-.38-.43-.59v-.13c0,.22,2.89.22,2.89,0Z"/>
        <path class="cls-7" d="M20.07,46.26c.56-.32,1.48-.32,2.05,0,.56.32.56.85,0,1.18-.57.32-1.48.32-2.05,0-.56-.33-.56-.85,0-1.18Z"/>
      </g>
      <g>
        <path class="cls-1" d="M20.16,47c.51.3,1.35.3,1.87,0,.26-.15.39-.34.39-.54v.38c0,.19-.13.39-.39.54-.52.3-1.36.3-1.87,0-.26-.15-.38-.34-.38-.54v-.38c0,.2.12.4.38.54Z"/>
        <path class="cls-6" d="M20.16,45.92c.51-.3,1.35-.3,1.87,0,.52.3.52.78,0,1.08-.52.3-1.36.3-1.87,0-.52-.3-.52-.78,0-1.08Z"/>
      </g>
      <g>
        <path class="cls-3" d="M22.54,46.46v.14c0,.21-.14.42-.42.59-.57.32-1.48.32-2.04,0-.28-.17-.43-.38-.43-.59v-.14c0,.22,2.89.22,2.89,0Z"/>
        <path class="cls-7" d="M20.07,45.87c.56-.32,1.48-.32,2.05,0,.56.33.56.85,0,1.18-.57.32-1.48.32-2.05,0-.56-.33-.56-.85,0-1.18Z"/>
      </g>
      <g>
        <path class="cls-1" d="M20.16,46.62c.51.3,1.35.3,1.87,0,.26-.14.39-.34.39-.53v.38c0,.2-.13.4-.39.54-.52.3-1.36.3-1.87,0-.26-.15-.38-.34-.38-.54v-.38c0,.19.12.39.38.53Z"/>
        <path class="cls-6" d="M20.16,45.54c.51-.3,1.35-.3,1.87,0,.52.29.52.78,0,1.07-.52.3-1.36.3-1.87,0-.52-.29-.52-.78,0-1.07Z"/>
      </g>
      <g>
        <path class="cls-3" d="M22.54,46.08v.13c0,.21-.14.43-.42.59-.57.33-1.48.33-2.04,0-.28-.16-.43-.38-.43-.59v-.13c0,.21,2.89.21,2.89,0Z"/>
        <path class="cls-7" d="M20.07,45.49c.56-.32,1.48-.32,2.05,0,.56.33.56.86,0,1.18-.57.32-1.48.32-2.05,0-.56-.32-.56-.85,0-1.18Z"/>
      </g>
      <g>
        <path class="cls-1" d="M20.16,46.24c.51.3,1.35.3,1.87,0,.26-.14.39-.34.39-.54v.38c0,.19-.13.39-.39.53-.52.3-1.36.3-1.87,0-.26-.14-.38-.34-.38-.53v-.38c0,.2.12.39.38.54Z"/>
        <path class="cls-6" d="M20.16,45.16c.51-.3,1.35-.3,1.87,0,.52.3.52.78,0,1.08-.52.3-1.36.3-1.87,0-.52-.3-.52-.78,0-1.08Z"/>
      </g>
      <g>
        <path class="cls-3" d="M22.54,45.7v.13c0,.22-.14.43-.42.59-.57.32-1.48.32-2.04,0-.28-.16-.43-.38-.43-.59v-.13c0,.21,2.89.21,2.89,0Z"/>
        <path class="cls-7" d="M20.07,45.11c.56-.33,1.48-.33,2.05,0,.56.32.56.85,0,1.18-.57.33-1.48.33-2.05,0-.56-.33-.56-.86,0-1.18Z"/>
      </g>
      <g>
        <path class="cls-8" d="M20.58,44.63c.27.16.71.16.99,0,.13-.08.21-.18.21-.29v1.33c0,.1-.07.21-.21.28-.27.16-.71.16-.99,0-.14-.08-.2-.18-.2-.28v-1.33c0,.11.07.21.2.29Z"/>
        <path class="cls-6" d="M20.58,44.06c.27-.16.71-.16.99,0,.27.16.27.41,0,.57-.27.16-.71.16-.99,0-.28-.16-.28-.41,0-.57Z"/>
      </g>
      <g>
        <path class="cls-3" d="M21.24,43.32v1.02s-.02.05-.05.07c-.06.04-.17.04-.23,0-.03-.02-.04-.05-.04-.07v-1.02s.33.02.33,0Z"/>
        <path class="cls-7" d="M20.95,43.25c.06-.04.17-.04.23,0,.07.04.07.1,0,.14-.06.04-.17.04-.23,0-.06-.04-.06-.1,0-.14Z"/>
      </g>
    </g>
    <g>
      <path class="cls-6" d="M30.2,41.69c.51-.29,1.36-.29,1.87,0,.52.3.52.78,0,1.08-.52.3-1.36.3-1.87,0-.52-.3-.52-.78,0-1.08Z"/>
      <g>
        <path class="cls-3" d="M32.58,42.23v.13c0,.22-.14.43-.43.59-.56.32-1.48.32-2.04,0-.28-.17-.43-.38-.42-.59v-.13c0,.21,2.89.21,2.89,0Z"/>
        <path class="cls-7" d="M30.11,41.64c.56-.33,1.48-.33,2.04,0,.57.33.57.85,0,1.18-.56.33-1.48.33-2.04,0-.56-.32-.56-.85,0-1.18Z"/>
      </g>
      <g>
        <path class="cls-1" d="M30.2,42.39c.51.3,1.36.3,1.87,0,.26-.15.39-.35.39-.54v.38c0,.2-.13.39-.39.54-.52.3-1.36.3-1.87,0-.26-.15-.39-.34-.39-.54v-.38c0,.2.13.4.39.54Z"/>
        <path class="cls-6" d="M30.2,41.31c.51-.3,1.36-.3,1.87,0,.52.3.52.78,0,1.08-.52.3-1.36.3-1.87,0-.52-.3-.52-.79,0-1.08Z"/>
      </g>
      <g>
        <path class="cls-3" d="M32.58,41.84v.14c0,.21-.14.43-.43.59-.56.32-1.48.32-2.04,0-.28-.17-.43-.38-.42-.59v-.14c0,.21,2.89.21,2.89,0Z"/>
        <path class="cls-7" d="M30.11,41.25c.56-.32,1.48-.32,2.04,0,.57.33.57.86,0,1.18-.56.33-1.48.33-2.04,0-.56-.32-.56-.85,0-1.18Z"/>
      </g>
      <g>
        <path class="cls-1" d="M30.2,42.01c.51.3,1.36.3,1.87,0,.26-.15.39-.35.39-.54v.38c0,.2-.13.4-.39.54-.52.3-1.36.3-1.87,0-.26-.15-.39-.35-.39-.54v-.38c0,.19.13.39.39.54Z"/>
        <path class="cls-6" d="M30.2,40.92c.51-.3,1.36-.3,1.87,0,.52.3.52.78,0,1.08-.52.3-1.36.3-1.87,0-.52-.3-.52-.78,0-1.08Z"/>
      </g>
      <g>
        <path class="cls-3" d="M32.58,41.46v.14c0,.21-.14.42-.43.59-.56.32-1.48.32-2.04,0-.28-.17-.43-.38-.42-.59v-.14c0,.21,2.89.21,2.89,0Z"/>
        <path class="cls-7" d="M30.11,40.88c.56-.33,1.48-.33,2.04,0,.57.32.57.85,0,1.18-.56.33-1.48.33-2.04,0-.56-.33-.56-.85,0-1.18Z"/>
      </g>
      <g>
        <path class="cls-1" d="M30.2,41.59c.51.3,1.36.3,1.87,0,.26-.15.39-.35.39-.54v.38c0,.2-.13.39-.39.54-.52.3-1.36.3-1.87,0-.26-.15-.39-.34-.39-.54v-.38c0,.19.13.39.39.54Z"/>
        <path class="cls-6" d="M30.2,40.51c.51-.3,1.36-.3,1.87,0,.52.3.52.78,0,1.08-.52.3-1.36.3-1.87,0-.52-.3-.52-.78,0-1.08Z"/>
      </g>
      <g>
        <path class="cls-3" d="M32.58,41.05v.13c0,.21-.14.42-.42.59-.57.32-1.48.32-2.04,0-.28-.17-.43-.37-.43-.59v-.13c0,.21,2.89.21,2.89,0Z"/>
        <path class="cls-7" d="M30.11,40.46c.56-.32,1.48-.32,2.05,0,.56.32.56.85,0,1.18-.57.32-1.48.32-2.05,0-.56-.32-.56-.85,0-1.18Z"/>
      </g>
      <g>
        <path class="cls-1" d="M30.2,41.2c.51.3,1.36.3,1.87,0,.26-.15.39-.34.39-.54v.38c0,.19-.13.39-.39.54-.52.3-1.36.3-1.87,0-.26-.15-.39-.34-.39-.54v-.38c0,.2.13.39.39.54Z"/>
        <path class="cls-6" d="M30.2,40.13c.51-.3,1.36-.3,1.87,0,.52.3.52.78,0,1.08-.52.3-1.36.3-1.87,0-.52-.3-.52-.78,0-1.08Z"/>
      </g>
      <g>
        <path class="cls-3" d="M32.58,40.66v.14c0,.21-.14.42-.42.59-.57.32-1.48.32-2.04,0-.28-.17-.43-.38-.43-.59v-.14c0,.21,2.89.21,2.89,0Z"/>
        <path class="cls-7" d="M30.11,40.08c.56-.33,1.48-.33,2.05,0,.56.32.56.85,0,1.18-.57.32-1.48.32-2.05,0-.56-.32-.56-.85,0-1.18Z"/>
      </g>
      <g>
        <path class="cls-1" d="M30.2,40.82c.51.3,1.36.3,1.87,0,.26-.15.39-.35.39-.54v.38c0,.2-.13.39-.39.54-.52.3-1.36.3-1.87,0-.26-.15-.39-.34-.39-.54v-.38c0,.19.13.39.39.54Z"/>
        <path class="cls-6" d="M30.2,39.74c.51-.3,1.36-.3,1.87,0,.52.3.52.78,0,1.08-.52.3-1.36.3-1.87,0-.52-.3-.52-.78,0-1.08Z"/>
      </g>
      <g>
        <path class="cls-3" d="M32.58,40.28v.14c0,.21-.14.42-.42.59-.57.32-1.48.32-2.04,0-.28-.17-.43-.38-.43-.59v-.14c0,.22,2.89.22,2.89,0Z"/>
        <path class="cls-7" d="M30.11,39.69c.56-.32,1.48-.32,2.05,0,.56.33.56.86,0,1.18-.57.32-1.48.32-2.05,0-.56-.32-.56-.85,0-1.18Z"/>
      </g>
      <g>
        <path class="cls-1" d="M30.2,40.44c.51.3,1.36.3,1.87,0,.26-.15.39-.34.39-.53v.38c0,.19-.13.39-.39.54-.52.3-1.36.3-1.87,0-.26-.15-.39-.35-.39-.54v-.38c0,.19.13.39.39.53Z"/>
        <path class="cls-6" d="M30.2,39.36c.51-.3,1.36-.3,1.87,0,.52.3.52.78,0,1.08-.52.3-1.36.3-1.87,0-.52-.3-.52-.78,0-1.08Z"/>
      </g>
      <g>
        <path class="cls-3" d="M32.58,39.9v.13c0,.21-.14.43-.42.59-.57.32-1.48.32-2.04,0-.28-.16-.43-.38-.43-.59v-.13c0,.21,2.89.21,2.89,0Z"/>
        <path class="cls-7" d="M30.11,39.31c.56-.32,1.48-.32,2.05,0,.56.32.56.85,0,1.18-.57.32-1.48.32-2.05,0-.56-.33-.56-.85,0-1.18Z"/>
      </g>
      <g>
        <path class="cls-8" d="M30.62,38.84c.27.15.71.15.99,0,.13-.08.21-.18.21-.29v1.33c0,.11-.07.21-.21.28-.27.16-.72.16-.99,0-.14-.07-.21-.18-.21-.28v-1.33c0,.11.07.21.21.29Z"/>
        <path class="cls-6" d="M30.62,38.27c.27-.16.71-.16.99,0,.27.16.27.41,0,.57-.27.15-.72.15-.99,0-.27-.16-.27-.41,0-.57Z"/>
      </g>
      <g>
        <path class="cls-3" d="M31.28,37.52v1.02s-.02.05-.05.06c-.07.04-.17.04-.23,0-.03-.02-.05-.04-.05-.06v-1.02s.33.02.33,0Z"/>
        <path class="cls-7" d="M30.99,37.46c.06-.04.17-.04.23,0,.06.04.06.09,0,.13-.07.04-.17.04-.23,0-.06-.04-.06-.1,0-.13Z"/>
      </g>
    </g>
    <path class="cls-1" d="M31.11,37.68h0c-.08,0-.16-.07-.16-.16s.08-.17.16-.17c.1,0,9.91-.1,22.38-8.72.07-.05.17-.03.23.05.05.07.03.17-.04.23-12.56,8.68-22.46,8.78-22.57,8.78Z"/>
    <path class="cls-1" d="M.17,59.78c-.06,0-.12-.04-.15-.09-.04-.08,0-.18.07-.22.14-.07,13.54-6.93,20.86-16.27.06-.07.16-.08.23-.03.07.05.08.16.03.23C13.84,52.79.37,59.69.24,59.76c-.02,0-.04.02-.07.02Z"/>
  </g>
  <g>
    <g>
      <polygon class="cls-2" points="36.45 18.49 57.27 17.71 57.27 19.31 56.62 19.68 56.32 19.34 39.04 19.98 57.27 30.51 57.27 31.91 56.62 32.29 56.3 31.35 31.01 16.75 30.36 15.72 31.01 15.34 36.45 18.49"/>
      <polygon class="cls-8" points="35.8 18.86 56.62 18.09 56.62 19.68 38.39 20.36 56.62 30.88 56.62 32.29 30.36 17.12 30.36 15.72 35.8 18.86"/>
    </g>
    <polygon class="cls-2" points="32.19 16.03 31.53 16.4 30.44 17.81 23.64 21.76 20.96 22.47 19.78 21.79 31.01 15.34 32.19 16.03"/>
    <polygon class="cls-5" points="31.53 16.4 20.96 22.47 20.96 23.87 31.53 17.81 31.53 16.4"/>
    <g>
      <polygon class="cls-2" points="25.88 24.55 46.7 23.78 46.7 25.37 46.04 25.75 45.74 25.4 28.47 26.05 46.7 36.57 46.7 37.98 46.04 38.35 45.72 37.41 20.44 22.81 19.78 21.79 20.44 21.41 25.88 24.55"/>
      <polygon class="cls-8" points="25.22 24.93 46.04 24.16 46.04 25.75 27.81 26.42 46.04 36.95 46.04 38.35 19.78 23.19 19.78 21.79 25.22 24.93"/>
    </g>
    <g>
      <path class="cls-6" d="M20.16,21.06c.51-.3,1.35-.3,1.87,0,.52.3.52.78,0,1.08-.52.3-1.36.3-1.87,0-.52-.3-.52-.78,0-1.08Z"/>
      <g>
        <path class="cls-3" d="M22.54,21.6v.13c0,.22-.14.43-.42.59-.57.32-1.48.32-2.05,0-.28-.16-.42-.37-.42-.59v-.13c0,.22,2.89.22,2.89,0Z"/>
        <path class="cls-7" d="M20.07,21.01c.56-.33,1.48-.33,2.05,0,.56.32.56.85,0,1.18-.57.32-1.48.32-2.05,0-.56-.32-.56-.85,0-1.18Z"/>
      </g>
      <g>
        <path class="cls-1" d="M20.16,21.76c.51.3,1.35.3,1.87,0,.26-.15.39-.35.39-.54v.38c0,.19-.13.39-.39.54-.52.3-1.36.3-1.87,0-.26-.15-.39-.35-.39-.54v-.38c0,.19.13.39.39.54Z"/>
        <path class="cls-6" d="M20.16,20.68c.51-.3,1.35-.3,1.87,0,.52.29.52.78,0,1.08-.52.3-1.36.3-1.87,0-.52-.3-.52-.79,0-1.08Z"/>
      </g>
      <g>
        <path class="cls-3" d="M22.54,21.22v.14c0,.22-.14.43-.42.59-.57.33-1.48.33-2.05,0-.28-.16-.42-.38-.42-.59v-.14c0,.22,2.89.22,2.89,0Z"/>
        <path class="cls-7" d="M20.07,20.63c.56-.32,1.48-.32,2.05,0,.56.32.56.85,0,1.18-.57.32-1.48.32-2.05,0-.56-.32-.56-.85,0-1.18Z"/>
      </g>
      <g>
        <path class="cls-1" d="M20.16,21.37c.51.3,1.35.3,1.87,0,.26-.14.39-.34.39-.53v.38c0,.19-.13.39-.39.54-.52.3-1.36.3-1.87,0-.26-.15-.39-.35-.39-.54v-.38c0,.19.13.39.39.53Z"/>
        <path class="cls-6" d="M20.16,20.3c.51-.3,1.35-.3,1.87,0,.52.29.52.78,0,1.07-.52.3-1.36.3-1.87,0-.52-.3-.52-.78,0-1.07Z"/>
      </g>
      <g>
        <path class="cls-3" d="M22.54,20.84v.13c0,.22-.14.43-.42.59-.57.32-1.48.32-2.05,0-.28-.17-.42-.38-.42-.59v-.13c0,.22,2.89.22,2.89,0Z"/>
        <path class="cls-7" d="M20.07,20.25c.56-.33,1.48-.33,2.05,0,.56.32.56.85,0,1.18-.57.32-1.48.32-2.05,0-.56-.32-.56-.86,0-1.18Z"/>
      </g>
      <g>
        <path class="cls-1" d="M20.16,20.96c.51.3,1.35.3,1.87,0,.26-.15.39-.35.39-.54v.38c0,.2-.13.39-.39.54-.52.3-1.36.3-1.87,0-.26-.15-.38-.34-.38-.54v-.38c0,.19.12.39.38.54Z"/>
        <path class="cls-6" d="M20.16,19.88c.51-.3,1.35-.3,1.87,0,.52.3.52.78,0,1.08-.52.3-1.36.3-1.87,0-.52-.3-.52-.78,0-1.08Z"/>
      </g>
      <g>
        <path class="cls-3" d="M22.54,20.42v.13c0,.21-.14.43-.42.59-.57.33-1.48.33-2.04,0-.28-.16-.43-.38-.43-.59v-.13c0,.21,2.89.21,2.89,0Z"/>
        <path class="cls-7" d="M20.07,19.83c.56-.32,1.48-.32,2.05,0,.56.32.56.85,0,1.18-.57.32-1.48.33-2.05,0-.56-.32-.56-.85,0-1.18Z"/>
      </g>
      <g>
        <path class="cls-1" d="M20.16,20.58c.51.3,1.35.3,1.87,0,.26-.15.39-.35.39-.54v.38c0,.19-.13.39-.39.54-.52.3-1.36.3-1.87,0-.26-.15-.38-.35-.38-.54v-.38c0,.19.12.39.38.54Z"/>
        <path class="cls-6" d="M20.16,19.5c.51-.3,1.35-.3,1.87,0,.52.3.52.78,0,1.08-.52.3-1.36.3-1.87,0-.52-.3-.52-.78,0-1.08Z"/>
      </g>
      <g>
        <path class="cls-3" d="M22.54,20.04v.13c0,.21-.14.42-.42.59-.57.33-1.48.33-2.04,0-.28-.17-.43-.38-.43-.59v-.13c0,.21,2.89.21,2.89,0Z"/>
        <path class="cls-7" d="M20.07,19.45c.56-.33,1.48-.33,2.05,0,.56.32.56.85,0,1.18-.57.32-1.48.32-2.05,0-.56-.33-.56-.85,0-1.18Z"/>
      </g>
      <g>
        <path class="cls-1" d="M20.16,20.19c.51.3,1.35.3,1.87,0,.26-.15.39-.34.39-.54v.38c0,.19-.13.39-.39.54-.52.3-1.36.3-1.87,0-.26-.15-.38-.35-.38-.54v-.38c0,.2.12.39.38.54Z"/>
        <path class="cls-6" d="M20.16,19.12c.51-.3,1.35-.3,1.87,0,.52.3.52.78,0,1.08-.52.3-1.36.3-1.87,0-.52-.3-.52-.78,0-1.08Z"/>
      </g>
      <g>
        <path class="cls-3" d="M22.54,19.65v.14c0,.21-.14.43-.42.59-.57.32-1.48.32-2.04,0-.28-.16-.43-.38-.43-.59v-.14c0,.21,2.89.21,2.89,0Z"/>
        <path class="cls-7" d="M20.07,19.07c.56-.32,1.48-.32,2.05,0,.56.32.56.85,0,1.18-.57.32-1.48.32-2.05,0-.56-.32-.56-.85,0-1.18Z"/>
      </g>
      <g>
        <path class="cls-1" d="M20.16,19.82c.51.3,1.35.3,1.87,0,.26-.15.39-.35.39-.54v.38c0,.2-.13.39-.39.54-.52.3-1.36.3-1.87,0-.26-.15-.38-.34-.38-.54v-.38c0,.19.12.39.38.54Z"/>
        <path class="cls-6" d="M20.16,18.74c.51-.3,1.35-.3,1.87,0,.52.3.52.78,0,1.08-.52.3-1.36.3-1.87,0-.52-.3-.52-.78,0-1.08Z"/>
      </g>
      <g>
        <path class="cls-3" d="M22.54,19.28v.13c0,.21-.14.43-.42.59-.57.33-1.48.33-2.04,0-.28-.16-.43-.38-.43-.59v-.13c0,.21,2.89.21,2.89,0Z"/>
        <path class="cls-7" d="M20.07,18.68c.56-.32,1.48-.32,2.05,0,.56.32.56.85,0,1.18-.57.32-1.48.32-2.05,0-.56-.32-.56-.85,0-1.18Z"/>
      </g>
      <g>
        <path class="cls-8" d="M20.58,18.21c.27.16.71.16.99,0,.13-.08.21-.18.21-.29v1.33c0,.11-.07.21-.21.29-.27.16-.71.16-.99,0-.14-.08-.2-.18-.2-.29v-1.33c0,.1.07.21.2.29Z"/>
        <path class="cls-6" d="M20.58,17.64c.27-.16.71-.16.99,0,.27.16.27.41,0,.57-.27.16-.71.16-.99,0-.28-.15-.28-.41,0-.57Z"/>
      </g>
      <g>
        <path class="cls-3" d="M21.24,16.9v1.02s-.02.05-.05.07c-.06.04-.17.04-.23,0-.03-.02-.04-.05-.04-.07v-1.02s.33.02.33,0Z"/>
        <path class="cls-7" d="M20.95,16.83c.06-.04.17-.04.23,0,.07.04.07.1,0,.13-.06.04-.17.04-.23,0-.06-.03-.06-.09,0-.13Z"/>
      </g>
    </g>
    <g>
      <path class="cls-6" d="M30.2,15.26c.51-.3,1.36-.3,1.87,0,.52.3.52.79,0,1.08-.52.3-1.36.3-1.87,0-.52-.3-.52-.78,0-1.08Z"/>
      <g>
        <path class="cls-3" d="M32.58,15.81v.13c0,.21-.14.43-.43.59-.56.33-1.48.33-2.04,0-.28-.16-.43-.37-.42-.59v-.14c0,.22,2.89.22,2.89,0Z"/>
        <path class="cls-7" d="M30.11,15.22c.56-.33,1.48-.33,2.04,0,.57.32.57.85,0,1.18-.56.32-1.48.32-2.04,0-.56-.32-.56-.85,0-1.18Z"/>
      </g>
      <g>
        <path class="cls-1" d="M30.2,15.96c.51.3,1.36.3,1.87,0,.26-.15.39-.35.39-.54v.38c0,.19-.13.39-.39.54-.52.3-1.36.3-1.87,0-.26-.15-.39-.35-.39-.54v-.38c0,.19.13.39.39.54Z"/>
        <path class="cls-6" d="M30.2,14.88c.51-.3,1.36-.3,1.87,0,.52.3.52.78,0,1.08-.52.3-1.36.3-1.87,0-.52-.3-.52-.78,0-1.08Z"/>
      </g>
      <g>
        <path class="cls-3" d="M32.58,15.42v.14c0,.21-.14.43-.43.59-.56.32-1.48.32-2.04,0-.28-.16-.43-.38-.42-.59v-.14c0,.21,2.89.21,2.89,0Z"/>
        <path class="cls-7" d="M30.11,14.83c.56-.32,1.48-.32,2.04,0,.57.32.57.85,0,1.18-.56.32-1.48.32-2.04,0-.56-.32-.56-.85,0-1.18Z"/>
      </g>
      <g>
        <path class="cls-1" d="M30.2,15.58c.51.3,1.36.3,1.87,0,.26-.15.39-.35.39-.54v.38c0,.19-.13.39-.39.54-.52.3-1.36.3-1.87,0-.26-.15-.39-.35-.39-.54v-.38c0,.19.13.39.39.54Z"/>
        <path class="cls-6" d="M30.2,14.5c.51-.3,1.36-.3,1.87,0,.52.3.52.78,0,1.08-.52.3-1.36.3-1.87,0-.52-.3-.52-.78,0-1.08Z"/>
      </g>
      <g>
        <path class="cls-3" d="M32.58,15.04v.13c0,.21-.14.43-.43.59-.56.32-1.48.32-2.04,0-.28-.16-.43-.38-.42-.59v-.13c0,.21,2.89.21,2.89,0Z"/>
        <path class="cls-7" d="M30.11,14.45c.56-.33,1.48-.33,2.04,0,.57.32.57.85,0,1.17-.56.32-1.48.32-2.04,0-.56-.32-.56-.85,0-1.17Z"/>
      </g>
      <g>
        <path class="cls-1" d="M30.2,15.17c.51.3,1.36.3,1.87,0,.26-.15.39-.35.39-.54v.38c0,.2-.13.39-.39.54-.52.3-1.36.3-1.87,0-.26-.15-.39-.35-.39-.54v-.38c0,.19.13.39.39.54Z"/>
        <path class="cls-6" d="M30.2,14.08c.51-.3,1.36-.3,1.87,0,.52.3.52.78,0,1.08-.52.3-1.36.3-1.87,0-.52-.3-.52-.78,0-1.08Z"/>
      </g>
      <g>
        <path class="cls-3" d="M32.58,14.63v.13c0,.21-.14.43-.42.59-.57.33-1.48.33-2.04,0-.28-.16-.43-.38-.43-.59v-.13c0,.21,2.89.21,2.89,0Z"/>
        <path class="cls-7" d="M30.11,14.03c.56-.32,1.48-.32,2.05,0,.56.33.56.85,0,1.18-.57.32-1.48.32-2.05,0-.56-.33-.56-.85,0-1.18Z"/>
      </g>
      <g>
        <path class="cls-1" d="M30.2,14.79c.51.3,1.36.3,1.87,0,.26-.15.39-.35.39-.54v.38c0,.19-.13.39-.39.54-.52.3-1.36.3-1.87,0-.26-.15-.39-.35-.39-.54v-.38c0,.19.13.39.39.54Z"/>
        <path class="cls-6" d="M30.2,13.7c.51-.3,1.36-.3,1.87,0,.52.3.52.78,0,1.08-.52.3-1.36.3-1.87,0-.52-.3-.52-.78,0-1.08Z"/>
      </g>
      <g>
        <path class="cls-3" d="M32.58,14.24v.14c0,.21-.14.42-.42.58-.57.33-1.48.33-2.04,0-.28-.16-.43-.37-.43-.58v-.14c0,.21,2.89.21,2.89,0Z"/>
        <path class="cls-7" d="M30.11,13.65c.56-.32,1.48-.32,2.05,0,.56.33.56.85,0,1.18-.57.33-1.48.33-2.05,0-.56-.32-.56-.85,0-1.18Z"/>
      </g>
      <g>
        <path class="cls-1" d="M30.2,14.4c.51.3,1.36.3,1.87,0,.26-.15.39-.34.39-.54v.38c0,.19-.13.39-.39.54-.52.3-1.36.3-1.87,0-.26-.15-.39-.35-.39-.54v-.38c0,.2.13.39.39.54Z"/>
        <path class="cls-6" d="M30.2,13.32c.51-.3,1.36-.3,1.87,0,.52.3.52.78,0,1.08-.52.3-1.36.3-1.87,0-.52-.3-.52-.78,0-1.08Z"/>
      </g>
      <g>
        <path class="cls-3" d="M32.58,13.86v.14c0,.21-.14.43-.42.59-.57.33-1.48.33-2.04,0-.28-.16-.43-.38-.43-.59v-.14c0,.21,2.89.22,2.89,0Z"/>
        <path class="cls-7" d="M30.11,13.27c.56-.32,1.48-.32,2.05,0,.56.32.56.85,0,1.18-.57.32-1.48.32-2.05,0-.56-.33-.56-.86,0-1.18Z"/>
      </g>
      <g>
        <path class="cls-1" d="M30.2,14.02c.51.3,1.36.3,1.87,0,.26-.15.39-.35.39-.54v.38c0,.2-.13.39-.39.54-.52.3-1.36.3-1.87,0-.26-.15-.39-.34-.39-.54v-.38c0,.19.13.39.39.54Z"/>
        <path class="cls-6" d="M30.2,12.94c.51-.3,1.36-.3,1.87,0,.52.3.52.78,0,1.08-.52.3-1.36.3-1.87,0-.52-.3-.52-.78,0-1.08Z"/>
      </g>
      <g>
        <path class="cls-3" d="M32.58,13.48v.13c0,.21-.14.43-.42.59-.57.32-1.48.32-2.04,0-.28-.16-.43-.38-.43-.59v-.13c0,.21,2.89.21,2.89,0Z"/>
        <path class="cls-7" d="M30.11,12.89c.56-.32,1.48-.32,2.05,0,.56.32.56.85,0,1.18-.57.32-1.48.32-2.05,0-.56-.33-.56-.86,0-1.18Z"/>
      </g>
      <g>
        <path class="cls-8" d="M30.62,12.42c.27.16.71.16.99,0,.13-.08.21-.18.21-.28v1.32c0,.11-.07.21-.21.28-.27.16-.72.16-.99,0-.14-.08-.21-.18-.21-.28v-1.32c0,.1.07.2.21.28Z"/>
        <path class="cls-6" d="M30.62,11.84c.27-.16.71-.16.99,0,.27.16.27.41,0,.57-.27.16-.72.16-.99,0-.27-.16-.27-.41,0-.57Z"/>
      </g>
      <g>
        <path class="cls-3" d="M31.28,11.1v1.02s-.02.05-.05.06c-.07.04-.17.04-.23,0-.03-.02-.05-.04-.05-.06v-1.02s.33.02.33,0Z"/>
        <path class="cls-7" d="M30.99,11.03c.06-.04.17-.04.23,0,.06.04.06.1,0,.13-.07.04-.17.04-.23,0-.06-.04-.06-.1,0-.13Z"/>
      </g>
    </g>
    <path class="cls-1" d="M31.11,11.25h0c-.08,0-.16-.07-.16-.16,0-.1.08-.17.16-.17.1,0,9.91-.11,22.38-8.72.07-.05.17-.03.23.04.05.07.03.17-.04.22-12.56,8.68-22.46,8.78-22.57,8.78Z"/>
    <path class="cls-1" d="M.17,33.35c-.06,0-.12-.03-.15-.09-.04-.08,0-.18.07-.22.14-.07,13.54-6.93,20.86-16.27.06-.07.16-.09.23-.03.07.06.08.16.03.23C13.84,26.36.37,33.26.24,33.33c-.02,0-.04.02-.07.02Z"/>
  </g>
  <g>
    <polygon class="cls-4" points="57.28 174 35.96 161.69 57.28 149.39 78.59 161.69 57.28 174"/>
    <polygon class="cls-7" points="56.75 85.36 44.47 104.79 43.97 105.69 45.2 105.56 57.28 86.08 57.28 85.5 56.75 85.36"/>
    <polygon class="cls-7" points="56.75 99.06 42.07 121.63 41.57 122.53 42.79 122.4 57.28 99.79 57.28 99.2 56.75 99.06"/>
    <polygon class="cls-7" points="56.6 114.69 39.52 139.42 39.02 140.31 40.25 140.18 57.12 115.42 57.12 114.83 56.6 114.69"/>
    <polygon class="cls-7" points="57.8 85.36 70.08 104.79 70.58 105.69 69.35 105.56 57.28 86.08 57.28 85.5 57.8 85.36"/>
    <polygon class="cls-7" points="57.8 99.06 72.49 121.63 72.98 122.53 71.76 122.4 57.28 99.79 57.28 99.2 57.8 99.06"/>
    <polygon class="cls-7" points="57.96 114.69 75.03 139.42 75.53 140.31 74.3 140.18 57.43 115.42 57.43 114.83 57.96 114.69"/>
    <polygon class="cls-7" points="57.3 114.86 72.37 123.57 72.37 122.17 57.28 113.45 57.3 114.86"/>
    <polygon class="cls-7" points="57.3 131.14 75.07 141.44 75.07 140.04 57.28 129.74 57.3 131.14"/>
    <polygon class="cls-7" points="69.6 105.1 57.28 97.99 57.3 99.39 69.94 106.69 69.6 105.1"/>
    <polygon class="cls-7" points="57.3 114.86 42.23 123.57 42.23 122.17 57.32 113.45 57.3 114.86"/>
    <polygon class="cls-7" points="57.3 131.14 39.53 141.44 39.53 140.04 57.32 129.74 57.3 131.14"/>
    <polygon class="cls-7" points="45.01 105.1 57.32 97.99 57.3 99.39 44.66 106.69 45.01 105.1"/>
    <polygon class="cls-7" points="67.85 90 57.28 83.87 46.87 89.88 47.7 91.18 57.28 85.66 66.85 91.18 67.85 90"/>
    <polygon class="cls-2" points="68.51 90 57.28 83.51 46.04 90 47.7 90 57.28 84.47 66.85 90 68.51 90"/>
    <g>
      <polygon class="cls-7" points="58.11 161.74 56.45 161.74 56.45 85.06 57.28 83.81 58.11 85.06 58.11 161.74"/>
      <rect class="cls-7" x="56.45" y="18.24" width="1.66" height="66.83"/>
    </g>
    <g>
      <polygon class="cls-7" points="63.58 79.27 67.96 76.71 68.51 77.03 68.51 77.73 64.15 80.28 68.51 87.98 68.51 89.04 67.43 88.42 63.15 80.86 58.77 83.42 58.11 83.03 58.11 82.47 62.58 79.86 58.11 71.96 58.11 71.03 59.29 71.71 63.58 79.27"/>
      <polygon class="cls-7" points="63.58 66.08 67.96 63.52 68.51 63.83 68.51 64.54 64.15 67.08 68.51 74.78 68.51 75.84 67.43 75.22 63.15 67.67 58.77 70.23 58.11 69.84 58.11 69.28 62.58 66.66 58.11 58.77 58.11 57.83 59.29 58.51 63.58 66.08"/>
      <polygon class="cls-7" points="63.58 52.88 67.96 50.32 68.51 50.64 68.51 51.34 64.15 53.89 68.51 61.58 68.51 62.65 67.43 62.02 63.15 54.47 58.77 57.03 58.11 56.64 58.11 56.08 62.58 53.46 58.11 45.57 58.11 44.63 59.29 45.31 63.58 52.88"/>
      <polygon class="cls-7" points="63.58 39.68 67.96 37.12 68.51 37.44 68.51 38.14 64.15 40.69 68.51 48.38 68.51 49.45 67.43 48.83 63.15 41.27 58.77 43.83 58.11 43.44 58.11 42.88 62.58 40.27 58.11 32.37 58.11 31.43 59.29 32.11 63.58 39.68"/>
      <polygon class="cls-7" points="58.11 18.24 59.29 18.92 63.58 26.48 67.96 23.92 68.51 24.24 68.51 24.95 64.15 27.49 68.51 35.19 68.51 36.25 67.43 35.63 63.15 28.08 58.77 30.63 58.11 30.25 58.11 29.69 62.58 27.07 58.11 19.17 58.11 18.24"/>
    </g>
    <g>
      <polygon class="cls-7" points="50.97 79.27 46.59 76.71 46.04 77.03 46.04 77.73 50.4 80.28 46.04 87.98 46.04 89.04 47.12 88.42 51.4 80.86 55.78 83.42 56.45 83.03 56.45 82.47 51.98 79.86 56.45 71.96 56.45 71.03 55.26 71.71 50.97 79.27"/>
      <polygon class="cls-7" points="50.97 66.08 46.59 63.52 46.04 63.83 46.04 64.54 50.4 67.08 46.04 74.78 46.04 75.84 47.12 75.22 51.4 67.67 55.78 70.23 56.45 69.84 56.45 69.28 51.98 66.66 56.45 58.77 56.45 57.83 55.26 58.51 50.97 66.08"/>
      <polygon class="cls-7" points="50.97 52.88 46.59 50.32 46.04 50.64 46.04 51.34 50.4 53.89 46.04 61.58 46.04 62.65 47.12 62.02 51.4 54.47 55.78 57.03 56.45 56.64 56.45 56.08 51.98 53.46 56.45 45.57 56.45 44.63 55.26 45.31 50.97 52.88"/>
      <polygon class="cls-7" points="50.97 39.68 46.59 37.12 46.04 37.44 46.04 38.14 50.4 40.69 46.04 48.38 46.04 49.45 47.12 48.83 51.4 41.27 55.78 43.83 56.45 43.44 56.45 42.88 51.98 40.27 56.45 32.37 56.45 31.43 55.26 32.11 50.97 39.68"/>
      <polygon class="cls-7" points="56.45 18.24 55.26 18.92 50.97 26.48 46.59 23.92 46.04 24.24 46.04 24.95 50.4 27.49 46.04 35.19 46.04 36.25 47.12 35.63 51.4 28.08 55.78 30.63 56.45 30.25 56.45 29.69 51.98 27.07 56.45 19.17 56.45 18.24"/>
    </g>
    <polygon class="cls-7" points="67.85 24.02 57.28 17.89 46.87 23.9 47.7 25.2 57.28 19.68 66.85 25.2 67.85 24.02"/>
    <polygon class="cls-2" points="68.51 24.02 57.28 17.53 46.04 24.02 47.7 24.02 57.28 18.49 66.85 24.02 68.51 24.02"/>
    <g>
      <polygon class="cls-7" points="56.36 13.84 47.74 23.06 46.91 23.53 46.91 22.71 55.94 12.8 56.36 13.84"/>
      <polygon class="cls-7" points="49.62 16.3 56.54 18.11 56.75 18.56 56.52 19 49.62 17.2 49.2 17.01 49.62 16.3"/>
      <polygon class="cls-7" points="57.24 9.63 49.69 17.7 48.88 18.17 48.88 17.34 57.12 8.29 57.24 9.63"/>
      <polygon class="cls-7" points="51.58 10.93 58.49 12.74 58.7 13.19 58.48 13.63 51.58 11.84 51.16 11.64 51.58 10.93"/>
      <polygon class="cls-7" points="57.87 5.39 51.43 12.28 51.29 11.7 51.64 10.8 57.76 4.04 57.87 5.39"/>
      <polygon class="cls-7" points="53.25 6.96 57.74 8.13 57.87 8.73 57.74 9.03 52.99 7.79 53.06 7.39 53.25 6.96"/>
      <polygon class="cls-7" points="58.19 13.84 66.82 23.06 67.63 23.53 67.63 22.71 58.61 12.8 58.19 13.84"/>
      <polygon class="cls-7" points="64.93 16.3 58.01 18.11 57.81 18.56 58.03 19 64.93 17.2 65.34 17.01 64.93 16.3"/>
      <polygon class="cls-7" points="57.32 9.63 64.86 17.7 65.68 18.17 65.68 17.34 57.43 8.29 57.32 9.63"/>
      <polygon class="cls-7" points="62.98 10.93 56.06 12.74 55.85 13.19 56.07 13.63 62.98 11.84 63.39 11.64 62.98 10.93"/>
      <polygon class="cls-7" points="56.68 5.39 63.12 12.28 63.26 11.7 62.91 10.8 56.79 4.04 56.68 5.39"/>
      <polygon class="cls-7" points="61.3 6.96 56.82 8.13 56.68 8.73 56.82 9.03 61.56 7.79 61.5 7.39 61.3 6.96"/>
    </g>
    <polygon class="cls-8" points="47.7 91.32 47.7 24.02 46.04 24.02 46.04 91.18 35.96 161.69 37.64 161.69 47.7 91.32"/>
    <g>
      <polygon class="cls-2" points="39.73 141.09 57.34 151.27 57.34 149.87 40.71 140.26 39.02 140.31 39.73 141.09"/>
      <polygon class="cls-8" points="38.85 141.61 56.46 151.79 56.46 150.39 39.02 140.31 38.85 141.61"/>
    </g>
    <g>
      <polygon class="cls-2" points="44.67 106.47 57.34 113.78 57.34 112.38 45.66 105.64 43.97 105.69 44.67 106.47"/>
      <polygon class="cls-8" points="43.79 106.98 56.46 114.29 56.46 112.89 43.97 105.69 43.79 106.98"/>
    </g>
    <g>
      <polygon class="cls-2" points="42.27 123.31 57.34 132.02 57.34 130.62 43.25 122.48 41.57 122.53 42.27 123.31"/>
      <polygon class="cls-8" points="41.39 123.82 56.46 132.54 56.46 131.14 41.57 122.53 41.39 123.82"/>
    </g>
    <g>
      <polygon class="cls-2" points="58.11 97.19 56.45 97.19 56.05 96.33 47.06 91.31 46.04 90 47.7 90 58.11 96 58.11 97.19"/>
      <polygon class="cls-8" points="56.45 97.19 46.04 91.18 46.04 90 56.45 96 56.45 97.19"/>
    </g>
    <g>
      <polygon class="cls-5" points="57.44 83.61 56.89 83.29 52.51 85.86 48.22 78.29 47.04 77.61 47.04 78.54 51.51 86.44 47.04 89.05 46.71 90.38 47.7 90 52.08 87.44 56.36 95 57.44 95.62 57.44 94.56 53.07 86.86 57.44 84.31 57.44 83.61"/>
      <polygon class="cls-8" points="56.45 84 55.89 83.68 51.52 86.24 47.22 78.67 46.04 77.99 46.04 78.93 50.52 86.82 46.04 89.44 46.04 90 46.71 90.38 51.09 87.83 55.36 95.38 56.45 96 56.45 94.94 52.08 87.25 56.45 84.7 56.45 84"/>
    </g>
    <g>
      <polygon class="cls-2" points="58.11 84 56.45 84 56.05 83.13 47.06 78.12 46.04 76.8 47.7 76.8 58.11 82.81 58.11 84"/>
      <polygon class="cls-8" points="56.45 84 46.04 77.99 46.04 76.8 56.45 82.81 56.45 84"/>
    </g>
    <g>
      <polygon class="cls-5" points="57.44 70.41 56.89 70.1 52.51 72.66 48.22 65.09 47.04 64.41 47.04 65.35 51.51 73.24 47.04 75.86 46.71 77.19 47.7 76.8 52.08 74.25 56.36 81.8 57.44 82.42 57.44 81.36 53.07 73.67 57.44 71.12 57.44 70.41"/>
      <polygon class="cls-8" points="56.45 70.8 55.89 70.48 51.52 73.04 47.22 65.48 46.04 64.8 46.04 65.73 50.52 73.63 46.04 76.24 46.04 76.8 46.71 77.19 51.09 74.64 55.36 82.19 56.45 82.81 56.45 81.74 52.08 74.05 56.45 71.5 56.45 70.8"/>
    </g>
    <g>
      <polygon class="cls-2" points="58.11 70.8 56.45 70.8 56.05 69.93 47.06 64.92 46.04 63.61 47.7 63.61 58.11 69.61 58.11 70.8"/>
      <polygon class="cls-8" points="56.45 70.8 46.04 64.8 46.04 63.61 56.45 69.61 56.45 70.8"/>
    </g>
    <g>
      <polygon class="cls-5" points="57.44 57.22 56.89 56.9 52.51 59.46 48.22 51.89 47.04 51.21 47.04 52.15 51.51 60.04 47.04 62.66 46.71 64 47.7 63.61 52.08 61.05 56.36 68.61 57.44 69.23 57.44 68.16 53.07 60.47 57.44 57.92 57.44 57.22"/>
      <polygon class="cls-8" points="56.45 57.6 55.89 57.28 51.52 59.85 47.22 52.28 46.04 51.6 46.04 52.53 50.52 60.43 46.04 63.05 46.04 63.61 46.71 64 51.09 61.44 55.36 68.99 56.45 69.61 56.45 68.55 52.08 60.85 56.45 58.31 56.45 57.6"/>
    </g>
    <g>
      <polygon class="cls-2" points="58.11 57.6 56.45 57.6 56.05 56.74 47.06 51.71 46.04 50.41 47.7 50.41 58.11 56.42 58.11 57.6"/>
      <polygon class="cls-8" points="56.45 57.6 46.04 51.59 46.04 50.41 56.45 56.42 56.45 57.6"/>
    </g>
    <g>
      <polygon class="cls-5" points="57.44 44.02 56.89 43.7 52.51 46.26 48.22 38.7 47.04 38.02 47.04 38.95 51.51 46.85 47.04 49.46 46.71 50.79 47.7 50.41 52.08 47.85 56.36 55.41 57.44 56.03 57.44 54.96 53.07 47.27 57.44 44.72 57.44 44.02"/>
      <polygon class="cls-8" points="56.45 44.4 55.89 44.08 51.52 46.65 47.22 39.08 46.04 38.4 46.04 39.34 50.52 47.23 46.04 49.85 46.04 50.41 46.71 50.79 51.09 48.24 55.36 55.79 56.45 56.42 56.45 55.35 52.08 47.66 56.45 45.1 56.45 44.4"/>
    </g>
    <g>
      <polygon class="cls-2" points="58.11 44.4 56.45 44.4 56.05 43.54 47.06 38.52 46.04 37.21 47.7 37.21 58.11 43.22 58.11 44.4"/>
      <polygon class="cls-8" points="56.45 44.4 46.04 38.4 46.04 37.21 56.45 43.22 56.45 44.4"/>
    </g>
    <g>
      <polygon class="cls-5" points="57.44 30.82 56.89 30.5 52.51 33.06 48.22 25.5 47.04 24.82 47.04 25.75 51.51 33.65 47.04 36.27 46.71 37.6 47.7 37.21 52.08 34.66 56.36 42.21 57.44 42.83 57.44 41.77 53.07 34.07 57.44 31.53 57.44 30.82"/>
      <polygon class="cls-8" points="56.45 31.21 55.89 30.89 51.52 33.45 47.22 25.89 46.04 25.2 46.04 26.14 50.52 34.03 46.04 36.65 46.04 37.21 46.71 37.6 51.09 35.04 55.36 42.6 56.45 43.22 56.45 42.15 52.08 34.46 56.45 31.91 56.45 31.21"/>
    </g>
    <g>
      <polygon class="cls-2" points="57.11 83.61 57.66 83.29 62.05 85.86 66.34 78.29 67.52 77.61 67.52 78.54 63.04 86.44 67.52 89.05 67.85 90.39 66.85 90 62.47 87.44 58.19 95 57.11 95.62 57.11 94.56 61.47 86.86 57.11 84.31 57.11 83.61"/>
      <polygon class="cls-5" points="58.11 84 58.65 83.68 63.04 86.24 67.33 78.67 68.51 77.99 68.51 78.93 64.03 86.82 68.51 89.44 68.51 90 67.85 90.39 63.47 87.83 59.18 95.38 58.11 96 58.11 94.94 62.46 87.25 58.11 84.7 58.11 84"/>
    </g>
    <g>
      <polygon class="cls-2" points="57.11 70.41 57.66 70.1 62.05 72.66 66.34 65.09 67.52 64.41 67.52 65.35 63.04 73.24 67.52 75.86 67.85 77.19 66.85 76.8 62.47 74.25 58.19 81.8 57.11 82.42 57.11 81.36 61.47 73.67 57.11 71.12 57.11 70.41"/>
      <polygon class="cls-5" points="58.11 70.8 58.65 70.48 63.04 73.04 67.33 65.48 68.51 64.8 68.51 65.73 64.03 73.63 68.51 76.24 68.51 76.8 67.85 77.19 63.47 74.64 59.18 82.19 58.11 82.81 58.11 81.75 62.46 74.05 58.11 71.5 58.11 70.8"/>
    </g>
    <g>
      <polygon class="cls-2" points="57.11 57.22 57.66 56.9 62.05 59.46 66.34 51.89 67.52 51.21 67.52 52.15 63.04 60.04 67.52 62.66 67.85 64 66.85 63.61 62.47 61.05 58.19 68.61 57.11 69.23 57.11 68.16 61.47 60.47 57.11 57.92 57.11 57.22"/>
      <polygon class="cls-5" points="58.11 57.6 58.65 57.28 63.04 59.85 67.33 52.28 68.51 51.6 68.51 52.53 64.03 60.43 68.51 63.05 68.51 63.61 67.85 64 63.47 61.44 59.18 68.99 58.11 69.61 58.11 68.55 62.46 60.85 58.11 58.31 58.11 57.6"/>
    </g>
    <g>
      <polygon class="cls-2" points="57.11 44.02 57.66 43.7 62.05 46.26 66.34 38.7 67.52 38.02 67.52 38.95 63.04 46.85 67.52 49.46 67.85 50.79 66.85 50.41 62.47 47.85 58.19 55.41 57.11 56.03 57.11 54.96 61.47 47.27 57.11 44.72 57.11 44.02"/>
      <polygon class="cls-5" points="58.11 44.4 58.65 44.08 63.04 46.65 67.33 39.08 68.51 38.4 68.51 39.34 64.03 47.23 68.51 49.85 68.51 50.41 67.85 50.79 63.47 48.24 59.18 55.79 58.11 56.42 58.11 55.35 62.46 47.66 58.11 45.1 58.11 44.4"/>
    </g>
    <g>
      <polygon class="cls-2" points="58.11 31.21 56.45 31.21 56.05 30.34 47.06 25.32 46.04 24.02 47.7 24.02 58.11 30.02 58.11 31.21"/>
      <polygon class="cls-8" points="56.45 31.21 46.04 25.2 46.04 24.02 56.45 30.02 56.45 31.21"/>
    </g>
    <polygon class="cls-5" points="78.59 161.69 68.51 91.18 68.51 24.02 66.85 24.02 66.85 91.32 76.91 161.69 78.59 161.69"/>
    <g>
      <polygon class="cls-2" points="74.83 141.09 57.22 151.27 57.22 149.87 73.85 140.26 75.54 140.31 74.83 141.09"/>
      <polygon class="cls-5" points="75.71 141.61 58.11 151.79 58.11 150.39 75.54 140.31 75.71 141.61"/>
    </g>
    <g>
      <polygon class="cls-2" points="69.89 106.47 57.22 113.78 57.22 112.38 68.9 105.64 70.59 105.69 69.89 106.47"/>
      <polygon class="cls-5" points="70.77 106.98 58.11 114.29 58.11 112.89 70.59 105.69 70.77 106.98"/>
    </g>
    <g>
      <polygon class="cls-2" points="72.29 123.31 57.22 132.02 57.22 130.62 71.31 122.48 72.99 122.53 72.29 123.31"/>
      <polygon class="cls-5" points="73.18 123.82 58.11 132.54 58.11 131.14 72.99 122.53 73.18 123.82"/>
    </g>
    <g>
      <polygon class="cls-2" points="56.45 97.19 58.11 97.19 58.5 96.33 67.49 91.31 68.51 90 66.85 90 56.45 96 56.45 97.19"/>
      <polygon class="cls-5" points="58.11 97.19 68.51 91.18 68.51 90 58.11 96 58.11 97.19"/>
    </g>
    <g>
      <polygon class="cls-2" points="56.45 84 58.11 84 58.5 83.13 67.49 78.12 68.51 76.8 66.85 76.8 56.45 82.81 56.45 84"/>
      <polygon class="cls-5" points="58.11 84 68.51 77.99 68.51 76.8 58.11 82.81 58.11 84"/>
    </g>
    <g>
      <polygon class="cls-2" points="56.45 70.8 58.11 70.8 58.5 69.93 67.49 64.92 68.51 63.61 66.85 63.61 56.45 69.61 56.45 70.8"/>
      <polygon class="cls-5" points="58.11 70.8 68.51 64.8 68.51 63.61 58.11 69.61 58.11 70.8"/>
    </g>
    <g>
      <polygon class="cls-2" points="56.45 57.6 58.11 57.6 58.5 56.74 67.49 51.71 68.51 50.41 66.85 50.41 56.45 56.42 56.45 57.6"/>
      <polygon class="cls-5" points="58.11 57.6 68.51 51.59 68.51 50.41 58.11 56.42 58.11 57.6"/>
    </g>
    <g>
      <polygon class="cls-2" points="56.45 44.4 58.11 44.4 58.5 43.54 67.49 38.52 68.51 37.21 66.85 37.21 56.45 43.22 56.45 44.4"/>
      <polygon class="cls-5" points="58.11 44.4 68.51 38.4 68.51 37.21 58.11 43.22 58.11 44.4"/>
    </g>
    <g>
      <polygon class="cls-2" points="57.11 30.82 57.66 30.5 62.05 33.06 66.34 25.5 67.52 24.82 67.52 25.75 63.04 33.65 67.52 36.27 67.85 37.6 66.85 37.21 62.47 34.66 58.19 42.21 57.11 42.83 57.11 41.77 61.47 34.07 57.11 31.53 57.11 30.82"/>
      <polygon class="cls-5" points="58.11 31.21 58.65 30.89 63.04 33.45 67.33 25.89 68.51 25.2 68.51 26.14 64.03 34.03 68.51 36.65 68.51 37.21 67.85 37.6 63.47 35.04 59.18 42.6 58.11 43.22 58.11 42.15 62.46 34.46 58.11 31.91 58.11 31.21"/>
    </g>
    <g>
      <polygon class="cls-2" points="56.45 31.21 58.11 31.21 58.5 30.34 67.49 25.32 68.51 24.02 66.85 24.02 56.45 30.02 56.45 31.21"/>
      <polygon class="cls-5" points="58.11 31.21 68.51 25.2 68.51 24.02 58.11 30.02 58.11 31.21"/>
    </g>
    <g>
      <polygon class="cls-2" points="57.28 174 56.45 173.52 56.45 97.19 57.28 95.6 57.28 174"/>
      <polygon class="cls-5" points="57.28 95.6 58.11 97.19 58.11 173.52 57.28 174 57.28 95.6"/>
      <polygon class="cls-8" points="57.28 97.67 56.45 97.19 56.45 30.02 57.28 30.5 57.28 97.67"/>
      <polygon class="cls-5" points="57.28 30.5 58.11 30.02 58.11 97.19 57.28 97.67 57.28 30.5"/>
    </g>
    <polygon class="cls-5" points="60.4 3.75 58.75 3.75 67.16 24.8 68.51 24.02 60.4 3.75"/>
    <polygon class="cls-8" points="54.14 3.75 55.8 3.75 47.39 24.8 46.04 24.02 54.14 3.75"/>
    <g>
      <polygon class="cls-2" points="57.28 3.62 54.14 1.81 57.28 0 60.4 1.81 57.28 3.62"/>
      <polygon class="cls-8" points="57.28 5.56 54.14 3.75 54.14 1.81 57.28 3.62 57.28 5.56"/>
      <polygon class="cls-5" points="57.28 5.56 60.4 3.75 60.4 1.81 57.28 3.62 57.28 5.56"/>
    </g>
    <polygon class="cls-8" points="57.28 5.56 56.45 5.08 56.45 30.02 57.28 30.5 57.28 5.56"/>
    <polygon class="cls-5" points="57.28 30.5 58.11 30.02 58.11 5.08 57.28 5.56 57.28 30.5"/>
    <polygon class="cls-5" points="64.72 18.69 58.92 29.55 58.11 30.02 58.11 29.2 64.31 17.65 64.72 18.69"/>
    <polygon class="cls-5" points="58.11 21.22 66.91 24.16 67.16 24.8 66.77 25.02 58.11 22.13 57.69 21.94 58.11 21.22"/>
    <polygon class="cls-5" points="62.48 13.09 58.11 21.22 57.69 21.06 58.11 19.42 62.06 12.05 62.48 13.09"/>
    <polygon class="cls-5" points="58.11 14.33 63.89 16.61 64.62 17.16 64.31 17.65 58.11 15.23 57.69 14.85 58.11 14.33"/>
    <polygon class="cls-5" points="61.35 8.31 57.53 15.41 57.57 14.33 57.57 13.52 60.84 7.43 61.35 8.31"/>
    <polygon class="cls-5" points="57.69 9.4 62.44 11.28 62.87 11.79 62.55 12.2 57.58 10.27 57.49 9.72 57.69 9.4"/>
    <polygon class="cls-8" points="49.83 18.69 55.63 29.55 56.45 30.02 56.45 29.2 50.25 17.65 49.83 18.69"/>
    <polygon class="cls-8" points="56.45 21.22 47.65 24.16 47.39 24.8 47.78 25.02 56.45 22.13 56.86 21.94 56.45 21.22"/>
    <polygon class="cls-8" points="52.07 13.09 56.45 21.22 56.86 21.06 56.45 19.42 52.49 12.05 52.07 13.09"/>
    <polygon class="cls-8" points="56.45 14.33 50.66 16.61 49.93 17.16 50.25 17.65 56.45 15.23 56.86 14.85 56.45 14.33"/>
    <polygon class="cls-8" points="53.2 8.31 57.02 15.41 56.99 14.33 56.98 13.52 53.72 7.43 53.2 8.31"/>
    <polygon class="cls-8" points="56.86 9.4 52.12 11.28 51.69 11.79 52 12.2 56.97 10.27 57.07 9.72 56.86 9.4"/>
    <polygon class="cls-8" points="45.91 92.05 55.48 112.33 56.46 112.89 56.46 111.91 46.82 91.63 46.04 91.18 45.91 92.05"/>
    <polygon class="cls-8" points="56.04 96.96 44.04 105.2 43.97 105.69 44.64 106.07 56.45 97.75 56.45 97.19 56.04 96.96"/>
    <polygon class="cls-8" points="43.67 107.84 55.48 130.57 56.46 131.14 56.46 130.15 44.57 107.43 43.79 106.98 43.67 107.84"/>
    <polygon class="cls-8" points="56.05 114.05 41.63 122.05 41.57 122.53 42.24 122.92 56.46 114.85 56.46 114.29 56.05 114.05"/>
    <polygon class="cls-8" points="41.26 124.69 55.48 149.82 56.46 150.39 56.46 149.4 42.16 124.27 41.39 123.82 41.26 124.69"/>
    <polygon class="cls-8" points="56.05 132.3 39.09 139.83 39.02 140.31 39.7 140.7 56.46 133.1 56.46 132.54 56.05 132.3"/>
    <polygon class="cls-5" points="68.64 92.05 59.07 112.33 58.1 112.89 58.1 111.91 67.74 91.63 68.51 91.18 68.64 92.05"/>
    <polygon class="cls-5" points="58.51 96.96 70.51 105.2 70.58 105.69 69.91 106.07 58.11 97.75 58.11 97.19 58.51 96.96"/>
    <polygon class="cls-5" points="70.89 107.84 59.07 130.58 58.1 131.14 58.1 130.15 69.99 107.43 70.76 106.98 70.89 107.84"/>
    <polygon class="cls-5" points="58.51 114.05 72.92 122.05 72.98 122.53 72.31 122.92 58.09 114.85 58.1 114.29 58.51 114.05"/>
    <polygon class="cls-5" points="73.29 124.69 59.07 149.82 58.1 150.39 58.1 149.4 72.39 124.27 73.17 123.82 73.29 124.69"/>
    <polygon class="cls-5" points="58.51 132.3 75.46 139.83 75.53 140.31 74.85 140.7 58.09 133.1 58.1 132.54 58.51 132.3"/>
  </g>
  <g>
    <g>
      <polygon class="cls-2" points="89.33 101.85 68.51 77.03 67.86 77.41 86.74 100.35 68.51 89.82 67.86 90.2 68.51 91.23 93.59 105.71 94.12 106.77 94.77 106.39 94.77 104.98 89.33 101.85"/>
      <polygon class="cls-8" points="88.67 102.22 67.86 77.41 67.86 79 86.09 100.72 67.86 90.2 67.86 91.6 94.12 106.77 94.12 105.36 88.67 102.22"/>
    </g>
    <g>
      <polygon class="cls-2" points="78.75 107.91 57.93 83.09 57.28 83.47 76.16 106.41 57.93 95.89 57.28 96.26 57.93 97.29 83.01 111.77 83.54 112.83 84.19 112.45 84.19 111.05 78.75 107.91"/>
      <polygon class="cls-8" points="78.1 108.28 57.28 83.47 57.28 85.06 75.5 106.79 57.28 96.26 57.28 97.67 83.54 112.83 83.54 111.43 78.1 108.28"/>
    </g>
    <g>
      <polygon class="cls-2" points="94.77 104.98 93.02 106.77 86.23 110.72 83.54 111.42 82.36 110.74 93.59 104.3 94.77 104.98"/>
      <polygon class="cls-5" points="94.77 106.39 83.54 112.83 83.54 111.43 94.77 104.98 94.77 106.39"/>
    </g>
    <g>
      <path class="cls-6" d="M82.6,109.94c.52-.3,1.36-.3,1.87,0,.52.3.52.78,0,1.08-.51.3-1.35.3-1.87,0-.51-.3-.51-.78,0-1.08Z"/>
      <g>
        <path class="cls-3" d="M84.98,110.49v.13c0,.21-.14.43-.42.59-.56.32-1.48.32-2.04,0-.28-.16-.42-.37-.42-.59v-.13c0,.21,2.88.21,2.88,0Z"/>
        <path class="cls-7" d="M82.52,109.89c.56-.32,1.48-.32,2.04,0,.56.33.56.85,0,1.18-.56.33-1.48.33-2.04,0-.57-.32-.57-.85,0-1.18Z"/>
      </g>
      <g>
        <path class="cls-1" d="M82.6,110.64c.52.3,1.36.3,1.87,0,.26-.15.39-.34.39-.54v.38c0,.19-.13.39-.39.54-.51.3-1.35.3-1.87,0-.25-.15-.38-.34-.38-.54v-.38c0,.2.13.39.38.54Z"/>
        <path class="cls-6" d="M82.6,109.56c.52-.3,1.36-.3,1.87,0,.52.3.52.78,0,1.08-.51.3-1.35.3-1.87,0-.51-.3-.51-.78,0-1.08Z"/>
      </g>
      <g>
        <path class="cls-3" d="M84.98,110.1v.14c0,.21-.14.42-.42.59-.56.33-1.48.33-2.04,0-.28-.16-.42-.37-.42-.59v-.14c0,.21,2.88.21,2.88,0Z"/>
        <path class="cls-7" d="M82.52,109.51c.56-.32,1.48-.32,2.04,0,.56.33.56.86,0,1.18-.56.33-1.48.33-2.04,0-.57-.32-.57-.85,0-1.18Z"/>
      </g>
      <g>
        <path class="cls-1" d="M82.6,110.26c.52.3,1.36.3,1.87,0,.26-.15.39-.34.39-.54v.39c0,.19-.13.39-.39.54-.51.3-1.35.3-1.87,0-.25-.15-.38-.34-.38-.54v-.39c0,.2.13.39.38.54Z"/>
        <path class="cls-6" d="M82.6,109.18c.52-.3,1.36-.3,1.87,0,.52.3.52.78,0,1.08-.51.3-1.35.3-1.87,0-.51-.3-.51-.78,0-1.08Z"/>
      </g>
      <g>
        <path class="cls-3" d="M84.98,109.72v.13c0,.21-.14.43-.42.59-.56.32-1.48.32-2.04,0-.28-.17-.42-.38-.42-.59v-.13c0,.21,2.88.21,2.88,0Z"/>
        <path class="cls-7" d="M82.52,109.13c.56-.33,1.48-.33,2.04,0,.56.32.56.85,0,1.17-.56.32-1.48.33-2.04,0-.57-.33-.57-.85,0-1.17Z"/>
      </g>
      <g>
        <path class="cls-1" d="M82.6,109.85c.52.3,1.36.3,1.87,0,.26-.15.39-.35.39-.54v.38c0,.19-.13.39-.39.54-.51.3-1.35.3-1.87,0-.25-.15-.38-.35-.38-.54v-.38c0,.2.13.39.38.54Z"/>
        <path class="cls-6" d="M82.6,108.77c.52-.3,1.36-.3,1.87,0,.52.29.52.78,0,1.08-.51.3-1.35.3-1.87,0-.51-.3-.51-.78,0-1.08Z"/>
      </g>
      <g>
        <path class="cls-3" d="M84.98,109.3v.14c0,.21-.14.43-.42.59-.56.32-1.48.32-2.04,0-.29-.16-.43-.38-.43-.59v-.14c0,.21,2.88.21,2.88,0Z"/>
        <path class="cls-7" d="M82.52,108.71c.56-.32,1.48-.32,2.04,0,.56.32.56.85,0,1.18-.56.32-1.48.32-2.04,0-.57-.32-.57-.85,0-1.18Z"/>
      </g>
      <g>
        <path class="cls-1" d="M82.6,109.46c.52.3,1.36.3,1.87,0,.26-.14.39-.34.39-.54v.38c0,.2-.13.39-.39.54-.51.3-1.35.3-1.87,0-.25-.14-.38-.34-.38-.54v-.38c0,.19.13.39.38.54Z"/>
        <path class="cls-6" d="M82.6,108.38c.52-.3,1.36-.3,1.87,0,.52.3.52.78,0,1.08-.51.3-1.35.3-1.87,0-.51-.3-.51-.78,0-1.08Z"/>
      </g>
      <g>
        <path class="cls-3" d="M84.98,108.92v.14c0,.21-.14.43-.42.59-.56.32-1.48.32-2.04,0-.29-.16-.43-.37-.43-.59v-.14c0,.22,2.88.22,2.88,0Z"/>
        <path class="cls-7" d="M82.52,108.33c.56-.32,1.48-.32,2.04,0,.56.33.56.86,0,1.18-.56.32-1.48.32-2.04,0-.57-.32-.57-.85,0-1.18Z"/>
      </g>
      <g>
        <path class="cls-1" d="M82.6,109.08c.52.3,1.36.3,1.87,0,.26-.15.39-.35.39-.54v.38c0,.19-.13.39-.39.54-.51.3-1.35.3-1.87,0-.25-.14-.38-.34-.38-.54v-.38c0,.19.13.39.38.54Z"/>
        <path class="cls-6" d="M82.6,108c.52-.3,1.36-.3,1.87,0,.52.3.52.78,0,1.08-.51.3-1.35.3-1.87,0-.51-.3-.51-.78,0-1.08Z"/>
      </g>
      <g>
        <path class="cls-3" d="M84.98,108.54v.14c0,.21-.14.42-.42.59-.56.33-1.48.33-2.04,0-.29-.17-.43-.37-.43-.59v-.14c0,.22,2.88.22,2.88,0Z"/>
        <path class="cls-7" d="M82.52,107.95c.56-.33,1.48-.33,2.04,0,.56.32.56.85,0,1.18-.56.32-1.48.32-2.04,0-.57-.32-.57-.85,0-1.18Z"/>
      </g>
      <g>
        <path class="cls-1" d="M82.6,108.7c.52.3,1.36.3,1.87,0,.26-.15.39-.34.39-.54v.38c0,.19-.13.39-.39.54-.51.3-1.35.3-1.87,0-.25-.15-.38-.35-.38-.54v-.38c0,.19.13.39.38.54Z"/>
        <path class="cls-6" d="M82.6,107.61c.52-.29,1.36-.29,1.87,0,.52.3.52.79,0,1.08-.51.3-1.35.3-1.87,0-.51-.3-.51-.78,0-1.08Z"/>
      </g>
      <g>
        <path class="cls-3" d="M84.98,108.16v.13c0,.22-.14.43-.42.59-.56.32-1.48.32-2.04,0-.29-.17-.43-.37-.43-.59v-.13c0,.21,2.88.21,2.88,0Z"/>
        <path class="cls-7" d="M82.52,107.57c.56-.33,1.48-.33,2.04,0,.56.32.56.85,0,1.18-.56.32-1.48.32-2.04,0-.57-.33-.57-.85,0-1.18Z"/>
      </g>
      <g>
        <path class="cls-8" d="M83.02,107.09c.27.16.71.16.99,0,.14-.08.21-.18.21-.28v1.32c0,.1-.07.21-.21.29-.28.16-.71.16-.99,0-.13-.08-.2-.19-.2-.29v-1.32c0,.1.07.2.2.28Z"/>
        <path class="cls-6" d="M83.02,106.52c.27-.15.71-.15.99,0,.27.16.27.42,0,.57-.28.16-.71.16-.99,0-.27-.15-.27-.41,0-.57Z"/>
      </g>
      <g>
        <path class="cls-3" d="M83.68,105.78v1.02s-.02.05-.06.07c-.06.04-.16.04-.23,0-.03-.02-.04-.04-.04-.07v-1.02s.33.03.33,0Z"/>
        <path class="cls-7" d="M83.4,105.71c.07-.04.17-.04.23,0,.07.04.07.09,0,.13-.06.04-.16.04-.23,0-.06-.04-.06-.1,0-.13Z"/>
      </g>
    </g>
    <g>
      <path class="cls-6" d="M92.64,104.15c.52-.29,1.36-.29,1.87,0,.52.3.52.78,0,1.08-.51.3-1.35.3-1.87,0-.52-.3-.52-.78,0-1.08Z"/>
      <g>
        <path class="cls-3" d="M95.02,104.69v.13c0,.21-.14.43-.42.59-.56.32-1.48.32-2.04,0-.28-.16-.43-.38-.43-.59v-.13c0,.22,2.89.22,2.89,0Z"/>
        <path class="cls-7" d="M92.56,104.1c.56-.33,1.47-.33,2.04,0,.56.32.56.85,0,1.17-.56.33-1.48.33-2.04,0-.57-.32-.57-.85,0-1.17Z"/>
      </g>
      <g>
        <path class="cls-1" d="M92.64,104.85c.52.3,1.36.3,1.87,0,.26-.15.39-.35.39-.55v.38c0,.2-.13.39-.39.54-.51.3-1.35.3-1.87,0-.26-.15-.39-.34-.39-.54v-.38c0,.2.13.39.39.55Z"/>
        <path class="cls-6" d="M92.64,103.77c.52-.3,1.36-.3,1.87,0,.52.3.52.78,0,1.09-.51.3-1.35.3-1.87,0-.52-.3-.52-.79,0-1.09Z"/>
      </g>
      <g>
        <path class="cls-3" d="M95.02,104.31v.13c0,.21-.14.43-.42.59-.56.33-1.48.33-2.04,0-.28-.16-.43-.38-.43-.59v-.13c0,.21,2.89.21,2.89,0Z"/>
        <path class="cls-7" d="M92.56,103.71c.56-.32,1.47-.32,2.04,0,.56.33.56.85,0,1.18-.56.33-1.48.33-2.04,0-.57-.32-.57-.85,0-1.18Z"/>
      </g>
      <g>
        <path class="cls-1" d="M92.64,104.47c.52.3,1.36.3,1.87,0,.26-.14.39-.34.39-.54v.38c0,.2-.13.39-.39.55-.51.3-1.35.3-1.87,0-.26-.15-.39-.35-.39-.55v-.38c0,.2.13.4.39.54Z"/>
        <path class="cls-6" d="M92.64,103.38c.52-.3,1.36-.3,1.87,0,.52.3.52.78,0,1.08-.51.3-1.35.3-1.87,0-.52-.3-.52-.78,0-1.08Z"/>
      </g>
      <g>
        <path class="cls-3" d="M95.02,103.92v.13c0,.22-.14.43-.42.59-.56.32-1.48.32-2.04,0-.28-.17-.43-.38-.43-.59v-.13c0,.22,2.89.22,2.89,0Z"/>
        <path class="cls-7" d="M92.56,103.34c.56-.33,1.47-.33,2.04,0,.56.32.56.85,0,1.18-.56.32-1.48.32-2.04,0-.57-.33-.57-.86,0-1.18Z"/>
      </g>
      <g>
        <path class="cls-1" d="M92.64,104.05c.52.3,1.36.3,1.87,0,.26-.15.39-.34.39-.54v.38c0,.2-.13.39-.39.54-.51.3-1.35.3-1.87,0-.26-.15-.38-.34-.38-.54v-.38c0,.2.13.39.38.54Z"/>
        <path class="cls-6" d="M92.64,102.97c.52-.3,1.36-.3,1.87,0,.52.3.52.78,0,1.08-.51.3-1.35.3-1.87,0-.52-.3-.52-.78,0-1.08Z"/>
      </g>
      <g>
        <path class="cls-3" d="M95.02,103.51v.13c0,.21-.14.43-.42.59-.56.32-1.48.32-2.04,0-.28-.16-.43-.38-.43-.59v-.13c0,.21,2.89.21,2.89,0Z"/>
        <path class="cls-7" d="M92.56,102.92c.56-.32,1.47-.32,2.04,0,.56.32.56.85,0,1.17-.56.32-1.48.32-2.04,0-.57-.32-.57-.85,0-1.17Z"/>
      </g>
      <g>
        <path class="cls-1" d="M92.64,103.66c.52.3,1.36.3,1.87,0,.26-.15.39-.34.39-.54v.38c0,.2-.13.39-.39.54-.51.3-1.35.3-1.87,0-.26-.15-.38-.34-.38-.54v-.38c0,.19.13.39.38.54Z"/>
        <path class="cls-6" d="M92.64,102.59c.52-.3,1.36-.3,1.87,0,.52.3.52.78,0,1.07-.51.3-1.35.3-1.87,0-.52-.29-.52-.78,0-1.07Z"/>
      </g>
      <g>
        <path class="cls-3" d="M95.02,103.13v.13c0,.21-.14.43-.42.59-.56.32-1.48.32-2.04,0-.28-.16-.43-.37-.43-.59v-.13c0,.21,2.89.21,2.89,0Z"/>
        <path class="cls-7" d="M92.56,102.54c.56-.32,1.47-.32,2.04,0,.56.32.56.85,0,1.18-.56.32-1.48.32-2.04,0-.57-.32-.57-.85,0-1.18Z"/>
      </g>
      <g>
        <path class="cls-1" d="M92.64,103.29c.52.3,1.36.3,1.87,0,.26-.15.39-.35.39-.54v.38c0,.19-.13.39-.39.54-.51.3-1.35.3-1.87,0-.26-.15-.38-.34-.38-.54v-.38c0,.2.13.39.38.54Z"/>
        <path class="cls-6" d="M92.64,102.21c.52-.3,1.36-.3,1.87,0,.52.3.52.78,0,1.08-.51.3-1.35.3-1.87,0-.52-.3-.52-.78,0-1.08Z"/>
      </g>
      <g>
        <path class="cls-3" d="M95.02,102.74v.14c0,.21-.14.42-.42.59-.56.32-1.48.32-2.04,0-.28-.16-.43-.37-.43-.59v-.14c0,.22,2.89.22,2.89,0Z"/>
        <path class="cls-7" d="M92.56,102.15c.56-.32,1.47-.32,2.04,0,.56.33.56.86,0,1.18-.56.32-1.48.32-2.04,0-.57-.32-.57-.85,0-1.18Z"/>
      </g>
      <g>
        <path class="cls-1" d="M92.64,102.9c.52.3,1.36.3,1.87,0,.26-.14.39-.34.39-.54v.38c0,.2-.13.39-.39.54-.51.3-1.35.3-1.87,0-.26-.15-.38-.35-.38-.54v-.38c0,.19.13.39.38.54Z"/>
        <path class="cls-6" d="M92.64,101.82c.52-.3,1.36-.3,1.87,0,.52.3.52.78,0,1.08-.51.3-1.35.3-1.87,0-.52-.29-.52-.78,0-1.08Z"/>
      </g>
      <g>
        <path class="cls-3" d="M95.02,102.36v.14c0,.22-.14.43-.42.59-.56.32-1.48.32-2.04,0-.28-.16-.43-.38-.43-.59v-.14c0,.22,2.89.22,2.89,0Z"/>
        <path class="cls-7" d="M92.56,101.77c.56-.33,1.47-.33,2.04,0,.56.32.56.85,0,1.18-.56.32-1.48.32-2.04,0-.57-.32-.57-.85,0-1.18Z"/>
      </g>
      <g>
        <path class="cls-8" d="M93.06,101.3c.27.16.71.16.99,0,.14-.08.21-.18.21-.28v1.33c0,.1-.07.21-.21.29-.28.16-.72.16-.99,0-.14-.08-.2-.18-.2-.29v-1.33c0,.11.07.21.2.28Z"/>
        <path class="cls-6" d="M93.06,100.73c.27-.16.71-.16.99,0,.27.16.27.41,0,.57-.28.16-.72.16-.99,0-.27-.15-.27-.41,0-.57Z"/>
      </g>
      <g>
        <path class="cls-3" d="M93.72,99.99v1.02s-.01.05-.05.07c-.06.03-.16.03-.23,0-.03-.02-.04-.04-.04-.07v-1.02s.33.02.33,0Z"/>
        <path class="cls-7" d="M93.44,99.91c.06-.04.17-.04.23,0,.07.04.07.1,0,.14-.06.04-.16.04-.23,0-.06-.04-.06-.09,0-.14Z"/>
      </g>
    </g>
    <path class="cls-1" d="M93.56,100.15h0c-.1,0-.17-.07-.17-.16,0-.09.07-.16.17-.16s9.91-.11,22.38-8.72c.07-.05.18-.03.23.04.05.08.03.18-.04.23-12.56,8.68-22.46,8.78-22.56,8.78Z"/>
    <path class="cls-1" d="M62.6,122.24c-.06,0-.12-.03-.15-.09-.04-.08,0-.18.08-.22.14-.06,13.54-6.93,20.86-16.26.05-.07.15-.09.23-.03.07.06.08.16.03.23-7.36,9.39-20.83,16.29-20.96,16.36-.02.01-.05.02-.07.02Z"/>
  </g>
  <g>
    <g>
      <polygon class="cls-2" points="89.33 75.43 68.51 50.62 67.86 51 86.74 73.93 68.51 63.41 67.86 63.79 68.51 64.82 93.59 79.3 94.12 80.36 94.77 79.98 94.77 78.58 89.33 75.43"/>
      <polygon class="cls-8" points="88.67 75.81 67.86 51 67.86 52.59 86.09 74.32 67.86 63.79 67.86 65.2 94.12 80.36 94.12 78.95 88.67 75.81"/>
    </g>
    <g>
      <polygon class="cls-2" points="78.75 81.49 57.93 56.68 57.28 57.06 76.16 80 57.93 69.47 57.28 69.86 57.93 70.88 83.01 85.36 83.54 86.42 84.19 86.04 84.19 84.64 78.75 81.49"/>
      <polygon class="cls-8" points="78.1 81.88 57.28 57.06 57.28 58.65 75.5 80.38 57.28 69.86 57.28 71.26 83.54 86.42 83.54 85.02 78.1 81.88"/>
    </g>
    <g>
      <polygon class="cls-2" points="94.77 78.58 93.02 80.36 86.23 84.31 83.54 85.01 82.36 84.33 93.59 77.89 94.77 78.58"/>
      <polygon class="cls-5" points="94.77 79.98 83.54 86.42 83.54 85.02 94.77 78.58 94.77 79.98"/>
    </g>
    <g>
      <path class="cls-6" d="M82.6,83.54c.52-.3,1.36-.3,1.87,0,.52.3.52.78,0,1.08-.51.3-1.35.3-1.87,0-.51-.3-.51-.78,0-1.08Z"/>
      <g>
        <path class="cls-3" d="M84.98,84.07v.14c0,.21-.14.43-.42.59-.56.33-1.48.33-2.04,0-.28-.16-.42-.38-.42-.59v-.14c0,.21,2.88.21,2.88,0Z"/>
        <path class="cls-7" d="M82.52,83.49c.56-.32,1.48-.32,2.04,0,.56.33.56.85,0,1.18-.56.32-1.48.32-2.04,0-.57-.32-.57-.85,0-1.18Z"/>
      </g>
      <g>
        <path class="cls-1" d="M82.6,84.23c.52.3,1.36.3,1.87,0,.26-.15.39-.34.39-.54v.38c0,.2-.13.39-.39.54-.51.3-1.35.3-1.87,0-.25-.15-.38-.34-.38-.54v-.38c0,.2.13.39.38.54Z"/>
        <path class="cls-6" d="M82.6,83.15c.52-.3,1.36-.3,1.87,0,.52.3.52.78,0,1.08-.51.3-1.35.3-1.87,0-.51-.29-.51-.78,0-1.08Z"/>
      </g>
      <g>
        <path class="cls-3" d="M84.98,83.69v.13c0,.21-.14.43-.42.59-.56.32-1.48.32-2.04,0-.28-.16-.42-.38-.42-.59v-.13c0,.21,2.88.21,2.88,0Z"/>
        <path class="cls-7" d="M82.52,83.1c.56-.32,1.48-.32,2.04,0,.56.32.56.85,0,1.18-.56.32-1.48.32-2.04,0-.57-.32-.57-.85,0-1.18Z"/>
      </g>
      <g>
        <path class="cls-1" d="M82.6,83.86c.52.3,1.36.3,1.87,0,.26-.15.39-.35.39-.54v.38c0,.2-.13.39-.39.54-.51.3-1.35.3-1.87,0-.25-.15-.38-.34-.38-.54v-.38c0,.19.13.39.38.54Z"/>
        <path class="cls-6" d="M82.6,82.77c.52-.3,1.36-.3,1.87,0,.52.3.52.78,0,1.08-.51.3-1.35.3-1.87,0-.51-.3-.51-.78,0-1.08Z"/>
      </g>
      <g>
        <path class="cls-3" d="M84.98,83.31v.13c0,.22-.14.43-.42.59-.56.33-1.48.33-2.04,0-.28-.16-.42-.37-.42-.59v-.13c0,.21,2.88.21,2.88,0Z"/>
        <path class="cls-7" d="M82.52,82.72c.56-.32,1.48-.32,2.04,0,.56.32.56.85,0,1.18-.56.32-1.48.32-2.04,0-.57-.32-.57-.85,0-1.18Z"/>
      </g>
      <g>
        <path class="cls-1" d="M82.6,83.44c.52.3,1.36.3,1.87,0,.26-.15.39-.35.39-.54v.38c0,.19-.13.39-.39.54-.51.3-1.35.3-1.87,0-.25-.15-.38-.35-.38-.54v-.38c0,.2.13.39.38.54Z"/>
        <path class="cls-6" d="M82.6,82.35c.52-.3,1.36-.3,1.87,0,.52.3.52.78,0,1.08-.51.3-1.35.3-1.87,0-.51-.3-.51-.78,0-1.08Z"/>
      </g>
      <g>
        <path class="cls-3" d="M84.98,82.89v.14c0,.21-.14.43-.42.58-.56.33-1.48.33-2.04,0-.29-.16-.43-.38-.43-.58v-.14c0,.21,2.88.21,2.88,0Z"/>
        <path class="cls-7" d="M82.52,82.3c.56-.32,1.48-.32,2.04,0,.56.32.56.85,0,1.18-.56.32-1.48.33-2.04,0-.57-.33-.57-.86,0-1.18Z"/>
      </g>
      <g>
        <path class="cls-1" d="M82.6,83.05c.52.3,1.36.3,1.87,0,.26-.15.39-.34.39-.54v.38c0,.2-.13.39-.39.54-.51.3-1.35.3-1.87,0-.25-.15-.38-.35-.38-.54v-.38c0,.2.13.39.38.54Z"/>
        <path class="cls-6" d="M82.6,81.97c.52-.3,1.36-.3,1.87,0,.52.3.52.78,0,1.08-.51.3-1.35.3-1.87,0-.51-.3-.51-.78,0-1.08Z"/>
      </g>
      <g>
        <path class="cls-3" d="M84.98,82.51v.13c0,.21-.14.43-.42.59-.56.32-1.48.32-2.04,0-.29-.17-.43-.38-.43-.59v-.13c0,.21,2.88.21,2.88,0Z"/>
        <path class="cls-7" d="M82.52,81.92c.56-.32,1.48-.32,2.04,0,.56.33.56.86,0,1.18-.56.33-1.48.33-2.04,0-.57-.32-.57-.85,0-1.18Z"/>
      </g>
      <g>
        <path class="cls-1" d="M82.6,82.67c.52.3,1.36.3,1.87,0,.26-.15.39-.34.39-.54v.38c0,.2-.13.39-.39.54-.51.3-1.35.3-1.87,0-.25-.15-.38-.34-.38-.54v-.38c0,.2.13.39.38.54Z"/>
        <path class="cls-6" d="M82.6,81.59c.52-.3,1.36-.3,1.87,0,.52.3.52.78,0,1.08-.51.3-1.35.3-1.87,0-.51-.3-.51-.78,0-1.08Z"/>
      </g>
      <g>
        <path class="cls-3" d="M84.98,82.13v.13c0,.21-.14.43-.42.59-.56.32-1.48.32-2.04,0-.29-.16-.43-.38-.43-.59v-.13c0,.21,2.88.21,2.88,0Z"/>
        <path class="cls-7" d="M82.52,81.54c.56-.32,1.48-.32,2.04,0,.56.32.56.85,0,1.17-.56.33-1.48.33-2.04,0-.57-.32-.57-.85,0-1.17Z"/>
      </g>
      <g>
        <path class="cls-1" d="M82.6,82.29c.52.29,1.36.29,1.87,0,.26-.15.39-.35.39-.54v.38c0,.2-.13.39-.39.54-.51.3-1.35.3-1.87,0-.25-.15-.38-.34-.38-.54v-.38c0,.19.13.39.38.54Z"/>
        <path class="cls-6" d="M82.6,81.21c.52-.3,1.36-.3,1.87,0,.52.3.52.78,0,1.08-.51.29-1.35.29-1.87,0-.51-.3-.51-.78,0-1.08Z"/>
      </g>
      <g>
        <path class="cls-3" d="M84.98,81.75v.14c0,.21-.14.42-.42.59-.56.33-1.48.33-2.04,0-.29-.16-.43-.38-.43-.59v-.14c0,.21,2.88.21,2.88,0Z"/>
        <path class="cls-7" d="M82.52,81.16c.56-.32,1.48-.32,2.04,0,.56.32.56.85,0,1.18-.56.33-1.48.33-2.04,0-.57-.33-.57-.86,0-1.18Z"/>
      </g>
      <g>
        <path class="cls-8" d="M83.02,80.69c.27.16.71.16.99,0,.14-.08.21-.19.21-.29v1.32c0,.1-.07.21-.21.28-.28.16-.71.16-.99,0-.13-.08-.2-.18-.2-.28v-1.32c0,.1.07.21.2.29Z"/>
        <path class="cls-6" d="M83.02,80.11c.27-.16.71-.16.99,0,.27.16.27.41,0,.57-.28.16-.71.16-.99,0-.27-.16-.27-.41,0-.57Z"/>
      </g>
      <g>
        <path class="cls-3" d="M83.68,79.37v1.02s-.02.05-.06.07c-.06.04-.16.04-.23,0-.03-.02-.04-.05-.04-.07v-1.02s.33.03.33,0Z"/>
        <path class="cls-7" d="M83.4,79.3c.07-.04.17-.04.23,0,.07.04.07.1,0,.14-.06.03-.16.03-.23,0-.06-.04-.06-.1,0-.14Z"/>
      </g>
    </g>
    <g>
      <path class="cls-6" d="M92.64,77.74c.52-.3,1.36-.3,1.87,0,.52.3.52.78,0,1.08-.51.3-1.35.3-1.87,0-.52-.3-.52-.78,0-1.08Z"/>
      <g>
        <path class="cls-3" d="M95.02,78.28v.13c0,.21-.14.42-.42.59-.56.32-1.48.32-2.04,0-.28-.17-.43-.38-.43-.59v-.13c0,.21,2.89.21,2.89,0Z"/>
        <path class="cls-7" d="M92.56,77.69c.56-.33,1.47-.33,2.04,0,.56.33.56.85,0,1.18-.56.32-1.48.32-2.04,0-.57-.32-.57-.85,0-1.18Z"/>
      </g>
      <g>
        <path class="cls-1" d="M92.64,78.44c.52.29,1.36.29,1.87,0,.26-.15.39-.35.39-.54v.38c0,.19-.13.39-.39.54-.51.3-1.35.3-1.87,0-.26-.15-.39-.35-.39-.54v-.38c0,.19.13.39.39.54Z"/>
        <path class="cls-6" d="M92.64,77.36c.52-.3,1.36-.3,1.87,0,.52.3.52.78,0,1.08-.51.29-1.35.29-1.87,0-.52-.3-.52-.78,0-1.08Z"/>
      </g>
      <g>
        <path class="cls-3" d="M95.02,77.9v.14c0,.21-.14.43-.42.59-.56.33-1.48.33-2.04,0-.28-.16-.43-.37-.43-.59v-.14c0,.21,2.89.21,2.89,0Z"/>
        <path class="cls-7" d="M92.56,77.31c.56-.32,1.47-.32,2.04,0,.56.32.56.85,0,1.18-.56.32-1.48.32-2.04,0-.57-.32-.57-.85,0-1.18Z"/>
      </g>
      <g>
        <path class="cls-1" d="M92.64,78.06c.52.3,1.36.3,1.87,0,.26-.15.39-.35.39-.54v.38c0,.19-.13.39-.39.54-.51.29-1.35.29-1.87,0-.26-.15-.39-.35-.39-.54v-.38c0,.19.13.39.39.54Z"/>
        <path class="cls-6" d="M92.64,76.98c.52-.3,1.36-.3,1.87,0,.52.3.52.78,0,1.08-.51.3-1.35.3-1.87,0-.52-.3-.52-.78,0-1.08Z"/>
      </g>
      <g>
        <path class="cls-3" d="M95.02,77.51v.13c0,.21-.14.43-.42.59-.56.32-1.48.32-2.04,0-.28-.16-.43-.38-.43-.59v-.13c0,.21,2.89.21,2.89,0Z"/>
        <path class="cls-7" d="M92.56,76.93c.56-.32,1.47-.32,2.04,0,.56.32.56.85,0,1.18-.56.32-1.48.32-2.04,0-.57-.33-.57-.86,0-1.18Z"/>
      </g>
      <g>
        <path class="cls-1" d="M92.64,77.64c.52.3,1.36.3,1.87,0,.26-.15.39-.34.39-.54v.38c0,.2-.13.39-.39.54-.51.3-1.35.3-1.87,0-.26-.15-.38-.34-.38-.54v-.38c0,.2.13.39.38.54Z"/>
        <path class="cls-6" d="M92.64,76.56c.52-.3,1.36-.3,1.87,0,.52.3.52.78,0,1.08-.51.3-1.35.3-1.87,0-.52-.3-.52-.78,0-1.08Z"/>
      </g>
      <g>
        <path class="cls-3" d="M95.02,77.1v.13c0,.21-.14.43-.42.59-.56.32-1.48.32-2.04,0-.28-.17-.43-.38-.43-.59v-.13c0,.21,2.89.21,2.89,0Z"/>
        <path class="cls-7" d="M92.56,76.51c.56-.32,1.47-.32,2.04,0,.56.33.56.85,0,1.18-.56.32-1.48.33-2.04,0-.57-.33-.57-.85,0-1.18Z"/>
      </g>
      <g>
        <path class="cls-1" d="M92.64,77.26c.52.3,1.36.3,1.87,0,.26-.15.39-.35.39-.54v.38c0,.2-.13.39-.39.54-.51.3-1.35.3-1.87,0-.26-.15-.38-.34-.38-.54v-.38c0,.19.13.4.38.54Z"/>
        <path class="cls-6" d="M92.64,76.18c.52-.3,1.36-.3,1.87,0,.52.3.52.78,0,1.08-.51.3-1.35.3-1.87,0-.52-.3-.52-.78,0-1.08Z"/>
      </g>
      <g>
        <path class="cls-3" d="M95.02,76.72v.13c0,.21-.14.43-.42.59-.56.32-1.48.32-2.04,0-.28-.17-.43-.38-.43-.59v-.13c0,.21,2.89.21,2.89,0Z"/>
        <path class="cls-7" d="M92.56,76.12c.56-.32,1.47-.32,2.04,0,.56.33.56.85,0,1.18-.56.32-1.48.32-2.04,0-.57-.32-.57-.85,0-1.18Z"/>
      </g>
      <g>
        <path class="cls-1" d="M92.64,76.87c.52.3,1.36.3,1.87,0,.26-.15.39-.34.39-.54v.38c0,.19-.13.4-.39.54-.51.3-1.35.3-1.87,0-.26-.15-.38-.35-.38-.54v-.38c0,.2.13.39.38.54Z"/>
        <path class="cls-6" d="M92.64,75.79c.52-.3,1.36-.3,1.87,0,.52.3.52.78,0,1.08-.51.3-1.35.3-1.87,0-.52-.3-.52-.78,0-1.08Z"/>
      </g>
      <g>
        <path class="cls-3" d="M95.02,76.33v.13c0,.21-.14.43-.42.59-.56.33-1.48.33-2.04,0-.28-.16-.43-.38-.43-.59v-.13c0,.21,2.89.21,2.89,0Z"/>
        <path class="cls-7" d="M92.56,75.74c.56-.32,1.47-.32,2.04,0,.56.33.56.85,0,1.18-.56.32-1.48.32-2.04,0-.57-.33-.57-.85,0-1.18Z"/>
      </g>
      <g>
        <path class="cls-1" d="M92.64,76.49c.52.3,1.36.3,1.87,0,.26-.15.39-.34.39-.54v.38c0,.2-.13.39-.39.54-.51.3-1.35.3-1.87,0-.26-.15-.38-.34-.38-.54v-.38c0,.19.13.39.38.54Z"/>
        <path class="cls-6" d="M92.64,75.41c.52-.3,1.36-.3,1.87,0,.52.3.52.78,0,1.08-.51.3-1.35.3-1.87,0-.52-.3-.52-.78,0-1.08Z"/>
      </g>
      <g>
        <path class="cls-3" d="M95.02,75.95v.13c0,.21-.14.43-.42.59-.56.33-1.48.33-2.04,0-.28-.16-.43-.37-.43-.59v-.13c0,.21,2.89.21,2.89,0Z"/>
        <path class="cls-7" d="M92.56,75.36c.56-.32,1.47-.32,2.04,0,.56.32.56.85,0,1.18-.56.33-1.48.33-2.04,0-.57-.33-.57-.86,0-1.18Z"/>
      </g>
      <g>
        <path class="cls-8" d="M93.06,74.89c.27.16.71.16.99,0,.14-.08.21-.18.21-.29v1.33c0,.1-.07.2-.21.28-.28.16-.72.16-.99,0-.14-.08-.2-.18-.2-.28v-1.33c0,.1.07.21.2.29Z"/>
        <path class="cls-6" d="M93.06,74.32c.27-.16.71-.16.99,0,.27.16.27.41,0,.57-.28.16-.72.16-.99,0-.27-.16-.27-.41,0-.57Z"/>
      </g>
      <g>
        <path class="cls-3" d="M93.72,73.57v1.02s-.01.05-.05.06c-.06.04-.16.04-.23,0-.03-.02-.04-.04-.04-.06v-1.02s.33.02.33,0Z"/>
        <path class="cls-7" d="M93.44,73.51c.06-.04.17-.04.23,0,.07.04.07.1,0,.14-.06.04-.16.04-.23,0-.06-.04-.06-.1,0-.14Z"/>
      </g>
    </g>
    <path class="cls-1" d="M93.56,73.73h0c-.1,0-.17-.07-.17-.16s.07-.17.17-.17,9.91-.1,22.38-8.72c.07-.05.18-.03.23.04.05.07.03.18-.04.22-12.56,8.68-22.46,8.78-22.56,8.78Z"/>
    <path class="cls-1" d="M62.6,95.82c-.06,0-.12-.03-.15-.09-.04-.08,0-.18.08-.22.14-.06,13.54-6.93,20.86-16.26.05-.07.15-.08.23-.03.07.06.08.16.03.23-7.36,9.39-20.83,16.29-20.96,16.36-.02.01-.05.02-.07.02Z"/>
  </g>
  <g>
    <g>
      <polygon class="cls-2" points="89.33 49.01 68.51 24.19 67.86 24.57 86.74 47.52 68.51 36.99 67.86 37.37 68.51 38.39 93.59 52.87 94.12 53.93 94.77 53.55 94.77 52.15 89.33 49.01"/>
      <polygon class="cls-8" points="88.67 49.39 67.86 24.57 67.86 26.17 86.09 47.89 67.86 37.37 67.86 38.77 94.12 53.93 94.12 52.53 88.67 49.39"/>
    </g>
    <g>
      <polygon class="cls-2" points="78.75 55.08 57.93 30.26 57.28 30.64 76.16 53.58 57.93 43.05 57.28 43.43 57.93 44.46 83.01 58.94 83.54 60 84.19 59.62 84.19 58.21 78.75 55.08"/>
      <polygon class="cls-8" points="78.1 55.45 57.28 30.64 57.28 32.23 75.5 53.95 57.28 43.43 57.28 44.84 83.54 60 83.54 58.59 78.1 55.45"/>
    </g>
    <g>
      <polygon class="cls-2" points="94.77 52.15 93.02 53.93 86.23 57.89 83.54 58.59 82.36 57.91 93.59 51.47 94.77 52.15"/>
      <polygon class="cls-5" points="94.77 53.55 83.54 60 83.54 58.59 94.77 52.15 94.77 53.55"/>
    </g>
    <g>
      <path class="cls-6" d="M82.6,57.11c.52-.3,1.36-.3,1.87,0,.52.3.52.78,0,1.08-.51.3-1.35.3-1.87,0-.51-.3-.51-.78,0-1.08Z"/>
      <g>
        <path class="cls-3" d="M84.98,57.65v.14c0,.21-.14.42-.42.59-.56.32-1.48.32-2.04,0-.28-.17-.42-.38-.42-.59v-.14c0,.21,2.88.21,2.88,0Z"/>
        <path class="cls-7" d="M82.52,57.06c.56-.32,1.48-.32,2.04,0,.56.32.56.86,0,1.18-.56.32-1.48.32-2.04,0-.57-.32-.57-.85,0-1.18Z"/>
      </g>
      <g>
        <path class="cls-1" d="M82.6,57.81c.52.3,1.36.3,1.87,0,.26-.15.39-.34.39-.54v.38c0,.2-.13.39-.39.54-.51.3-1.35.3-1.87,0-.25-.15-.38-.35-.38-.54v-.38c0,.2.13.39.38.54Z"/>
        <path class="cls-6" d="M82.6,56.73c.52-.3,1.36-.3,1.87,0,.52.3.52.78,0,1.08-.51.3-1.35.3-1.87,0-.51-.3-.51-.78,0-1.08Z"/>
      </g>
      <g>
        <path class="cls-3" d="M84.98,57.27v.13c0,.21-.14.43-.42.59-.56.33-1.48.33-2.04,0-.28-.16-.42-.38-.42-.59v-.13c0,.21,2.88.21,2.88,0Z"/>
        <path class="cls-7" d="M82.52,56.68c.56-.32,1.48-.32,2.04,0,.56.33.56.85,0,1.18-.56.33-1.48.33-2.04,0-.57-.32-.57-.85,0-1.18Z"/>
      </g>
      <g>
        <path class="cls-1" d="M82.6,57.43c.52.3,1.36.3,1.87,0,.26-.15.39-.34.39-.54v.38c0,.2-.13.39-.39.54-.51.3-1.35.3-1.87,0-.25-.15-.38-.34-.38-.54v-.38c0,.2.13.39.38.54Z"/>
        <path class="cls-6" d="M82.6,56.35c.52-.3,1.36-.3,1.87,0,.52.3.52.78,0,1.08-.51.3-1.35.3-1.87,0-.51-.3-.51-.78,0-1.08Z"/>
      </g>
      <g>
        <path class="cls-3" d="M84.98,56.89v.13c0,.22-.14.43-.42.59-.56.33-1.48.33-2.04,0-.28-.16-.42-.37-.42-.59v-.13c0,.21,2.88.21,2.88,0Z"/>
        <path class="cls-7" d="M82.52,56.3c.56-.32,1.48-.32,2.04,0,.56.32.56.85,0,1.18-.56.32-1.48.32-2.04,0-.57-.33-.57-.86,0-1.18Z"/>
      </g>
      <g>
        <path class="cls-1" d="M82.6,57.01c.52.3,1.36.3,1.87,0,.26-.15.39-.35.39-.54v.39c0,.19-.13.39-.39.53-.51.3-1.35.3-1.87,0-.25-.15-.38-.34-.38-.53v-.39c0,.19.13.39.38.54Z"/>
        <path class="cls-6" d="M82.6,55.93c.52-.3,1.36-.3,1.87,0,.52.3.52.78,0,1.07-.51.3-1.35.3-1.87,0-.51-.3-.51-.78,0-1.07Z"/>
      </g>
      <g>
        <path class="cls-3" d="M84.98,56.47v.13c0,.21-.14.43-.42.59-.56.32-1.48.32-2.04,0-.29-.16-.43-.38-.43-.59v-.13c0,.21,2.88.21,2.88,0Z"/>
        <path class="cls-7" d="M82.52,55.88c.56-.32,1.48-.32,2.04,0,.56.33.56.86,0,1.18-.56.33-1.48.33-2.04,0-.57-.32-.57-.85,0-1.18Z"/>
      </g>
      <g>
        <path class="cls-1" d="M82.6,56.63c.52.3,1.36.3,1.87,0,.26-.15.39-.35.39-.54v.38c0,.19-.13.39-.39.54-.51.3-1.35.3-1.87,0-.25-.15-.38-.35-.38-.54v-.38c0,.19.13.39.38.54Z"/>
        <path class="cls-6" d="M82.6,55.55c.52-.3,1.36-.3,1.87,0,.52.29.52.78,0,1.08-.51.3-1.35.3-1.87,0-.51-.3-.51-.78,0-1.08Z"/>
      </g>
      <g>
        <path class="cls-3" d="M84.98,56.09v.14c0,.21-.14.43-.42.59-.56.33-1.48.33-2.04,0-.29-.16-.43-.38-.43-.59v-.14c0,.22,2.88.22,2.88,0Z"/>
        <path class="cls-7" d="M82.52,55.5c.56-.32,1.48-.32,2.04,0,.56.33.56.85,0,1.18-.56.32-1.48.32-2.04,0-.57-.33-.57-.85,0-1.18Z"/>
      </g>
      <g>
        <path class="cls-1" d="M82.6,56.25c.52.3,1.36.3,1.87,0,.26-.14.39-.34.39-.54v.38c0,.19-.13.39-.39.54-.51.3-1.35.3-1.87,0-.25-.15-.38-.35-.38-.54v-.38c0,.2.13.39.38.54Z"/>
        <path class="cls-6" d="M82.6,55.17c.52-.3,1.36-.3,1.87,0,.52.3.52.78,0,1.08-.51.3-1.35.3-1.87,0-.51-.3-.51-.78,0-1.08Z"/>
      </g>
      <g>
        <path class="cls-3" d="M84.98,55.7v.13c0,.21-.14.43-.42.59-.56.32-1.48.32-2.04,0-.29-.17-.43-.38-.43-.59v-.13c0,.22,2.88.22,2.88,0Z"/>
        <path class="cls-7" d="M82.52,55.11c.56-.32,1.48-.32,2.04,0,.56.33.56.86,0,1.18-.56.32-1.48.32-2.04,0-.57-.32-.57-.85,0-1.18Z"/>
      </g>
      <g>
        <path class="cls-1" d="M82.6,55.86c.52.3,1.36.3,1.87,0,.26-.14.39-.34.39-.54v.38c0,.2-.13.39-.39.54-.51.3-1.35.3-1.87,0-.25-.14-.38-.34-.38-.54v-.38c0,.19.13.39.38.54Z"/>
        <path class="cls-6" d="M82.6,54.79c.52-.3,1.36-.3,1.87,0,.52.3.52.78,0,1.08-.51.3-1.35.3-1.87,0-.51-.3-.51-.78,0-1.08Z"/>
      </g>
      <g>
        <path class="cls-3" d="M84.98,55.32v.13c0,.21-.14.43-.42.59-.56.32-1.48.32-2.04,0-.29-.17-.43-.38-.43-.59v-.13c0,.22,2.88.22,2.88,0Z"/>
        <path class="cls-7" d="M82.52,54.73c.56-.32,1.48-.32,2.04,0,.56.32.56.85,0,1.18-.56.32-1.48.32-2.04,0-.57-.32-.57-.86,0-1.18Z"/>
      </g>
      <g>
        <path class="cls-8" d="M83.02,54.26c.27.16.71.16.99,0,.14-.08.21-.18.21-.28v1.33c0,.1-.07.21-.21.29-.28.16-.71.16-.99,0-.13-.08-.2-.18-.2-.29v-1.33c0,.11.07.21.2.28Z"/>
        <path class="cls-6" d="M83.02,53.69c.27-.16.71-.16.99,0,.27.16.27.41,0,.57-.28.16-.71.16-.99,0-.27-.15-.27-.41,0-.57Z"/>
      </g>
      <g>
        <path class="cls-3" d="M83.68,52.95v1.02s-.02.05-.06.07c-.06.03-.16.03-.23,0-.03-.02-.04-.04-.04-.07v-1.02s.33.02.33,0Z"/>
        <path class="cls-7" d="M83.4,52.88c.07-.04.17-.04.23,0,.07.04.07.1,0,.13-.06.04-.16.04-.23,0-.06-.03-.06-.09,0-.13Z"/>
      </g>
    </g>
    <g>
      <path class="cls-6" d="M92.64,51.31c.52-.29,1.36-.29,1.87,0,.52.3.52.78,0,1.08-.51.3-1.35.3-1.87,0-.52-.3-.52-.78,0-1.08Z"/>
      <g>
        <path class="cls-3" d="M95.02,51.86v.13c0,.21-.14.43-.42.59-.56.32-1.48.32-2.04,0-.28-.17-.43-.38-.43-.59v-.13c0,.21,2.89.21,2.89,0Z"/>
        <path class="cls-7" d="M92.56,51.27c.56-.33,1.47-.33,2.04,0,.56.33.56.86,0,1.18-.56.33-1.48.33-2.04,0-.57-.32-.57-.85,0-1.18Z"/>
      </g>
      <g>
        <path class="cls-1" d="M92.64,52.01c.52.3,1.36.3,1.87,0,.26-.15.39-.34.39-.54v.38c0,.2-.13.39-.39.54-.51.3-1.35.3-1.87,0-.26-.15-.39-.34-.39-.54v-.38c0,.2.13.4.39.54Z"/>
        <path class="cls-6" d="M92.64,50.93c.52-.3,1.36-.3,1.87,0,.52.3.52.78,0,1.08-.51.3-1.35.3-1.87,0-.52-.3-.52-.78,0-1.08Z"/>
      </g>
      <g>
        <path class="cls-3" d="M95.02,51.47v.13c0,.21-.14.43-.42.59-.56.33-1.48.33-2.04,0-.28-.16-.43-.37-.43-.59v-.13c0,.22,2.89.22,2.89,0Z"/>
        <path class="cls-7" d="M92.56,50.88c.56-.32,1.47-.32,2.04,0,.56.33.56.86,0,1.18-.56.33-1.48.33-2.04,0-.57-.32-.57-.85,0-1.18Z"/>
      </g>
      <g>
        <path class="cls-1" d="M92.64,51.63c.52.3,1.36.3,1.87,0,.26-.15.39-.34.39-.54v.38c0,.2-.13.4-.39.54-.51.3-1.35.3-1.87,0-.26-.15-.39-.34-.39-.54v-.38c0,.2.13.39.39.54Z"/>
        <path class="cls-6" d="M92.64,50.55c.52-.3,1.36-.3,1.87,0,.52.3.52.78,0,1.08-.51.3-1.35.3-1.87,0-.52-.3-.52-.78,0-1.08Z"/>
      </g>
      <g>
        <path class="cls-3" d="M95.02,51.09v.13c0,.21-.14.43-.42.59-.56.32-1.48.32-2.04,0-.28-.17-.43-.38-.43-.59v-.13c0,.21,2.89.21,2.89,0Z"/>
        <path class="cls-7" d="M92.56,50.5c.56-.33,1.47-.33,2.04,0,.56.32.56.85,0,1.18-.56.32-1.48.33-2.04,0-.57-.33-.57-.85,0-1.18Z"/>
      </g>
      <g>
        <path class="cls-1" d="M92.64,51.22c.52.3,1.36.3,1.87,0,.26-.15.39-.35.39-.54v.38c0,.19-.13.39-.39.54-.51.3-1.35.3-1.87,0-.26-.15-.38-.35-.38-.54v-.38c0,.19.13.39.38.54Z"/>
        <path class="cls-6" d="M92.64,50.14c.52-.3,1.36-.3,1.87,0,.52.3.52.78,0,1.08-.51.3-1.35.3-1.87,0-.52-.3-.52-.78,0-1.08Z"/>
      </g>
      <g>
        <path class="cls-3" d="M95.02,50.68v.13c0,.21-.14.43-.42.59-.56.32-1.48.32-2.04,0-.28-.16-.43-.38-.43-.59v-.13c0,.21,2.89.21,2.89,0Z"/>
        <path class="cls-7" d="M92.56,50.09c.56-.32,1.47-.32,2.04,0,.56.32.56.85,0,1.18-.56.32-1.48.32-2.04,0-.57-.32-.57-.85,0-1.18Z"/>
      </g>
      <g>
        <path class="cls-1" d="M92.64,50.83c.52.3,1.36.3,1.87,0,.26-.15.39-.35.39-.54v.38c0,.19-.13.39-.39.54-.51.3-1.35.3-1.87,0-.26-.15-.38-.35-.38-.54v-.38c0,.19.13.39.38.54Z"/>
        <path class="cls-6" d="M92.64,49.75c.52-.3,1.36-.3,1.87,0,.52.3.52.79,0,1.08-.51.3-1.35.3-1.87,0-.52-.29-.52-.78,0-1.08Z"/>
      </g>
      <g>
        <path class="cls-3" d="M95.02,50.29v.14c0,.21-.14.43-.42.59-.56.32-1.48.32-2.04,0-.28-.16-.43-.37-.43-.59v-.14c0,.22,2.89.22,2.89,0Z"/>
        <path class="cls-7" d="M92.56,49.71c.56-.33,1.47-.33,2.04,0,.56.32.56.85,0,1.18-.56.32-1.48.32-2.04,0-.57-.32-.57-.85,0-1.18Z"/>
      </g>
      <g>
        <path class="cls-1" d="M92.64,50.45c.52.3,1.36.3,1.87,0,.26-.15.39-.35.39-.54v.38c0,.19-.13.39-.39.54-.51.3-1.35.3-1.87,0-.26-.15-.38-.35-.38-.54v-.38c0,.19.13.39.38.54Z"/>
        <path class="cls-6" d="M92.64,49.37c.52-.29,1.36-.29,1.87,0,.52.3.52.78,0,1.08-.51.3-1.35.3-1.87,0-.52-.3-.52-.78,0-1.08Z"/>
      </g>
      <g>
        <path class="cls-3" d="M95.02,49.91v.14c0,.21-.14.42-.42.59-.56.32-1.48.32-2.04,0-.28-.17-.43-.38-.43-.59v-.14c0,.22,2.89.22,2.89,0Z"/>
        <path class="cls-7" d="M92.56,49.32c.56-.33,1.47-.33,2.04,0,.56.32.56.85,0,1.18-.56.32-1.48.32-2.04,0-.57-.32-.57-.85,0-1.18Z"/>
      </g>
      <g>
        <path class="cls-1" d="M92.64,50.07c.52.3,1.36.3,1.87,0,.26-.15.39-.34.39-.53v.38c0,.19-.13.39-.39.54-.51.3-1.35.3-1.87,0-.26-.15-.38-.35-.38-.54v-.38c0,.19.13.39.38.53Z"/>
        <path class="cls-6" d="M92.64,48.99c.52-.3,1.36-.3,1.87,0,.52.3.52.78,0,1.08-.51.3-1.35.3-1.87,0-.52-.29-.52-.78,0-1.08Z"/>
      </g>
      <g>
        <path class="cls-3" d="M95.02,49.53v.13c0,.22-.14.43-.42.59-.56.32-1.48.32-2.04,0-.28-.16-.43-.37-.43-.59v-.13c0,.21,2.89.21,2.89,0Z"/>
        <path class="cls-7" d="M92.56,48.94c.56-.32,1.47-.32,2.04,0,.56.33.56.85,0,1.18-.56.32-1.48.32-2.04,0-.57-.33-.57-.85,0-1.18Z"/>
      </g>
      <g>
        <path class="cls-8" d="M93.06,48.46c.27.16.71.16.99,0,.14-.08.21-.18.21-.28v1.33c0,.1-.07.21-.21.29-.28.16-.72.16-.99,0-.14-.08-.2-.19-.2-.29v-1.33c0,.1.07.21.2.28Z"/>
        <path class="cls-6" d="M93.06,47.89c.27-.15.71-.15.99,0,.27.16.27.41,0,.57-.28.16-.72.16-.99,0-.27-.16-.27-.41,0-.57Z"/>
      </g>
      <g>
        <path class="cls-3" d="M93.72,47.15v1.03s-.01.05-.05.07c-.06.03-.16.03-.23,0-.03-.02-.04-.04-.04-.07v-1.03s.33.03.33,0Z"/>
        <path class="cls-7" d="M93.44,47.08c.06-.04.17-.04.23,0,.07.04.07.1,0,.13-.06.04-.16.04-.23,0-.06-.04-.06-.1,0-.13Z"/>
      </g>
    </g>
    <path class="cls-1" d="M93.56,47.31h0c-.1,0-.17-.07-.17-.17,0-.09.07-.16.17-.16s9.91-.11,22.38-8.72c.07-.05.18-.03.23.04.05.08.03.18-.04.23-12.56,8.68-22.46,8.78-22.56,8.78Z"/>
    <path class="cls-1" d="M62.6,69.4c-.06,0-.12-.03-.15-.09-.04-.08,0-.18.08-.22.14-.07,13.54-6.94,20.86-16.27.05-.07.15-.09.23-.03.07.05.08.16.03.23-7.36,9.39-20.83,16.28-20.96,16.35-.02.01-.05.02-.07.02Z"/>
  </g>
</svg>