<?xml version="1.0" encoding="UTF-8"?>
<svg id="Layer_3" data-name="Layer 3" xmlns="http://www.w3.org/2000/svg" xmlns:xlink="http://www.w3.org/1999/xlink" viewBox="0 0 144.34 165.37">
  <defs>
    <style>
      .cls-1 {
        fill: #ecc536;
      }

      .cls-2 {
        fill: #57bf55;
      }

      .cls-3 {
        fill: url(#linear-gradient-8);
      }

      .cls-4 {
        fill: url(#linear-gradient-7);
      }

      .cls-5 {
        fill: url(#linear-gradient-5);
      }

      .cls-6 {
        fill: url(#linear-gradient-6);
      }

      .cls-7 {
        fill: url(#linear-gradient-9);
      }

      .cls-8 {
        fill: url(#linear-gradient-4);
      }

      .cls-9 {
        fill: url(#linear-gradient-3);
      }

      .cls-10 {
        fill: url(#linear-gradient-2);
      }

      .cls-11 {
        fill: #f4bd12;
      }

      .cls-12 {
        fill: #0662ab;
      }

      .cls-13 {
        fill: url(#linear-gradient);
      }

      .cls-14 {
        fill: #063261;
      }

      .cls-15 {
        fill: #0a4e98;
      }

      .cls-16 {
        isolation: isolate;
      }

      .cls-17 {
        fill: #522e16;
      }

      .cls-18 {
        fill: #bf6b34;
      }

      .cls-19 {
        fill: #263263;
      }

      .cls-20 {
        fill: #fff;
      }

      .cls-21 {
        fill: #6d3e1e;
      }

      .cls-22 {
        fill: url(#linear-gradient-10);
      }

      .cls-23 {
        fill: url(#linear-gradient-11);
      }

      .cls-24 {
        fill: url(#linear-gradient-12);
      }

      .cls-25 {
        fill: #4459b0;
      }

      .cls-26 {
        fill: #f19902;
      }

      .cls-27 {
        fill: #945328;
      }

      .cls-28 {
        fill: #384991;
      }

      .cls-29 {
        fill: #a65d2d;
      }

      .cls-30 {
        fill: #f7ce39;
      }

      .cls-31 {
        fill: #f4bc12;
      }
    </style>
    <linearGradient id="linear-gradient" x1="63.07" y1="104.24" x2="66.47" y2="98.34" gradientUnits="userSpaceOnUse">
      <stop offset=".18" stop-color="#f5c516"/>
      <stop offset=".87" stop-color="#f5c516"/>
    </linearGradient>
    <linearGradient id="linear-gradient-2" x1="41.7" y1="137.21" x2="61.32" y2="103.22" gradientUnits="userSpaceOnUse">
      <stop offset=".18" stop-color="#f09400"/>
      <stop offset=".87" stop-color="#f5c516"/>
    </linearGradient>
    <linearGradient id="linear-gradient-3" x1="43.74" y1="138.39" x2="63.36" y2="104.4" gradientUnits="userSpaceOnUse">
      <stop offset=".18" stop-color="#f09400"/>
      <stop offset=".87" stop-color="#f4bd12"/>
    </linearGradient>
    <linearGradient id="linear-gradient-4" x1="65.02" y1="35.51" x2="68.42" y2="29.62" xlink:href="#linear-gradient"/>
    <linearGradient id="linear-gradient-5" x1="43.65" y1="68.49" x2="63.28" y2="34.49" xlink:href="#linear-gradient-2"/>
    <linearGradient id="linear-gradient-6" x1="45.69" y1="69.66" x2="65.31" y2="35.68" xlink:href="#linear-gradient-3"/>
    <linearGradient id="linear-gradient-7" x1="116.65" y1="9.12" x2="120.05" y2="3.23" xlink:href="#linear-gradient"/>
    <linearGradient id="linear-gradient-8" x1="95.28" y1="42.09" x2="114.91" y2="8.1" xlink:href="#linear-gradient-2"/>
    <linearGradient id="linear-gradient-9" x1="97.32" y1="43.27" x2="116.94" y2="9.29" xlink:href="#linear-gradient-3"/>
    <linearGradient id="linear-gradient-10" x1="109.56" y1="26.3" x2="112.96" y2="20.41" xlink:href="#linear-gradient"/>
    <linearGradient id="linear-gradient-11" x1="88.19" y1="59.28" x2="107.81" y2="25.28" xlink:href="#linear-gradient-2"/>
    <linearGradient id="linear-gradient-12" x1="90.23" y1="60.45" x2="109.85" y2="26.47" xlink:href="#linear-gradient-3"/>
  </defs>
  <g>
    <path class="cls-12" d="M3.92,162.99l20.59-11.89c2.07-1.2,3.76-4.41,3.76-7.18v-22.23c0-2.77-1.68-4.04-3.76-2.84l-20.59,11.89c-2.07,1.2-3.76,4.41-3.76,7.18v22.23c0,2.77,1.68,4.04,3.76,2.84Z"/>
    <polygon class="cls-12" points="30.53 120.75 27.01 118.69 1.56 163.24 4.93 165.18 30.53 120.75"/>
    <path class="cls-2" d="M7.25,164.92l20.59-11.89c2.07-1.2,3.76-4.41,3.76-7.18v-22.23c0-2.77-1.68-4.04-3.76-2.84l-20.59,11.89c-2.07,1.2-3.76,4.41-3.76,7.18v22.23c0,2.77,1.68,4.04,3.76,2.84Z"/>
    <path class="cls-20" d="M18.49,140.98v-5.14c1.1-.61,1.86-.4,2.23-.22l1.9-2.8c-1.16-1.08-2.31-1.12-4.13-.24v-2.35l-1.87,1.08v2.32c-3.08,1.92-4.73,5.54-4.85,8.18-.04,3.06,1.37,4.11,4.29,3.21l.56-.17v4.69c-1.25.7-2.1.48-2.73.07l-2.17,2.97c.86.96,1.98,1.95,4.9.39v2.53l1.87-1.08v-2.56c3.27-2.3,4.7-5.49,4.88-8.04.15-3.94-2.17-3.63-4.88-2.83ZM15.85,142.02c-.95.17-1.5-.15-1.46-1.39,0-.91.52-2.1,1.35-3.1,0,0,.46-.51.89-.75v4.97l-.78.27ZM20.39,146.31c-.36.83-1.05,1.59-1.9,2.16v-4.41c1.01-.39,2.3-.45,2.26.73,0,.46-.13.98-.36,1.52Z"/>
  </g>
  <g>
    <path class="cls-12" d="M3.76,120.58l20.59-11.89c2.07-1.2,3.76-4.41,3.76-7.18v-22.23c0-2.77-1.68-4.04-3.76-2.84l-20.59,11.89c-2.07,1.2-3.76,4.41-3.76,7.18v22.23c0,2.77,1.68,4.04,3.76,2.84Z"/>
    <polygon class="cls-12" points="30.37 78.33 26.85 76.28 1.4 120.83 4.76 122.77 30.37 78.33"/>
    <path class="cls-2" d="M7.09,122.5l20.59-11.89c2.07-1.2,3.76-4.41,3.76-7.18v-22.23c0-2.77-1.68-4.04-3.76-2.84l-20.59,11.89c-2.07,1.2-3.76,4.41-3.76,7.18v22.23c0,2.77,1.68,4.04,3.76,2.84Z"/>
    <path class="cls-20" d="M21.61,97.61c1.67-1.48,2.72-3.61,2.72-5.5,0-2.73-2.17-3.24-5.61-1.33v-1.73l-4.03,2.33v1.73l-4.78,2.76v2.14l1.08-.62v13.84l-1.08.62v2.14l4.78-2.76v1.55l4.03-2.33v-1.55l.05-.03c3.71-2.14,6.08-5.45,6.08-8.55,0-2.32-1.24-3.39-3.24-2.7ZM20.11,95.39c0,1.14-.7,2.21-1.85,2.87l-3.15,1.82v-3.51l3.15-1.82c1.15-.69,1.85-.45,1.85.64ZM18.26,105.49l-3.15,1.82v-3.8l3.15-1.82c1.44-.86,2.34-.65,2.34.48,0,1.24-.9,2.48-2.34,3.31Z"/>
  </g>
  <g>
    <g>
      <path class="cls-14" d="M55.67,84.15c-2.97-.92-5.82-2.21-8.65-3.49-2.5-1.14-5.02-2.26-7.56-3.33,0-1.66,0-2.78,0-2.78l30.4-16.33v17.36l-14.51,8.38.33.19Z"/>
      <path class="cls-21" d="M43.39,50.18v69.01c0,3.19,3.45,5.18,6.21,3.58l65.13-37.6V2.37L49.13,40.24c-3.55,2.05-5.74,5.84-5.74,9.93Z"/>
      <path class="cls-17" d="M46.65,52.06v69.01c0,3.19,3.45,5.18,6.21,3.58l65.13-37.6V4.25L52.38,42.12c-3.55,2.05-5.74,5.84-5.74,9.93Z"/>
      <polygon class="cls-17" points="116.3 3.28 123.93 1.56 132.65 3.28 141.42 9.59 141.42 54.97 109.71 54.97 116.3 3.28"/>
      <path class="cls-27" d="M70.75,137.36l69.49-37.46c5.44-3.14,5.47-8.24.06-11.37l-5.88-3.4c-5.41-3.12-14.24-3.11-19.69.04l-69.24,37.62,3.26,1.88,69.24-37.62c3.64-2.1,9.54-2.11,13.15-.02l5.88,3.4c3.61,2.09,3.6,5.49-.04,7.59l-69.32,37.57,3.09,1.78Z"/>
      <g>
        <g class="cls-16">
          <path class="cls-26" d="M67.99,101.25l3.42,1.99c2.71,1.57,4.39,4.92,4.4,9.67.03,9.57-6.7,21.23-15.03,26.04l-3.42-1.99c8.33-4.81,15.06-16.47,15.03-26.04-.01-4.76-1.69-8.1-4.4-9.67Z"/>
          <path class="cls-26" d="M50.04,139.99l-3.42-1.99c2.74,1.59,6.54,1.37,10.73-1.05l3.42,1.99c-4.19,2.42-7.99,2.65-10.73,1.05Z"/>
          <path class="cls-13" d="M68.87,99.73l3.42,1.99c-2.97-1.73-7.08-1.48-11.62,1.14l-3.42-1.99c4.54-2.62,8.65-2.86,11.62-1.14Z"/>
          <path class="cls-10" d="M49.16,141.51l-3.42-1.99c-2.93-1.7-4.75-5.32-4.76-10.47-.03-10.36,7.26-22.98,16.28-28.19l3.42,1.99c-9.02,5.21-16.3,17.83-16.28,28.19.01,5.15,1.83,8.77,4.76,10.47Z"/>
          <path class="cls-26" d="M60.67,102.85c9.02-5.21,16.35-1.03,16.38,9.34.03,10.36-7.26,22.98-16.27,28.19-9.02,5.21-16.35,1.03-16.38-9.33-.03-10.36,7.26-22.98,16.28-28.19ZM60.77,138.94c8.33-4.81,15.06-16.47,15.03-26.04-.03-9.57-6.8-13.43-15.13-8.62-8.33,4.81-15.06,16.47-15.03,26.04.03,9.57,6.8,13.43,15.13,8.62h0Z"/>
        </g>
        <g class="cls-16">
          <path class="cls-1" d="M70.75,102.85l.65.38c-2.74-1.59-6.54-1.37-10.73,1.05l-.65-.38c4.19-2.42,7.99-2.64,10.73-1.05Z"/>
          <path class="cls-1" d="M50.04,139.99l-.65-.38c-2.71-1.57-4.39-4.92-4.4-9.67-.03-9.57,6.7-21.23,15.03-26.04l.65.38c-8.33,4.81-15.06,16.47-15.03,26.04.01,4.75,1.69,8.1,4.4,9.67Z"/>
          <path class="cls-31" d="M60.67,104.28c8.33-4.81,15.1-.95,15.13,8.62.03,9.57-6.7,21.23-15.03,26.04-8.33,4.81-15.1.95-15.13-8.62-.03-9.57,6.7-21.23,15.03-26.04Z"/>
        </g>
        <g class="cls-16">
          <polygon class="cls-26" points="68.89 131.68 68.24 131.3 67.68 130.63 68.33 131.01 68.89 131.68"/>
          <polygon class="cls-26" points="71.08 125.69 70.43 125.31 70.94 125.5 71.59 125.88 71.08 125.69"/>
          <polygon class="cls-26" points="66.54 129.3 65.89 128.93 65.56 128.46 66.22 128.84 66.54 129.3"/>
          <path class="cls-26" d="M73.15,120.46l-.65-.38c.52-1.86.8-3.66.83-5.37l.65.38c-.03,1.7-.31,3.51-.83,5.37Z"/>
          <polygon class="cls-26" points="63.45 130.86 62.8 130.48 63.43 129.92 64.08 130.3 63.45 130.86"/>
          <polygon class="cls-26" points="63.63 131.51 62.98 131.13 62.8 130.48 63.45 130.86 63.63 131.51"/>
          <polygon class="cls-26" points="71.68 115.66 71.03 115.28 73.32 113.96 73.98 114.34 71.68 115.66"/>
          <polygon class="cls-26" points="56 139.04 55.35 138.66 55.62 137.82 56.27 138.2 56 139.04"/>
          <path class="cls-26" d="M56.27,138.2l-.65-.38c1.62-.1,3.35-.68,5.14-1.71,3.75-2.16,7.27-6.1,9.67-10.8l.65.38c-2.4,4.7-5.92,8.63-9.67,10.8-1.79,1.03-3.52,1.61-5.14,1.71Z"/>
          <path class="cls-26" d="M71.4,103.23l.65.38c2.71,1.57,4.39,4.92,4.4,9.67.03,9.57-6.7,21.23-15.03,26.04l-.65-.38c8.33-4.81,15.06-16.47,15.03-26.04-.01-4.75-1.69-8.1-4.4-9.67Z"/>
          <path class="cls-30" d="M71.08,125.69l.5.19c-.8,1.56-1.71,3.04-2.71,4.41l.56.67-.55.73-.56-.67c-2.05,2.63-4.44,4.8-6.91,6.23-1.88,1.09-3.7,1.69-5.41,1.8l.27-.84c1.62-.1,3.35-.68,5.14-1.71,3.75-2.16,7.27-6.1,9.67-10.8Z"/>
          <polygon class="cls-26" points="72.9 107.84 72.25 107.46 73.24 106.28 73.89 106.65 72.9 107.84"/>
          <polygon class="cls-26" points="59.46 130.84 58.81 130.46 58.81 129.31 59.46 129.69 59.46 130.84"/>
          <path class="cls-26" d="M62.87,121.94l.65.38c.19.11.3.34.3.67,0,.92-.66,1.84-1.73,2.46l-.65-.38c1.07-.62,1.73-1.54,1.73-2.46,0-.33-.11-.56-.3-.67Z"/>
          <path class="cls-26" d="M65.49,119.26l.65.38c-.4-.23-.94-.26-1.58-.03l-.65-.38c.64-.22,1.17-.2,1.58.03Z"/>
          <polygon class="cls-26" points="53.83 137.96 53.18 137.58 53.45 137.65 54.1 138.03 53.83 137.96"/>
          <polygon class="cls-26" points="52.61 139.91 51.96 139.53 52.53 138.32 53.18 138.7 52.61 139.91"/>
          <polygon class="cls-26" points="59.76 126.79 59.11 126.41 61.44 125.07 62.09 125.45 59.76 126.79"/>
          <polygon class="cls-26" points="68.85 110.65 68.2 110.27 68.7 109.5 69.35 109.88 68.85 110.65"/>
          <path class="cls-26" d="M66.22,128.84l-.65-.38c2.98-3.7,4.83-8.47,4.82-12.43,0-2.55-.79-4.59-2.19-5.76l.65.38c1.4,1.16,2.18,3.21,2.19,5.76.01,3.96-1.84,8.73-4.82,12.43Z"/>
          <path class="cls-26" d="M54.53,133.76l-.65-.38c1.76,1.02,4.19.88,6.87-.67.75-.44,1.5-.97,2.23-1.59l.65.38c-.73.62-1.47,1.15-2.23,1.59-2.68,1.55-5.12,1.69-6.87.67Z"/>
          <path class="cls-26" d="M50.69,140.37l-.65-.38c2.74,1.59,6.54,1.37,10.73-1.05l.65.38c-4.19,2.42-7.99,2.64-10.73,1.05Z"/>
          <path class="cls-26" d="M69.65,106.25l.65.38c2.19,1.28,3.58,3.94,3.68,7.71l-.65-.38c-.1-3.77-1.49-6.44-3.68-7.71Z"/>
          <path class="cls-26" d="M52.41,137.35l-.65-.38c.44.25.91.46,1.42.6l.65.38c-.51-.15-.98-.35-1.42-.6Z"/>
          <polygon class="cls-26" points="53.11 135.62 52.46 135.25 53.17 134.03 53.82 134.41 53.11 135.62"/>
          <polygon class="cls-26" points="53.57 135.89 52.92 135.52 52.46 135.25 53.11 135.62 53.57 135.89"/>
          <polygon class="cls-26" points="55.91 130.15 55.26 129.77 56.06 129.31 56.71 129.69 55.91 130.15"/>
          <polygon class="cls-26" points="55.91 131.74 55.26 131.36 55.26 129.77 55.91 130.15 55.91 131.74"/>
          <path class="cls-26" d="M62.5,116.88l.65.38c.18.11.28.34.29.69,0,.84-.51,1.64-1.36,2.13l-.65-.38c.85-.49,1.37-1.29,1.36-2.13,0-.35-.1-.59-.29-.69Z"/>
          <polygon class="cls-26" points="67.22 108.85 66.57 108.47 66.84 108.53 67.49 108.91 67.22 108.85"/>
          <polygon class="cls-26" points="59.74 121.43 59.09 121.05 61.43 119.7 62.08 120.08 59.74 121.43"/>
          <polygon class="cls-26" points="66.11 110.69 65.45 110.31 65.92 109.25 66.57 109.63 66.11 110.69"/>
          <path class="cls-26" d="M65.19,113.52l.65.38c-.71-.41-1.9-.21-3.43.64l-.65-.38c1.53-.85,2.72-1.05,3.43-.64Z"/>
          <polygon class="cls-26" points="59.42 116.26 58.77 115.88 58.76 114.6 59.42 114.98 59.42 116.26"/>
          <polygon class="cls-26" points="59.42 114.98 58.76 114.6 61.75 112.87 62.4 113.25 59.42 114.98"/>
          <path class="cls-26" d="M53.82,134.41l-.65-.38c-1.71-1.13-2.76-3.36-2.77-6.46,0-.11,0-.23,0-.35l.65.38c0,.12,0,.23,0,.35,0,3.1,1.06,5.33,2.77,6.46Z"/>
          <polygon class="cls-26" points="55.88 119.89 55.23 119.51 55.23 117.92 55.88 118.3 55.88 119.89"/>
          <polygon class="cls-26" points="55.88 118.3 55.23 117.92 58.77 115.88 59.42 116.26 55.88 118.3"/>
          <path class="cls-26" d="M70.11,105.45l.65.38c-2.34-1.36-5.56-1.22-9.11.73l-.65-.38c3.55-1.95,6.77-2.09,9.11-.73Z"/>
          <polygon class="cls-26" points="48.8 127.99 48.15 127.61 51.09 126.12 51.74 126.5 48.8 127.99"/>
          <path class="cls-26" d="M56.17,114.7l-.65-.38c1.53-1.9,3.3-3.49,5.17-4.57,2.11-1.22,4.15-1.66,5.88-1.28l.65.38c-1.73-.38-3.77.06-5.88,1.28-1.87,1.08-3.64,2.67-5.17,4.57Z"/>
          <polygon class="cls-26" points="61 105.9 60.35 105.53 61 105.15 61.65 105.53 61 105.9"/>
          <polygon class="cls-26" points="61 106.94 60.35 106.56 60.35 105.53 61 105.9 61 106.94"/>
          <path class="cls-26" d="M51.49,124.22l-.65-.38c.71-3.12,2.19-6.21,4.12-8.8l.65.38c-1.93,2.6-3.41,5.68-4.12,8.8Z"/>
          <path class="cls-26" d="M57.81,109.32l-.65-.38c1.04-.93,2.11-1.73,3.19-2.38l.65.38c-1.08.66-2.16,1.45-3.19,2.38Z"/>
          <polygon class="cls-26" points="57.98 109.95 57.33 109.57 57.16 108.94 57.81 109.32 57.98 109.95"/>
          <path class="cls-30" d="M61.65,105.53v1.04c4.82-2.64,9.01-1.97,11.25,1.27l.99-1.18.31.49-.99,1.18c.91,1.53,1.42,3.56,1.43,6.01,0,1.91-.29,3.94-.88,6.05l-.61.08c.52-1.86.8-3.66.83-5.37l-2.29,1.32c-.1,4.15-2.05,9.05-5.14,12.89l-.33-.46c2.98-3.7,4.83-8.47,4.82-12.43,0-2.55-.79-4.59-2.19-5.76l.51-.77c1.43,1.19,2.25,3.23,2.33,5.78l2.29-1.32c-.2-7.72-5.8-10.79-12.64-6.84-1.14.66-2.26,1.48-3.35,2.45l-.18-.62c1.04-.93,2.11-1.73,3.19-2.38v-1.04s.65-.38.65-.38Z"/>
          <path class="cls-26" d="M51.95,138.15l-.65-.38c-2.45-1.42-3.83-4.43-3.84-8.5,0-2.14.37-4.43,1.08-6.74l.65.38c-.71,2.3-1.09,4.59-1.08,6.74.01,4.07,1.39,7.07,3.84,8.5Z"/>
          <polygon class="cls-26" points="55.61 115.42 54.96 115.04 53.75 113.51 54.4 113.89 55.61 115.42"/>
          <polygon class="cls-26" points="54.33 113.08 53.68 112.71 53.96 112.35 54.61 112.73 54.33 113.08"/>
          <path class="cls-26" d="M49.46,122.07l-.65-.38c1.07-3.11,2.73-6.22,4.87-8.99l.65.38c-2.14,2.77-3.8,5.87-4.87,8.99Z"/>
          <polygon class="cls-26" points="48.46 122.11 47.8 121.73 48.81 121.69 49.46 122.07 48.46 122.11"/>
          <polygon class="cls-26" points="48.18 122.95 47.53 122.58 47.8 121.73 48.46 122.11 48.18 122.95"/>
          <path class="cls-30" d="M54.61,112.73l1.56,1.97c1.53-1.9,3.3-3.49,5.17-4.57,2.11-1.22,4.15-1.66,5.88-1.28l.27.06-.84,1.9-.54-.12.47-1.06c-1.56-.26-3.36.17-5.23,1.25-4.28,2.47-7.99,7.77-9.22,13.19l-.63.14c.71-3.12,2.19-6.21,4.12-8.8l-1.21-1.53c-3.25,4.34-5.28,9.5-5.6,14.1l2.94-1.49-.02.39c-.01.23-.02.46-.02.69.02,6.12,4.37,8.6,9.7,5.53.75-.44,1.5-.97,2.23-1.59l-.18-.65.63-.56.36,1.28-.32.28c-.88.78-1.8,1.45-2.72,1.99-2.76,1.59-5.26,1.79-7.12.83l-.71,1.22-.46-.27.71-1.22c-1.71-1.13-2.76-3.36-2.77-6.46,0-.11,0-.23,0-.35l-2.29,1.16c0,.17,0,.34,0,.51.01,4.6,1.86,7.76,5.07,8.68l.26.07-.96,2.03-.52-.15.57-1.2c-3.22-1.06-5.07-4.34-5.08-9.05,0-2.14.37-4.43,1.08-6.74l-1.01.04.28-.84,1.01-.04c1.07-3.11,2.73-6.22,4.87-8.99l.28-.36Z"/>
          <path class="cls-9" d="M49.81,141.89l-.65-.38c-2.93-1.7-4.75-5.33-4.76-10.47-.03-10.36,7.26-22.98,16.27-28.19l.65.38c-9.02,5.21-16.3,17.83-16.27,28.19.01,5.15,1.83,8.77,4.76,10.47Z"/>
          <path class="cls-30" d="M61.32,103.23c9.02-5.21,16.35-1.03,16.38,9.33.03,10.36-7.26,22.98-16.27,28.19-9.02,5.21-16.35,1.03-16.38-9.34-.03-10.36,7.26-22.98,16.27-28.19ZM61.42,139.32c8.33-4.81,15.06-16.47,15.03-26.04-.03-9.57-6.8-13.43-15.13-8.62-8.33,4.81-15.06,16.47-15.03,26.04.03,9.57,6.8,13.43,15.13,8.62h0Z"/>
          <polygon class="cls-26" points="56.71 129.69 56.06 129.31 56.03 119.05 56.68 119.43 56.71 129.69"/>
          <path class="cls-30" d="M64.56,119.6c1.49-.51,2.41.28,2.41,2,0,2.3-1.74,4.75-4.49,6.34l-.04,1.17-2.99,1.73v-1.15s-3.55,2.05-3.55,2.05v-1.58s.79-.46.79-.46l-.03-10.27-.8.46v-1.58s3.54-2.05,3.54-2.05v-1.28s2.98-1.73,2.98-1.73v1.28c2.55-1.41,4.16-1.03,4.17.99,0,1.4-.78,2.98-2.01,4.08ZM62.09,125.45c1.07-.62,1.73-1.54,1.73-2.46,0-.83-.65-.99-1.68-.39-.02.01-.04.02-.06.03l-2.34,1.35v2.82s2.34-1.35,2.34-1.35h0ZM59.73,118.82v2.61s2.34-1.35,2.34-1.35c.85-.49,1.37-1.29,1.36-2.13,0-.79-.5-.98-1.32-.5-.02,0-.03.02-.05.03l-2.34,1.35h0Z"/>
          <path class="cls-11" d="M72.29,101.71l.65.38c-2.97-1.73-7.08-1.48-11.62,1.14l-.65-.38c4.54-2.62,8.65-2.86,11.62-1.14Z"/>
        </g>
      </g>
      <polygon class="cls-27" points="144.34 11.38 144.34 94.24 140.23 99.9 127.52 94.12 135.87 26.1 135.87 26.09 136.09 24.33 136.98 17.09 144.34 11.38"/>
      <path class="cls-21" d="M74.63,54.97l65.6-37.87c5.44-3.14,5.47-8.24.06-11.37l-5.88-3.4c-5.41-3.12-14.24-3.11-19.69.04L49.13,40.24l3.26,1.88L117.98,4.25c3.64-2.1,9.54-2.11,13.15-.02l5.88,3.4c3.61,2.09,3.6,5.49-.04,7.59l-65.6,37.87,3.26,1.88Z"/>
      <path class="cls-21" d="M114.72,2.37c5.08-2.93,13.12-3.14,18.56-.61-.54.93-1.07,1.86-1.55,2.82l-.61-.35c-3.61-2.09-9.51-2.08-13.15.02L52.38,42.12l-3.26-1.88L114.72,2.37Z"/>
      <g>
        <g class="cls-16">
          <path class="cls-26" d="M69.94,32.52l3.42,1.99c2.71,1.57,4.39,4.92,4.4,9.67.03,9.57-6.7,21.23-15.03,26.04l-3.42-1.99c8.33-4.81,15.06-16.47,15.03-26.04-.01-4.76-1.69-8.1-4.4-9.67Z"/>
          <path class="cls-26" d="M51.99,71.27l-3.42-1.99c2.74,1.59,6.54,1.37,10.73-1.05l3.42,1.99c-4.19,2.42-7.99,2.65-10.73,1.05Z"/>
          <path class="cls-8" d="M70.82,31l3.42,1.99c-2.97-1.73-7.08-1.48-11.62,1.14l-3.42-1.99c4.54-2.62,8.65-2.86,11.62-1.14Z"/>
          <path class="cls-5" d="M51.11,72.79l-3.42-1.99c-2.93-1.7-4.75-5.32-4.76-10.47-.03-10.36,7.26-22.98,16.28-28.19l3.42,1.99c-9.02,5.21-16.3,17.83-16.28,28.19.01,5.15,1.83,8.77,4.76,10.47Z"/>
          <path class="cls-26" d="M62.62,34.13c9.02-5.21,16.35-1.03,16.38,9.34.03,10.36-7.26,22.98-16.27,28.19-9.02,5.21-16.35,1.03-16.38-9.33-.03-10.36,7.26-22.98,16.28-28.19ZM62.72,70.22c8.33-4.81,15.06-16.47,15.03-26.04-.03-9.57-6.8-13.43-15.13-8.62-8.33,4.81-15.06,16.47-15.03,26.04.03,9.57,6.8,13.43,15.13,8.62h0Z"/>
        </g>
        <g class="cls-16">
          <path class="cls-1" d="M72.71,34.13l.65.38c-2.74-1.59-6.54-1.37-10.73,1.05l-.65-.38c4.19-2.42,7.99-2.64,10.73-1.05Z"/>
          <path class="cls-1" d="M51.99,71.27l-.65-.38c-2.71-1.57-4.39-4.92-4.4-9.67-.03-9.57,6.7-21.23,15.03-26.04l.65.38c-8.33,4.81-15.06,16.47-15.03,26.04.01,4.75,1.69,8.1,4.4,9.67Z"/>
          <path class="cls-31" d="M62.63,35.56c8.33-4.81,15.1-.95,15.13,8.62.03,9.57-6.7,21.23-15.03,26.04-8.33,4.81-15.1.95-15.13-8.62-.03-9.57,6.7-21.23,15.03-26.04Z"/>
        </g>
        <g class="cls-16">
          <polygon class="cls-26" points="70.84 62.96 70.19 62.58 69.63 61.91 70.28 62.29 70.84 62.96"/>
          <polygon class="cls-26" points="73.04 56.96 72.39 56.58 72.89 56.78 73.54 57.16 73.04 56.96"/>
          <polygon class="cls-26" points="68.5 60.58 67.85 60.2 67.52 59.74 68.17 60.12 68.5 60.58"/>
          <path class="cls-26" d="M75.1,51.73l-.65-.38c.52-1.86.8-3.66.83-5.37l.65.38c-.03,1.7-.31,3.51-.83,5.37Z"/>
          <polygon class="cls-26" points="65.41 62.14 64.75 61.76 65.39 61.2 66.04 61.58 65.41 62.14"/>
          <polygon class="cls-26" points="65.59 62.79 64.94 62.41 64.75 61.76 65.41 62.14 65.59 62.79"/>
          <polygon class="cls-26" points="73.64 46.94 72.99 46.56 75.28 45.24 75.93 45.61 73.64 46.94"/>
          <polygon class="cls-26" points="57.96 70.32 57.31 69.94 57.57 69.1 58.22 69.47 57.96 70.32"/>
          <path class="cls-26" d="M58.22,69.47l-.65-.38c1.62-.1,3.35-.68,5.14-1.71,3.75-2.16,7.27-6.1,9.67-10.8l.65.38c-2.4,4.7-5.92,8.63-9.67,10.8-1.79,1.03-3.52,1.61-5.14,1.71Z"/>
          <path class="cls-26" d="M73.36,34.51l.65.38c2.71,1.57,4.39,4.92,4.4,9.67.03,9.57-6.7,21.23-15.03,26.04l-.65-.38c8.33-4.81,15.06-16.47,15.03-26.04-.01-4.75-1.69-8.1-4.4-9.67Z"/>
          <path class="cls-30" d="M73.04,56.96l.5.19c-.8,1.56-1.71,3.04-2.71,4.41l.56.67-.55.73-.56-.67c-2.05,2.63-4.44,4.8-6.91,6.23-1.88,1.09-3.7,1.69-5.41,1.8l.27-.84c1.62-.1,3.35-.68,5.14-1.71,3.75-2.16,7.27-6.1,9.67-10.8Z"/>
          <polygon class="cls-26" points="74.86 39.11 74.21 38.73 75.2 37.55 75.85 37.93 74.86 39.11"/>
          <polygon class="cls-26" points="61.41 62.12 60.76 61.74 60.76 60.59 61.41 60.97 61.41 62.12"/>
          <path class="cls-26" d="M64.83,53.22l.65.38c.19.11.3.34.3.67,0,.92-.66,1.84-1.73,2.46l-.65-.38c1.07-.62,1.73-1.54,1.73-2.46,0-.33-.11-.56-.3-.67Z"/>
          <path class="cls-26" d="M67.44,50.54l.65.38c-.4-.23-.94-.26-1.58-.03l-.65-.38c.64-.22,1.17-.2,1.58.03Z"/>
          <polygon class="cls-26" points="55.79 69.23 55.14 68.85 55.4 68.93 56.05 69.31 55.79 69.23"/>
          <polygon class="cls-26" points="54.57 71.18 53.92 70.81 54.49 69.6 55.14 69.98 54.57 71.18"/>
          <polygon class="cls-26" points="61.71 58.07 61.06 57.69 63.4 56.34 64.05 56.72 61.71 58.07"/>
          <polygon class="cls-26" points="70.8 41.93 70.15 41.55 70.66 40.78 71.31 41.16 70.8 41.93"/>
          <path class="cls-26" d="M68.17,60.12l-.65-.38c2.98-3.7,4.83-8.47,4.82-12.43,0-2.55-.79-4.59-2.19-5.76l.65.38c1.4,1.16,2.18,3.21,2.19,5.76.01,3.96-1.84,8.73-4.82,12.43Z"/>
          <path class="cls-26" d="M56.48,65.04l-.65-.38c1.76,1.02,4.19.88,6.87-.67.75-.44,1.5-.97,2.23-1.59l.65.38c-.73.62-1.47,1.15-2.23,1.59-2.68,1.55-5.12,1.69-6.87.67Z"/>
          <path class="cls-26" d="M52.64,71.65l-.65-.38c2.74,1.59,6.54,1.37,10.73-1.05l.65.38c-4.19,2.42-7.99,2.64-10.73,1.05Z"/>
          <path class="cls-26" d="M71.6,37.52l.65.38c2.19,1.27,3.58,3.94,3.68,7.71l-.65-.38c-.1-3.77-1.49-6.44-3.68-7.71Z"/>
          <path class="cls-26" d="M54.37,68.63l-.65-.38c.44.25.91.46,1.42.6l.65.38c-.51-.15-.98-.35-1.42-.6Z"/>
          <polygon class="cls-26" points="55.07 66.9 54.42 66.52 55.12 65.31 55.78 65.68 55.07 66.9"/>
          <polygon class="cls-26" points="55.53 67.17 54.88 66.79 54.42 66.52 55.07 66.9 55.53 67.17"/>
          <polygon class="cls-26" points="57.86 61.43 57.21 61.05 58.01 60.59 58.66 60.97 57.86 61.43"/>
          <polygon class="cls-26" points="57.87 63.01 57.22 62.64 57.21 61.05 57.86 61.43 57.87 63.01"/>
          <path class="cls-26" d="M64.46,48.15l.65.38c.18.11.28.34.29.69,0,.84-.51,1.64-1.36,2.13l-.65-.38c.85-.49,1.37-1.29,1.36-2.13,0-.35-.1-.59-.29-.69Z"/>
          <polygon class="cls-26" points="69.17 40.13 68.52 39.75 68.79 39.81 69.44 40.19 69.17 40.13"/>
          <polygon class="cls-26" points="61.7 52.7 61.04 52.33 63.38 50.98 64.03 51.36 61.7 52.7"/>
          <polygon class="cls-26" points="68.06 41.96 67.41 41.59 67.88 40.53 68.53 40.91 68.06 41.96"/>
          <path class="cls-26" d="M67.14,44.8l.65.38c-.71-.41-1.9-.21-3.43.64l-.65-.38c1.53-.85,2.72-1.05,3.43-.64Z"/>
          <polygon class="cls-26" points="61.37 47.53 60.72 47.16 60.72 45.88 61.37 46.25 61.37 47.53"/>
          <polygon class="cls-26" points="61.37 46.25 60.72 45.88 63.71 44.15 64.36 44.53 61.37 46.25"/>
          <path class="cls-26" d="M55.78,65.68l-.65-.38c-1.71-1.13-2.76-3.36-2.77-6.46,0-.11,0-.23,0-.35l.65.38c0,.12,0,.23,0,.35,0,3.1,1.06,5.33,2.77,6.46Z"/>
          <polygon class="cls-26" points="57.83 51.16 57.18 50.78 57.18 49.2 57.83 49.58 57.83 51.16"/>
          <polygon class="cls-26" points="57.83 49.58 57.18 49.2 60.72 47.16 61.37 47.53 57.83 49.58"/>
          <path class="cls-26" d="M72.07,36.73l.65.38c-2.34-1.36-5.56-1.22-9.11.73l-.65-.38c3.55-1.95,6.77-2.09,9.11-.73Z"/>
          <polygon class="cls-26" points="50.76 59.27 50.11 58.89 53.05 57.4 53.7 57.78 50.76 59.27"/>
          <path class="cls-26" d="M58.12,45.98l-.65-.38c1.53-1.9,3.3-3.49,5.17-4.57,2.11-1.22,4.15-1.66,5.88-1.28l.65.38c-1.73-.38-3.77.06-5.88,1.28-1.87,1.08-3.64,2.67-5.17,4.57Z"/>
          <polygon class="cls-26" points="62.95 37.18 62.3 36.8 62.96 36.42 63.61 36.8 62.95 37.18"/>
          <polygon class="cls-26" points="62.96 38.22 62.3 37.84 62.3 36.8 62.95 37.18 62.96 38.22"/>
          <path class="cls-26" d="M53.44,55.5l-.65-.38c.71-3.12,2.19-6.21,4.12-8.8l.65.38c-1.93,2.6-3.41,5.68-4.12,8.8Z"/>
          <path class="cls-26" d="M59.76,40.6l-.65-.38c1.04-.93,2.11-1.73,3.19-2.38l.65.38c-1.08.66-2.16,1.45-3.19,2.38Z"/>
          <polygon class="cls-26" points="59.94 41.22 59.29 40.85 59.11 40.22 59.76 40.6 59.94 41.22"/>
          <path class="cls-30" d="M63.61,36.8v1.04c4.82-2.64,9.01-1.97,11.25,1.27l.99-1.18.31.49-.99,1.18c.91,1.53,1.42,3.56,1.43,6.01,0,1.91-.29,3.94-.88,6.05l-.61.08c.52-1.86.8-3.66.83-5.37l-2.29,1.32c-.1,4.15-2.05,9.05-5.14,12.89l-.33-.46c2.98-3.7,4.83-8.47,4.82-12.43,0-2.55-.79-4.59-2.19-5.76l.51-.77c1.43,1.19,2.25,3.23,2.33,5.78l2.29-1.32c-.2-7.72-5.8-10.79-12.64-6.84-1.14.66-2.26,1.48-3.35,2.45l-.18-.62c1.04-.93,2.11-1.73,3.19-2.38v-1.04s.65-.38.65-.38Z"/>
          <path class="cls-26" d="M53.9,69.43l-.65-.38c-2.45-1.42-3.83-4.43-3.84-8.5,0-2.14.37-4.43,1.08-6.74l.65.38c-.71,2.3-1.09,4.59-1.08,6.74.01,4.07,1.39,7.07,3.84,8.5Z"/>
          <polygon class="cls-26" points="57.57 46.7 56.92 46.32 55.71 44.79 56.36 45.16 57.57 46.7"/>
          <polygon class="cls-26" points="56.28 44.36 55.63 43.98 55.91 43.62 56.56 44 56.28 44.36"/>
          <path class="cls-26" d="M51.42,53.35l-.65-.38c1.07-3.11,2.73-6.22,4.87-8.99l.65.38c-2.14,2.77-3.8,5.87-4.87,8.99Z"/>
          <polygon class="cls-26" points="50.41 53.39 49.76 53.01 50.76 52.97 51.42 53.35 50.41 53.39"/>
          <polygon class="cls-26" points="50.13 54.23 49.48 53.85 49.76 53.01 50.41 53.39 50.13 54.23"/>
          <path class="cls-30" d="M56.56,44l1.56,1.97c1.53-1.9,3.3-3.49,5.17-4.57,2.11-1.22,4.15-1.66,5.88-1.28l.27.06-.84,1.9-.54-.12.47-1.06c-1.56-.26-3.36.17-5.23,1.25-4.28,2.47-7.99,7.77-9.22,13.19l-.63.14c.71-3.12,2.19-6.21,4.12-8.8l-1.21-1.53c-3.25,4.34-5.28,9.5-5.6,14.1l2.94-1.49-.02.39c-.01.23-.02.46-.02.69.02,6.12,4.37,8.6,9.7,5.53.75-.44,1.5-.97,2.23-1.59l-.18-.65.63-.56.36,1.28-.32.28c-.88.79-1.8,1.45-2.72,1.99-2.76,1.59-5.26,1.79-7.12.83l-.71,1.22-.46-.27.71-1.22c-1.71-1.13-2.76-3.36-2.77-6.46,0-.11,0-.23,0-.35l-2.29,1.16c0,.17,0,.34,0,.51.01,4.6,1.86,7.76,5.07,8.68l.26.07-.96,2.03-.52-.15.57-1.2c-3.22-1.06-5.07-4.34-5.08-9.05,0-2.14.37-4.43,1.08-6.74l-1.01.04.28-.84,1.01-.04c1.07-3.11,2.73-6.22,4.87-8.99l.28-.36Z"/>
          <path class="cls-6" d="M51.76,73.17l-.65-.38c-2.93-1.7-4.75-5.33-4.76-10.47-.03-10.36,7.26-22.98,16.27-28.19l.65.38c-9.02,5.21-16.3,17.83-16.27,28.19.01,5.15,1.83,8.77,4.76,10.47Z"/>
          <path class="cls-30" d="M63.27,34.51c9.02-5.21,16.35-1.03,16.38,9.33.03,10.36-7.26,22.98-16.27,28.19s-16.35,1.03-16.38-9.34c-.03-10.36,7.26-22.98,16.27-28.19ZM63.38,70.6c8.33-4.81,15.06-16.47,15.03-26.04-.03-9.57-6.8-13.43-15.13-8.62-8.33,4.81-15.06,16.47-15.03,26.04.03,9.57,6.8,13.43,15.13,8.62h0Z"/>
          <polygon class="cls-26" points="58.66 60.97 58.01 60.59 57.98 50.32 58.63 50.7 58.66 60.97"/>
          <path class="cls-30" d="M66.52,50.88c1.49-.51,2.41.28,2.41,2,0,2.3-1.74,4.75-4.49,6.34l-.03,1.17-2.99,1.73v-1.15s-3.55,2.05-3.55,2.05v-1.58s.79-.46.79-.46l-.03-10.27-.8.46v-1.58s3.54-2.05,3.54-2.05v-1.28s2.98-1.73,2.98-1.73v1.28c2.55-1.41,4.16-1.03,4.17.99,0,1.4-.78,2.98-2.01,4.08ZM64.05,56.72c1.07-.62,1.73-1.54,1.73-2.46,0-.83-.65-.99-1.68-.39-.02.01-.04.02-.06.03l-2.34,1.35v2.82s2.34-1.35,2.34-1.35h0ZM61.69,50.1v2.61s2.34-1.35,2.34-1.35c.85-.49,1.37-1.29,1.36-2.13,0-.79-.5-.98-1.32-.5-.02,0-.03.02-.05.03l-2.34,1.35h0Z"/>
          <path class="cls-11" d="M74.24,32.99l.65.38c-2.97-1.73-7.08-1.48-11.62,1.14l-.65-.38c4.54-2.62,8.65-2.86,11.62-1.14Z"/>
        </g>
      </g>
      <g>
        <g class="cls-16">
          <path class="cls-26" d="M121.57,6.13l3.42,1.99c2.71,1.57,4.39,4.92,4.4,9.67.03,9.57-6.7,21.23-15.03,26.04l-3.42-1.99c8.33-4.81,15.06-16.47,15.03-26.04-.01-4.76-1.69-8.1-4.4-9.67Z"/>
          <path class="cls-26" d="M103.62,44.88l-3.42-1.99c2.74,1.59,6.54,1.37,10.73-1.05l3.42,1.99c-4.19,2.42-7.99,2.65-10.73,1.05Z"/>
          <path class="cls-4" d="M122.45,4.61l3.42,1.99c-2.97-1.73-7.08-1.48-11.62,1.14l-3.42-1.99c4.54-2.62,8.65-2.86,11.62-1.14Z"/>
          <path class="cls-3" d="M102.74,46.4l-3.42-1.99c-2.93-1.7-4.75-5.32-4.76-10.47-.03-10.36,7.26-22.98,16.28-28.19l3.42,1.99c-9.02,5.21-16.3,17.83-16.28,28.19.01,5.15,1.83,8.77,4.76,10.47Z"/>
          <path class="cls-26" d="M114.25,7.73c9.02-5.21,16.35-1.03,16.38,9.34.03,10.36-7.26,22.98-16.27,28.19-9.02,5.21-16.35,1.03-16.38-9.33-.03-10.36,7.26-22.98,16.28-28.19ZM114.36,43.83c8.33-4.81,15.06-16.47,15.03-26.04-.03-9.57-6.8-13.43-15.13-8.62-8.33,4.81-15.06,16.47-15.03,26.04.03,9.57,6.8,13.43,15.13,8.62h0Z"/>
        </g>
        <g class="cls-16">
          <path class="cls-1" d="M124.34,7.73l.65.38c-2.74-1.59-6.54-1.37-10.73,1.05l-.65-.38c4.19-2.42,7.99-2.64,10.73-1.05Z"/>
          <path class="cls-1" d="M103.62,44.88l-.65-.38c-2.71-1.57-4.39-4.92-4.4-9.67-.03-9.57,6.7-21.23,15.03-26.04l.65.38c-8.33,4.81-15.06,16.47-15.03,26.04.01,4.75,1.69,8.1,4.4,9.67Z"/>
          <path class="cls-31" d="M114.26,9.16c8.33-4.81,15.1-.95,15.13,8.62.03,9.57-6.7,21.23-15.03,26.04-8.33,4.81-15.1.95-15.13-8.62-.03-9.57,6.7-21.23,15.03-26.04Z"/>
        </g>
        <g class="cls-16">
          <polygon class="cls-26" points="122.47 36.56 121.82 36.18 121.26 35.52 121.91 35.89 122.47 36.56"/>
          <polygon class="cls-26" points="124.67 30.57 124.02 30.19 124.52 30.38 125.17 30.76 124.67 30.57"/>
          <polygon class="cls-26" points="120.13 34.19 119.48 33.81 119.15 33.35 119.8 33.72 120.13 34.19"/>
          <path class="cls-26" d="M126.73,25.34l-.65-.38c.52-1.86.8-3.66.83-5.37l.65.38c-.03,1.7-.31,3.51-.83,5.37Z"/>
          <polygon class="cls-26" points="117.04 35.75 116.39 35.37 117.02 34.8 117.67 35.18 117.04 35.75"/>
          <polygon class="cls-26" points="117.22 36.39 116.57 36.02 116.39 35.37 117.04 35.75 117.22 36.39"/>
          <polygon class="cls-26" points="125.27 20.54 124.62 20.17 126.91 18.84 127.56 19.22 125.27 20.54"/>
          <polygon class="cls-26" points="109.59 43.92 108.94 43.54 109.2 42.7 109.85 43.08 109.59 43.92"/>
          <path class="cls-26" d="M109.85,43.08l-.65-.38c1.62-.1,3.35-.68,5.14-1.71,3.75-2.16,7.27-6.1,9.67-10.8l.65.38c-2.4,4.7-5.92,8.63-9.67,10.8-1.79,1.03-3.52,1.61-5.14,1.71Z"/>
          <path class="cls-26" d="M124.99,8.11l.65.38c2.71,1.57,4.39,4.92,4.4,9.67.03,9.57-6.7,21.23-15.03,26.04l-.65-.38c8.33-4.81,15.06-16.47,15.03-26.04-.01-4.75-1.69-8.1-4.4-9.67Z"/>
          <path class="cls-30" d="M124.67,30.57l.5.19c-.8,1.56-1.71,3.04-2.71,4.41l.56.67-.55.73-.56-.67c-2.05,2.63-4.44,4.8-6.91,6.23-1.88,1.09-3.7,1.69-5.41,1.8l.27-.84c1.62-.1,3.35-.68,5.14-1.71,3.75-2.16,7.27-6.1,9.67-10.8Z"/>
          <polygon class="cls-26" points="126.49 12.72 125.84 12.34 126.83 11.16 127.48 11.54 126.49 12.72"/>
          <polygon class="cls-26" points="113.04 35.73 112.39 35.35 112.39 34.2 113.04 34.57 113.04 35.73"/>
          <path class="cls-26" d="M116.46,26.82l.65.38c.19.11.3.34.3.67,0,.92-.66,1.84-1.73,2.46l-.65-.38c1.07-.62,1.73-1.54,1.73-2.46,0-.33-.11-.56-.3-.67Z"/>
          <path class="cls-26" d="M119.07,24.14l.65.38c-.4-.23-.94-.26-1.58-.03l-.65-.38c.64-.22,1.17-.2,1.58.03Z"/>
          <polygon class="cls-26" points="107.42 42.84 106.77 42.46 107.03 42.53 107.68 42.91 107.42 42.84"/>
          <polygon class="cls-26" points="106.2 44.79 105.55 44.41 106.12 43.21 106.77 43.59 106.2 44.79"/>
          <polygon class="cls-26" points="113.34 31.68 112.69 31.3 115.03 29.95 115.68 30.33 113.34 31.68"/>
          <polygon class="cls-26" points="122.43 15.54 121.78 15.16 122.29 14.39 122.94 14.77 122.43 15.54"/>
          <path class="cls-26" d="M119.8,33.72l-.65-.38c2.98-3.7,4.83-8.47,4.82-12.43,0-2.55-.79-4.59-2.19-5.76l.65.38c1.4,1.16,2.18,3.21,2.19,5.76.01,3.96-1.84,8.73-4.82,12.43Z"/>
          <path class="cls-26" d="M108.11,38.65l-.65-.38c1.76,1.02,4.19.88,6.87-.67.75-.44,1.5-.97,2.23-1.59l.65.38c-.73.62-1.47,1.15-2.23,1.59-2.68,1.55-5.12,1.69-6.87.67Z"/>
          <path class="cls-26" d="M104.27,45.26l-.65-.38c2.74,1.59,6.54,1.37,10.73-1.05l.65.38c-4.19,2.42-7.99,2.64-10.73,1.05Z"/>
          <path class="cls-26" d="M123.23,11.13l.65.38c2.19,1.28,3.58,3.94,3.68,7.71l-.65-.38c-.1-3.77-1.49-6.44-3.68-7.71Z"/>
          <path class="cls-26" d="M106,42.24l-.65-.38c.44.25.91.46,1.42.6l.65.38c-.51-.15-.98-.35-1.42-.6Z"/>
          <polygon class="cls-26" points="106.7 40.51 106.05 40.13 106.76 38.91 107.41 39.29 106.7 40.51"/>
          <polygon class="cls-26" points="107.16 40.78 106.51 40.4 106.05 40.13 106.7 40.51 107.16 40.78"/>
          <polygon class="cls-26" points="109.49 35.04 108.84 34.66 109.64 34.2 110.29 34.58 109.49 35.04"/>
          <polygon class="cls-26" points="109.5 36.62 108.85 36.24 108.84 34.66 109.49 35.04 109.5 36.62"/>
          <path class="cls-26" d="M116.09,21.76l.65.38c.18.11.28.34.29.69,0,.84-.51,1.64-1.36,2.13l-.65-.38c.85-.49,1.37-1.29,1.36-2.13,0-.35-.1-.59-.29-.69Z"/>
          <polygon class="cls-26" points="120.8 13.73 120.15 13.35 120.42 13.41 121.07 13.79 120.8 13.73"/>
          <polygon class="cls-26" points="113.33 26.31 112.68 25.93 115.01 24.58 115.66 24.96 113.33 26.31"/>
          <polygon class="cls-26" points="119.69 15.57 119.04 15.19 119.51 14.14 120.16 14.51 119.69 15.57"/>
          <path class="cls-26" d="M118.78,18.4l.65.38c-.71-.41-1.9-.21-3.43.64l-.65-.38c1.53-.85,2.72-1.05,3.43-.64Z"/>
          <polygon class="cls-26" points="113 21.14 112.35 20.76 112.35 19.48 113 19.86 113 21.14"/>
          <polygon class="cls-26" points="113 19.86 112.35 19.48 115.34 17.76 115.99 18.13 113 19.86"/>
          <path class="cls-26" d="M107.41,39.29l-.65-.38c-1.71-1.13-2.76-3.36-2.77-6.46,0-.11,0-.23,0-.35l.65.38c0,.12,0,.23,0,.35,0,3.1,1.06,5.33,2.77,6.46Z"/>
          <polygon class="cls-26" points="109.47 24.77 108.81 24.39 108.81 22.81 109.46 23.19 109.47 24.77"/>
          <polygon class="cls-26" points="109.46 23.19 108.81 22.81 112.35 20.76 113 21.14 109.46 23.19"/>
          <path class="cls-26" d="M123.7,10.34l.65.38c-2.34-1.36-5.56-1.22-9.11.73l-.65-.38c3.55-1.95,6.77-2.09,9.11-.73Z"/>
          <polygon class="cls-26" points="102.39 32.87 101.74 32.49 104.68 31 105.33 31.38 102.39 32.87"/>
          <path class="cls-26" d="M109.75,19.58l-.65-.38c1.53-1.9,3.3-3.49,5.17-4.57,2.11-1.22,4.15-1.66,5.88-1.28l.65.38c-1.73-.38-3.77.06-5.88,1.28-1.87,1.08-3.64,2.67-5.17,4.57Z"/>
          <polygon class="cls-26" points="114.58 10.79 113.93 10.41 114.59 10.03 115.24 10.41 114.58 10.79"/>
          <polygon class="cls-26" points="114.59 11.82 113.94 11.45 113.93 10.41 114.58 10.79 114.59 11.82"/>
          <path class="cls-26" d="M105.08,29.1l-.65-.38c.71-3.12,2.19-6.21,4.12-8.8l.65.38c-1.93,2.6-3.41,5.68-4.12,8.8Z"/>
          <path class="cls-26" d="M111.39,14.21l-.65-.38c1.04-.93,2.11-1.73,3.19-2.38l.65.38c-1.08.66-2.16,1.45-3.19,2.38Z"/>
          <polygon class="cls-26" points="111.57 14.83 110.92 14.45 110.74 13.83 111.39 14.21 111.57 14.83"/>
          <path class="cls-30" d="M115.24,10.41v1.04c4.82-2.64,9.01-1.97,11.25,1.27l.99-1.18.31.49-.99,1.18c.91,1.53,1.42,3.56,1.43,6.01,0,1.91-.29,3.94-.88,6.05l-.61.08c.52-1.86.8-3.66.83-5.37l-2.29,1.32c-.1,4.15-2.05,9.05-5.14,12.89l-.33-.46c2.98-3.7,4.83-8.47,4.82-12.43,0-2.55-.79-4.59-2.19-5.76l.51-.77c1.43,1.19,2.25,3.23,2.33,5.78l2.29-1.32c-.2-7.72-5.8-10.79-12.64-6.84-1.14.66-2.26,1.48-3.35,2.45l-.18-.62c1.04-.93,2.11-1.73,3.19-2.38v-1.04s.65-.38.65-.38Z"/>
          <path class="cls-26" d="M105.53,43.03l-.65-.38c-2.45-1.42-3.83-4.43-3.84-8.5,0-2.14.37-4.43,1.08-6.74l.65.38c-.71,2.3-1.09,4.59-1.08,6.74.01,4.07,1.39,7.07,3.84,8.5Z"/>
          <polygon class="cls-26" points="109.2 20.3 108.55 19.92 107.34 18.39 107.99 18.77 109.2 20.3"/>
          <polygon class="cls-26" points="107.91 17.97 107.26 17.59 107.54 17.23 108.19 17.61 107.91 17.97"/>
          <path class="cls-26" d="M103.05,26.95l-.65-.38c1.07-3.11,2.73-6.22,4.87-8.99l.65.38c-2.14,2.77-3.8,5.87-4.87,8.99Z"/>
          <polygon class="cls-26" points="102.04 27 101.39 26.62 102.4 26.58 103.05 26.95 102.04 27"/>
          <polygon class="cls-26" points="101.76 27.84 101.11 27.46 101.39 26.62 102.04 27 101.76 27.84"/>
          <path class="cls-30" d="M108.19,17.61l1.56,1.97c1.53-1.9,3.3-3.49,5.17-4.57,2.11-1.22,4.15-1.66,5.88-1.28l.27.06-.84,1.9-.54-.12.47-1.06c-1.56-.26-3.36.17-5.23,1.25-4.28,2.47-7.99,7.77-9.22,13.19l-.63.14c.71-3.12,2.19-6.21,4.12-8.8l-1.21-1.53c-3.25,4.34-5.28,9.5-5.6,14.1l2.94-1.49-.02.39c-.01.23-.02.46-.02.69.02,6.12,4.37,8.6,9.7,5.53.75-.44,1.5-.97,2.23-1.59l-.18-.65.63-.56.36,1.28-.32.28c-.88.78-1.8,1.45-2.72,1.99-2.76,1.59-5.26,1.79-7.12.83l-.71,1.22-.46-.27.71-1.22c-1.71-1.13-2.76-3.36-2.77-6.46,0-.11,0-.23,0-.35l-2.29,1.16c0,.17,0,.34,0,.51.01,4.6,1.86,7.76,5.07,8.68l.26.07-.96,2.03-.52-.15.57-1.2c-3.22-1.06-5.07-4.34-5.08-9.05,0-2.14.37-4.43,1.08-6.74l-1.01.04.28-.84,1.01-.04c1.07-3.11,2.73-6.22,4.87-8.99l.28-.36Z"/>
          <path class="cls-7" d="M103.39,46.77l-.65-.38c-2.93-1.7-4.75-5.33-4.76-10.47-.03-10.36,7.26-22.98,16.27-28.19l.65.38c-9.02,5.21-16.3,17.83-16.27,28.19.01,5.15,1.83,8.77,4.76,10.47Z"/>
          <path class="cls-30" d="M114.9,8.11c9.02-5.21,16.35-1.03,16.38,9.33.03,10.36-7.26,22.98-16.27,28.19-9.02,5.21-16.35,1.03-16.38-9.34-.03-10.36,7.26-22.98,16.27-28.19ZM115.01,44.2c8.33-4.81,15.06-16.47,15.03-26.04-.03-9.57-6.8-13.43-15.13-8.62-8.33,4.81-15.06,16.47-15.03,26.04.03,9.57,6.8,13.43,15.13,8.62h0Z"/>
          <polygon class="cls-26" points="110.29 34.58 109.64 34.2 109.61 23.93 110.26 24.31 110.29 34.58"/>
          <path class="cls-30" d="M118.15,24.49c1.49-.51,2.41.28,2.41,2,0,2.3-1.74,4.75-4.49,6.34l-.03,1.17-2.99,1.73v-1.15s-3.55,2.05-3.55,2.05v-1.58s.79-.46.79-.46l-.03-10.27-.8.46v-1.58s3.54-2.05,3.54-2.05v-1.28s2.98-1.73,2.98-1.73v1.28c2.55-1.41,4.16-1.03,4.17.99,0,1.4-.78,2.98-2.01,4.08ZM115.68,30.33c1.07-.62,1.73-1.54,1.73-2.46,0-.83-.65-.99-1.68-.39-.02.01-.04.02-.06.03l-2.34,1.35v2.82s2.34-1.35,2.34-1.35h0ZM113.32,23.7v2.61s2.34-1.35,2.34-1.35c.85-.49,1.37-1.29,1.36-2.13,0-.79-.5-.98-1.32-.5-.02,0-.03.02-.05.03l-2.34,1.35h0Z"/>
          <path class="cls-11" d="M125.87,6.6l.65.38c-2.97-1.73-7.08-1.48-11.62,1.14l-.65-.38c4.54-2.62,8.65-2.86,11.62-1.14Z"/>
        </g>
      </g>
      <g>
        <g class="cls-16">
          <path class="cls-26" d="M114.48,23.31l3.42,1.99c2.71,1.57,4.39,4.92,4.4,9.67.03,9.57-6.7,21.23-15.03,26.04l-3.42-1.99c8.33-4.81,15.06-16.47,15.03-26.04-.01-4.76-1.69-8.1-4.4-9.67Z"/>
          <path class="cls-26" d="M96.53,62.06l-3.42-1.99c2.74,1.59,6.54,1.37,10.73-1.05l3.42,1.99c-4.19,2.42-7.99,2.65-10.73,1.05Z"/>
          <path class="cls-22" d="M115.36,21.8l3.42,1.99c-2.97-1.73-7.08-1.48-11.62,1.14l-3.42-1.99c4.54-2.62,8.65-2.86,11.62-1.14Z"/>
          <path class="cls-23" d="M95.64,63.58l-3.42-1.99c-2.93-1.7-4.75-5.32-4.76-10.47-.03-10.36,7.26-22.98,16.28-28.19l3.42,1.99c-9.02,5.21-16.3,17.83-16.28,28.19.01,5.15,1.83,8.77,4.76,10.47Z"/>
          <path class="cls-26" d="M107.16,24.92c9.02-5.21,16.35-1.03,16.38,9.34.03,10.36-7.26,22.98-16.27,28.19-9.02,5.21-16.35,1.03-16.38-9.33-.03-10.36,7.26-22.98,16.28-28.19ZM107.26,61.01c8.33-4.81,15.06-16.47,15.03-26.04-.03-9.57-6.8-13.43-15.13-8.62-8.33,4.81-15.06,16.47-15.03,26.04.03,9.57,6.8,13.43,15.13,8.62h0Z"/>
        </g>
        <g class="cls-16">
          <path class="cls-1" d="M117.24,24.92l.65.38c-2.74-1.59-6.54-1.37-10.73,1.05l-.65-.38c4.19-2.42,7.99-2.64,10.73-1.05Z"/>
          <path class="cls-1" d="M96.53,62.06l-.65-.38c-2.71-1.57-4.39-4.92-4.4-9.67-.03-9.57,6.7-21.23,15.03-26.04l.65.38c-8.33,4.81-15.06,16.47-15.03,26.04.01,4.75,1.69,8.1,4.4,9.67Z"/>
          <path class="cls-31" d="M107.16,26.35c8.33-4.81,15.1-.95,15.13,8.62.03,9.57-6.7,21.23-15.03,26.04-8.33,4.81-15.1.95-15.13-8.62-.03-9.57,6.7-21.23,15.03-26.04Z"/>
        </g>
        <g class="cls-16">
          <polygon class="cls-26" points="115.38 53.75 114.72 53.37 114.16 52.7 114.82 53.08 115.38 53.75"/>
          <polygon class="cls-26" points="117.57 47.75 116.92 47.38 117.42 47.57 118.08 47.95 117.57 47.75"/>
          <polygon class="cls-26" points="113.03 51.37 112.38 50.99 112.05 50.53 112.7 50.91 113.03 51.37"/>
          <path class="cls-26" d="M119.63,42.52l-.65-.38c.52-1.86.8-3.66.83-5.37l.65.38c-.03,1.7-.31,3.51-.83,5.37Z"/>
          <polygon class="cls-26" points="109.94 52.93 109.29 52.55 109.92 51.99 110.57 52.37 109.94 52.93"/>
          <polygon class="cls-26" points="110.12 53.58 109.47 53.2 109.29 52.55 109.94 52.93 110.12 53.58"/>
          <polygon class="cls-26" points="118.17 37.73 117.52 37.35 119.81 36.03 120.46 36.4 118.17 37.73"/>
          <polygon class="cls-26" points="102.49 61.11 101.84 60.73 102.11 59.89 102.76 60.26 102.49 61.11"/>
          <path class="cls-26" d="M102.76,60.26l-.65-.38c1.62-.1,3.35-.68,5.14-1.71,3.75-2.16,7.27-6.1,9.67-10.8l.65.38c-2.4,4.7-5.92,8.63-9.67,10.8-1.79,1.03-3.52,1.61-5.14,1.71Z"/>
          <path class="cls-26" d="M117.89,25.3l.65.38c2.71,1.57,4.39,4.92,4.4,9.67.03,9.57-6.7,21.23-15.03,26.04l-.65-.38c8.33-4.81,15.06-16.47,15.03-26.04-.01-4.75-1.69-8.1-4.4-9.67Z"/>
          <path class="cls-30" d="M117.57,47.75l.5.19c-.8,1.56-1.71,3.04-2.71,4.41l.56.67-.55.73-.56-.67c-2.05,2.63-4.44,4.8-6.91,6.23-1.88,1.09-3.7,1.69-5.41,1.8l.27-.84c1.62-.1,3.35-.68,5.14-1.71,3.75-2.16,7.27-6.1,9.67-10.8Z"/>
          <polygon class="cls-26" points="119.39 29.9 118.74 29.52 119.73 28.34 120.38 28.72 119.39 29.9"/>
          <polygon class="cls-26" points="105.95 52.91 105.3 52.53 105.29 51.38 105.95 51.76 105.95 52.91"/>
          <path class="cls-26" d="M109.36,44.01l.65.38c.19.11.3.34.3.67,0,.92-.66,1.84-1.73,2.46l-.65-.38c1.07-.62,1.73-1.54,1.73-2.46,0-.33-.11-.56-.3-.67Z"/>
          <path class="cls-26" d="M111.98,41.33l.65.38c-.4-.23-.94-.26-1.58-.03l-.65-.38c.64-.22,1.17-.2,1.58.03Z"/>
          <polygon class="cls-26" points="100.32 60.02 99.67 59.65 99.93 59.72 100.59 60.1 100.32 60.02"/>
          <polygon class="cls-26" points="99.1 61.97 98.45 61.6 99.02 60.39 99.67 60.77 99.1 61.97"/>
          <polygon class="cls-26" points="106.25 48.86 105.6 48.48 107.93 47.13 108.58 47.51 106.25 48.86"/>
          <polygon class="cls-26" points="115.34 32.72 114.69 32.34 115.19 31.57 115.84 31.95 115.34 32.72"/>
          <path class="cls-26" d="M112.7,50.91l-.65-.38c2.98-3.7,4.83-8.47,4.82-12.43,0-2.55-.79-4.59-2.19-5.76l.65.38c1.4,1.16,2.18,3.21,2.19,5.76.01,3.96-1.84,8.73-4.82,12.43Z"/>
          <path class="cls-26" d="M101.02,55.83l-.65-.38c1.76,1.02,4.19.88,6.87-.67.75-.44,1.5-.97,2.23-1.59l.65.38c-.73.62-1.47,1.15-2.23,1.59-2.68,1.55-5.12,1.69-6.87.67Z"/>
          <path class="cls-26" d="M97.18,62.44l-.65-.38c2.74,1.59,6.54,1.37,10.73-1.05l.65.38c-4.19,2.42-7.99,2.64-10.73,1.05Z"/>
          <path class="cls-26" d="M116.13,28.32l.65.38c2.19,1.28,3.58,3.94,3.68,7.71l-.65-.38c-.1-3.77-1.49-6.44-3.68-7.71Z"/>
          <path class="cls-26" d="M98.9,59.42l-.65-.38c.44.25.91.46,1.42.6l.65.38c-.51-.15-.98-.35-1.42-.6Z"/>
          <polygon class="cls-26" points="99.6 57.69 98.95 57.31 99.66 56.1 100.31 56.48 99.6 57.69"/>
          <polygon class="cls-26" points="100.06 57.96 99.41 57.58 98.95 57.31 99.6 57.69 100.06 57.96"/>
          <polygon class="cls-26" points="102.4 52.22 101.75 51.84 102.55 51.38 103.2 51.76 102.4 52.22"/>
          <polygon class="cls-26" points="102.4 53.8 101.75 53.43 101.75 51.84 102.4 52.22 102.4 53.8"/>
          <path class="cls-26" d="M108.99,38.94l.65.38c.18.11.28.34.29.69,0,.84-.51,1.64-1.36,2.13l-.65-.38c.85-.49,1.37-1.29,1.36-2.13,0-.35-.1-.59-.29-.69Z"/>
          <polygon class="cls-26" points="113.71 30.92 113.06 30.54 113.33 30.6 113.98 30.98 113.71 30.92"/>
          <polygon class="cls-26" points="106.23 43.49 105.58 43.12 107.92 41.77 108.57 42.15 106.23 43.49"/>
          <polygon class="cls-26" points="112.59 32.76 111.94 32.38 112.41 31.32 113.06 31.7 112.59 32.76"/>
          <path class="cls-26" d="M111.68,35.59l.65.38c-.71-.41-1.9-.21-3.43.64l-.65-.38c1.53-.85,2.72-1.05,3.43-.64Z"/>
          <polygon class="cls-26" points="105.91 38.32 105.26 37.95 105.25 36.67 105.9 37.04 105.91 38.32"/>
          <polygon class="cls-26" points="105.9 37.04 105.25 36.67 108.24 34.94 108.89 35.32 105.9 37.04"/>
          <path class="cls-26" d="M100.31,56.48l-.65-.38c-1.71-1.13-2.76-3.36-2.77-6.46,0-.11,0-.23,0-.35l.65.38c0,.12,0,.23,0,.35,0,3.1,1.06,5.33,2.77,6.46Z"/>
          <polygon class="cls-26" points="102.37 41.95 101.72 41.58 101.71 39.99 102.37 40.37 102.37 41.95"/>
          <polygon class="cls-26" points="102.37 40.37 101.71 39.99 105.26 37.95 105.91 38.32 102.37 40.37"/>
          <path class="cls-26" d="M116.6,27.52l.65.38c-2.34-1.36-5.56-1.22-9.11.73l-.65-.38c3.55-1.95,6.77-2.09,9.11-.73Z"/>
          <polygon class="cls-26" points="95.29 50.06 94.64 49.68 97.58 48.19 98.23 48.57 95.29 50.06"/>
          <path class="cls-26" d="M102.66,36.77l-.65-.38c1.53-1.9,3.3-3.49,5.17-4.57,2.11-1.22,4.15-1.66,5.88-1.28l.65.38c-1.73-.38-3.77.06-5.88,1.28-1.87,1.08-3.64,2.67-5.17,4.57Z"/>
          <polygon class="cls-26" points="107.49 27.97 106.84 27.59 107.49 27.22 108.14 27.59 107.49 27.97"/>
          <polygon class="cls-26" points="107.49 29.01 106.84 28.63 106.84 27.59 107.49 27.97 107.49 29.01"/>
          <path class="cls-26" d="M97.98,46.29l-.65-.38c.71-3.12,2.19-6.21,4.12-8.8l.65.38c-1.93,2.6-3.41,5.68-4.12,8.8Z"/>
          <path class="cls-26" d="M104.3,31.39l-.65-.38c1.04-.93,2.11-1.73,3.19-2.38l.65.38c-1.08.66-2.16,1.45-3.19,2.38Z"/>
          <polygon class="cls-26" points="104.47 32.01 103.82 31.64 103.65 31.01 104.3 31.39 104.47 32.01"/>
          <path class="cls-30" d="M108.14,27.59v1.04c4.82-2.64,9.01-1.97,11.25,1.27l.99-1.18.31.49-.99,1.18c.91,1.53,1.42,3.56,1.43,6.01,0,1.91-.29,3.94-.88,6.05l-.61.08c.52-1.86.8-3.66.83-5.37l-2.29,1.32c-.1,4.15-2.05,9.05-5.14,12.89l-.33-.46c2.98-3.7,4.83-8.47,4.82-12.43,0-2.55-.79-4.59-2.19-5.76l.51-.77c1.43,1.19,2.25,3.23,2.33,5.78l2.29-1.32c-.2-7.72-5.8-10.79-12.64-6.84-1.14.66-2.26,1.48-3.35,2.45l-.18-.62c1.04-.93,2.11-1.73,3.19-2.38v-1.04s.65-.38.65-.38Z"/>
          <path class="cls-26" d="M98.44,60.22l-.65-.38c-2.45-1.42-3.83-4.43-3.84-8.5,0-2.14.37-4.43,1.08-6.74l.65.38c-.71,2.3-1.09,4.59-1.08,6.74.01,4.07,1.39,7.07,3.84,8.5Z"/>
          <polygon class="cls-26" points="102.1 37.49 101.45 37.11 100.24 35.58 100.89 35.96 102.1 37.49"/>
          <polygon class="cls-26" points="100.82 35.15 100.17 34.77 100.45 34.41 101.1 34.79 100.82 35.15"/>
          <path class="cls-26" d="M95.95,44.14l-.65-.38c1.07-3.11,2.73-6.22,4.87-8.99l.65.38c-2.14,2.77-3.8,5.87-4.87,8.99Z"/>
          <polygon class="cls-26" points="94.94 44.18 94.29 43.8 95.3 43.76 95.95 44.14 94.94 44.18"/>
          <polygon class="cls-26" points="94.67 45.02 94.02 44.64 94.29 43.8 94.94 44.18 94.67 45.02"/>
          <path class="cls-30" d="M101.1,34.79l1.56,1.97c1.53-1.9,3.3-3.49,5.17-4.57,2.11-1.22,4.15-1.66,5.88-1.28l.27.06-.84,1.9-.54-.12.47-1.06c-1.56-.26-3.36.17-5.23,1.25-4.28,2.47-7.99,7.77-9.22,13.19l-.63.14c.71-3.12,2.19-6.21,4.12-8.8l-1.21-1.53c-3.25,4.34-5.28,9.5-5.6,14.1l2.94-1.49-.02.39c-.01.23-.02.46-.02.69.02,6.12,4.37,8.6,9.7,5.53.75-.44,1.5-.97,2.23-1.59l-.18-.65.63-.56.36,1.28-.32.28c-.88.78-1.8,1.45-2.72,1.99-2.76,1.59-5.26,1.79-7.12.83l-.71,1.22-.46-.27.71-1.22c-1.71-1.13-2.76-3.36-2.77-6.46,0-.11,0-.23,0-.35l-2.29,1.16c0,.17,0,.34,0,.51.01,4.6,1.86,7.76,5.07,8.68l.26.07-.96,2.03-.52-.15.57-1.2c-3.22-1.06-5.07-4.34-5.08-9.05,0-2.14.37-4.43,1.08-6.74l-1.01.04.28-.84,1.01-.04c1.07-3.11,2.73-6.22,4.87-8.99l.28-.36Z"/>
          <path class="cls-24" d="M96.3,63.96l-.65-.38c-2.93-1.7-4.75-5.33-4.76-10.47-.03-10.36,7.26-22.98,16.27-28.19l.65.38c-9.02,5.21-16.3,17.83-16.27,28.19.01,5.15,1.83,8.77,4.76,10.47Z"/>
          <path class="cls-30" d="M107.81,25.3c9.02-5.21,16.35-1.03,16.38,9.33.03,10.36-7.26,22.98-16.27,28.19-9.02,5.21-16.35,1.03-16.38-9.34-.03-10.36,7.26-22.98,16.27-28.19ZM107.91,61.39c8.33-4.81,15.06-16.47,15.03-26.04-.03-9.57-6.8-13.43-15.13-8.62-8.33,4.81-15.06,16.47-15.03,26.04.03,9.57,6.8,13.43,15.13,8.62h0Z"/>
          <polygon class="cls-26" points="103.2 51.76 102.55 51.38 102.52 41.11 103.17 41.49 103.2 51.76"/>
          <path class="cls-30" d="M111.05,41.67c1.49-.51,2.41.28,2.41,2,0,2.3-1.74,4.75-4.49,6.34l-.03,1.17-2.99,1.73v-1.15s-3.55,2.05-3.55,2.05v-1.58s.79-.46.79-.46l-.03-10.27-.8.46v-1.58s3.54-2.05,3.54-2.05v-1.28s2.98-1.73,2.98-1.73v1.28c2.55-1.41,4.16-1.03,4.17.99,0,1.4-.78,2.98-2.01,4.08ZM108.58,47.51c1.07-.62,1.73-1.54,1.73-2.46,0-.83-.65-.99-1.68-.39-.02.01-.04.02-.06.03l-2.34,1.35v2.82s2.34-1.35,2.34-1.35h0ZM106.22,40.89v2.61s2.34-1.35,2.34-1.35c.85-.49,1.37-1.29,1.36-2.13,0-.79-.5-.98-1.32-.5-.02,0-.03.02-.05.03l-2.34,1.35h0Z"/>
          <path class="cls-11" d="M118.77,23.78l.65.38c-2.97-1.73-7.08-1.48-11.62,1.14l-.65-.38c4.54-2.62,8.65-2.86,11.62-1.14Z"/>
        </g>
      </g>
      <path class="cls-15" d="M65.64,63.02v69.01c0,3.19,3.45,5.18,6.21,3.58l65.13-37.6V15.21l-65.6,37.87c-3.55,2.05-5.74,5.84-5.74,9.93Z"/>
      <path class="cls-15" d="M65.64,63.02v69.01c0,3.19,3.45,5.18,6.21,3.58l65.13-37.6V15.21l-65.6,37.87c-3.55,2.05-5.74,5.84-5.74,9.93Z"/>
      <path class="cls-27" d="M68.9,64.9v69.01c0,3.19,3.45,5.18,6.21,3.58l65.13-37.6V17.1l-65.6,37.87c-3.55,2.05-5.74,5.84-5.74,9.94Z"/>
      <path class="cls-21" d="M71.38,53.09L136.97,15.21v3.76l-62.34,35.99c-3.55,2.05-5.74,5.84-5.74,9.93v69.01c0,.85.25,1.62.67,2.25-2.07-.11-3.92-1.8-3.92-4.13V63.02c0-4.1,2.19-7.89,5.74-9.93Z"/>
      <g>
        <path class="cls-18" d="M144.34,16.37v3.99c-.13.2-.27.39-.41.59-.29.38-.88.4-1.26.04-.4-.35-.51-.88-.28-1.19.67-.91,1.23-1.95,1.44-2.95.04-.21.24-.39.5-.48Z"/>
        <path class="cls-18" d="M135.75,24.52l3.23-1.86c.38-.22.91-.03,1.17.43.26.46.17,1.01-.21,1.23l-3.22,1.86c-.38.22-.91.03-1.18-.43-.27-.46-.17-1.01.21-1.23Z"/>
        <path class="cls-18" d="M128.3,28.84l3.22-1.86c.38-.22.91-.03,1.18.43.27.46.18,1.01-.2,1.23l-3.22,1.86c-.38.22-.91.03-1.18-.43-.27-.46-.18-1.01.2-1.23Z"/>
        <path class="cls-18" d="M120.84,33.14l3.22-1.86c.38-.22.91-.03,1.18.43.27.46.17,1.01-.2,1.23l-3.22,1.86c-.38.22-.91.03-1.18-.43-.27-.46-.17-1.01.21-1.23Z"/>
        <path class="cls-18" d="M113.39,37.44l3.22-1.86c.38-.22.91-.03,1.18.43.27.46.17,1.01-.21,1.23l-3.22,1.86c-.38.22-.91.03-1.18-.43-.27-.46-.17-1.01.21-1.23Z"/>
        <path class="cls-18" d="M105.93,41.75l3.22-1.86c.38-.22.91-.03,1.17.43.27.46.17,1.01-.21,1.23l-3.22,1.86c-.38.22-.91.03-1.17-.43-.27-.46-.17-1.01.21-1.23Z"/>
        <path class="cls-18" d="M98.48,46.05l3.22-1.86c.38-.22.91-.03,1.17.43.27.46.17,1.01-.21,1.23l-3.22,1.86c-.38.22-.91.03-1.17-.43-.27-.46-.17-1.01.21-1.23Z"/>
        <path class="cls-18" d="M91.02,50.36l3.22-1.86c.38-.22.91-.03,1.17.43.27.46.17,1.01-.21,1.23l-3.22,1.86c-.38.22-.91.02-1.17-.43-.27-.46-.17-1.01.21-1.23Z"/>
        <path class="cls-18" d="M83.57,54.66l3.22-1.86c.38-.22.91-.03,1.17.43.26.46.17,1.01-.21,1.23l-3.22,1.86c-.38.22-.91.02-1.17-.43-.26-.46-.17-1.01.21-1.23Z"/>
        <path class="cls-18" d="M76.05,59.06c.61-.44,1.15-.7,1.68-1.02l1.61-.93c.38-.22.91-.02,1.17.43.26.46.17,1.01-.21,1.23l-1.61.93c-.53.32-1.11.62-1.5.91-.29.21-.81.11-1.18-.26-.37-.37-.38-.98.04-1.29Z"/>
        <path class="cls-18" d="M73.1,67.62v-2.8c0-.36.03-.71.09-1.07.08-.51.62-.79,1.12-.63.5.16.83.57.77.93-.04.26-.06.52-.07.78v.92s0,1.86,0,1.86c0,.44-.43.8-.96.8s-.96-.36-.96-.8Z"/>
        <path class="cls-18" d="M73.1,76.23v-3.72c0-.44.43-.8.96-.8s.96.36.96.8v3.72c0,.44-.43.8-.96.8s-.96-.36-.96-.8Z"/>
        <path class="cls-18" d="M73.1,84.84v-3.72c0-.44.43-.8.96-.8s.96.36.96.8v3.72c0,.44-.43.8-.96.8s-.96-.36-.96-.8Z"/>
        <path class="cls-18" d="M73.1,93.45v-3.72c0-.44.43-.8.96-.8s.96.36.96.8v3.72c0,.44-.43.8-.96.8s-.96-.36-.96-.8Z"/>
        <path class="cls-18" d="M73.1,102.06v-3.72c0-.44.43-.8.96-.8s.96.36.96.8v3.72c0,.44-.43.8-.96.8s-.96-.36-.96-.8Z"/>
        <path class="cls-18" d="M73.1,110.66v-3.72c0-.44.43-.8.96-.8s.96.36.96.8v3.72c0,.44-.43.8-.96.8s-.96-.36-.96-.8Z"/>
        <path class="cls-18" d="M73.1,119.27v-3.72c0-.44.43-.8.96-.8s.96.36.96.8v3.72c0,.44-.43.8-.96.8s-.96-.36-.96-.8Z"/>
        <path class="cls-18" d="M73.1,127.88v-3.72c0-.44.43-.8.96-.8s.96.36.96.8v3.72c0,.44-.43.8-.96.8s-.96-.36-.96-.8Z"/>
        <path class="cls-18" d="M80.29,129.65l-3.22,1.86c-.28.16-.64.17-.87.03-.24-.13-.36-.37-.37-.63-.01-.26.05-.5.1-.69.06-.19.07-.32.18-.37l3.22-1.86c.38-.22.91-.03,1.17.43.26.46.17,1.01-.21,1.23Z"/>
        <path class="cls-18" d="M87.75,125.35l-3.22,1.86c-.38.22-.91.02-1.17-.43-.26-.46-.17-1.01.21-1.23l3.22-1.86c.38-.22.91-.02,1.17.43.26.46.17,1.01-.21,1.23Z"/>
        <path class="cls-18" d="M95.2,121.04l-3.22,1.86c-.38.22-.91.03-1.17-.43s-.17-1.01.21-1.23l3.22-1.86c.38-.22.91-.02,1.17.43.26.46.17,1.01-.21,1.23Z"/>
        <path class="cls-18" d="M102.66,116.74l-3.22,1.86c-.38.22-.91.02-1.17-.43-.26-.46-.17-1.01.21-1.23l3.22-1.86c.38-.22.91-.02,1.17.43.26.46.17,1.01-.21,1.23Z"/>
        <path class="cls-18" d="M110.11,112.44l-3.22,1.86c-.38.22-.91.02-1.17-.43-.26-.46-.17-1.01.21-1.23l3.22-1.86c.38-.22.91-.02,1.17.43.26.46.17,1.01-.21,1.23Z"/>
        <path class="cls-18" d="M117.57,108.13l-3.22,1.86c-.38.22-.91.02-1.17-.43-.26-.46-.17-1.01.21-1.23l3.22-1.86c.38-.22.91-.03,1.17.43.26.46.17,1.01-.21,1.23Z"/>
        <path class="cls-18" d="M125.03,103.83l-3.22,1.86c-.38.22-.91.02-1.17-.43s-.17-1.01.21-1.23l3.22-1.86c.38-.22.91-.02,1.17.43.26.46.17,1.01-.21,1.23Z"/>
        <path class="cls-18" d="M132.48,99.52l-3.22,1.86c-.38.22-.91.02-1.17-.43-.26-.46-.17-1.01.21-1.23l3.22-1.86c.38-.22.91-.02,1.17.43.26.46.17,1.01-.21,1.23Z"/>
        <path class="cls-18" d="M139.94,95.22l-3.22,1.86c-.38.22-.91.02-1.17-.43-.26-.46-.17-1.01.21-1.23l3.22-1.86c.38-.22.91-.02,1.17.43.26.46.17,1.01-.21,1.23Z"/>
        <path class="cls-18" d="M144.34,87.26v3.99c-.13.2-.27.4-.41.59-.29.39-.88.4-1.26.04-.4-.35-.51-.88-.28-1.2.67-.9,1.23-1.94,1.44-2.94.04-.21.24-.39.5-.48Z"/>
      </g>
      <path class="cls-21" d="M74.9,89.5l18.85-8.87-2.97-1.72-19.03,8.77c-2.17,1.25-5.68,1.26-7.83.01l-18.92-10.92c-1.07-.62-1.61-1.44-1.61-2.25,0-.82,0-4.96,0-4.96l-1.51.87c-3.91,2.26-3.93,5.92-.04,8.17l18.92,10.92c3.89,2.24,10.23,2.23,14.14-.03Z"/>
      <path class="cls-21" d="M77.29,98.1c-2.06-3.35-4.09-6.74-6.14-10.1.21-.1.41-.2.6-.32l15.24-8.8c2.5-1.44,5.62.36,5.62,3.24v3.07c0,4.83-2.57,9.28-6.75,11.7l-6.87,3.96c-.57-.92-1.14-1.83-1.71-2.76Z"/>
      <path class="cls-29" d="M38.93,74.54h0c0,1.47.97,2.94,2.9,4.06l18.92,10.92c3.89,2.24,10.23,2.23,14.14-.03l15.24-8.8c2.5-1.44,5.62.36,5.62,3.24v3.07c0,4.83-2.57,9.28-6.75,11.7l-14.11,8.14c-3.91,2.26-10.26,2.27-14.14.03l-18.92-10.92c-1.94-1.12-2.91-2.6-2.9-4.08,0-1.48,0-17.33,0-17.33Z"/>
    </g>
    <g>
      <path class="cls-19" d="M91.57,83.24c-2.06-1.2-5.4.72-7.46,4.31-2.06,3.58-2.06,7.46,0,8.67,2.06,1.2,5.4-.72,7.46-4.31,2.06-3.58,2.06-7.46,0-8.67Z"/>
      <polygon class="cls-19" points="85.98 97.3 84.11 96.22 91.57 83.24 93.44 84.32 85.98 97.3"/>
      <path class="cls-28" d="M93.44,84.32c-2.06-1.2-5.4.72-7.46,4.31s-2.06,7.46,0,8.67,5.4-.72,7.46-4.31c2.06-3.58,2.06-7.46,0-8.67Z"/>
      <path class="cls-25" d="M93.3,85.45c-1.77-1.04-4.65.62-6.42,3.71-1.77,3.08-1.77,6.42,0,7.46s4.65-.62,6.42-3.71,1.77-6.42,0-7.46Z"/>
    </g>
    <path class="cls-21" d="M137.02,7.62l-4.81-2.78c.48-.97,1-1.92,1.55-2.85.22.11.44.22.66.34l5.88,3.4c5.41,3.12,5.38,8.22-.06,11.37l-65.6,37.87-3.26-1.88L136.97,15.21c3.64-2.1,3.66-5.51.04-7.59Z"/>
  </g>
</svg>